M48
; DRILL file {KiCad (5.1.5-0-10_14)} date Friday, January 03, 2020 at 05:40:25 PM
; FORMAT={-:-/ absolute / inch / decimal}
; #@! TF.CreationDate,2020-01-03T17:40:25-06:00
; #@! TF.GenerationSoftware,Kicad,Pcbnew,(5.1.5-0-10_14)
; #@! TF.FileFunction,Plated,1,2,PTH
FMAT,2
INCH
T1C0.0157
T2C0.0390
T3C0.0394
T4C0.0512
%
G90
G05
T1
X2.6339Y-3.8268
X2.6339Y-4.1181
X2.6339Y-4.4134
X2.6339Y-4.7087
X2.6339Y-5.0039
X2.7598Y-3.8937
X2.7598Y-4.1929
X2.7598Y-4.4843
X2.7598Y-4.7795
X2.7598Y-5.0748
X2.8637Y-3.9818
X2.8701Y-3.685
X2.8701Y-4.2756
X2.8701Y-4.5709
X2.8701Y-4.8661
X2.9961Y-4.0512
X2.9961Y-4.3465
X2.9961Y-4.6417
X2.9961Y-4.937
X3.1412Y-3.8223
X3.1457Y-4.126
X3.1457Y-4.4213
X3.1457Y-4.7165
X3.1457Y-5.0118
X3.1555Y-3.5827
X3.2677Y-3.8937
X3.2677Y-4.189
X3.2677Y-4.4843
X3.2677Y-4.7795
X3.2717Y-5.0709
X3.3814Y-3.6806
X3.3819Y-3.9803
X3.3819Y-4.2756
X3.3819Y-4.5709
X3.3819Y-4.8661
X3.5039Y-4.0512
X3.5039Y-4.6417
X3.5039Y-4.937
X3.5079Y-3.7559
X3.5079Y-4.3465
X3.6511Y-3.8243
X3.6575Y-4.122
X3.6575Y-4.4134
X3.6575Y-4.7126
X3.6575Y-5.0079
X3.7815Y-4.4843
X3.7835Y-3.8937
X3.7835Y-4.189
X3.7835Y-4.7795
X3.7835Y-5.0748
X3.8912Y-3.6826
X3.8937Y-3.9803
X3.8937Y-4.2756
X3.8937Y-4.5709
X3.8937Y-4.8661
X4.0197Y-3.7559
X4.0197Y-4.0512
X4.0197Y-4.3465
X4.0197Y-4.6378
X4.0197Y-4.937
X4.1688Y-3.8184
X4.1693Y-4.1299
X4.1693Y-4.4213
X4.1693Y-4.7126
X4.1693Y-5.0118
X4.2913Y-4.189
X4.2913Y-4.4843
X4.2913Y-5.0748
X4.2953Y-3.8937
X4.2953Y-4.7795
X4.4011Y-3.6845
X4.4055Y-3.9843
X4.4055Y-4.2776
X4.4055Y-4.5709
X4.4055Y-4.8661
X4.5276Y-3.7598
X4.5276Y-4.6417
X4.5315Y-4.0512
X4.5315Y-4.3465
X4.5315Y-4.937
X4.6417Y-3.685
X4.7677Y-3.8169
X4.878Y-3.8228
X4.878Y-4.1181
X4.878Y-4.4134
X4.878Y-4.7087
X4.878Y-5.0039
X5.0039Y-3.9016
X5.0039Y-4.189
X5.0039Y-4.4843
X5.0039Y-4.7795
X5.0039Y-5.0748
X5.1137Y-3.6806
X5.1142Y-3.9803
X5.1142Y-4.2756
X5.1142Y-4.5709
X5.1142Y-4.8661
X5.2362Y-3.7598
X5.2402Y-4.0512
X5.2402Y-4.3465
X5.2402Y-4.6417
X5.2402Y-4.937
X5.3853Y-3.8223
X5.3898Y-4.126
X5.3898Y-4.4213
X5.3898Y-4.7165
X5.3898Y-5.0118
X5.5118Y-3.8976
X5.5118Y-4.189
X5.5157Y-4.4803
X5.5157Y-4.7795
X5.5157Y-5.0748
X5.6235Y-3.6826
X5.626Y-3.9803
X5.626Y-4.2756
X5.626Y-4.5709
X5.626Y-4.8661
X5.748Y-3.7598
X5.748Y-4.0512
X5.748Y-4.3465
X5.752Y-4.6417
X5.752Y-4.9409
X5.8971Y-3.8223
X5.9016Y-4.1181
X5.9016Y-4.4173
X5.9016Y-4.7087
X5.9016Y-5.0079
X6.0276Y-3.8898
X6.0276Y-4.189
X6.0276Y-4.4882
X6.0276Y-4.7795
X6.0276Y-5.0787
X6.1334Y-3.6845
X6.1378Y-3.9803
X6.1378Y-4.2756
X6.1378Y-4.5748
X6.1378Y-4.8701
X6.2638Y-3.7559
X6.2638Y-4.0512
X6.2638Y-4.3465
X6.2638Y-4.6378
X6.2638Y-4.937
X6.4109Y-3.8204
X6.4134Y-4.126
X6.4134Y-4.4252
X6.4134Y-4.7126
X6.4134Y-5.0157
X6.5354Y-3.8937
X6.5354Y-4.189
X6.5354Y-5.0748
X6.5394Y-4.4843
X6.5394Y-4.7795
X6.6452Y-3.6845
X6.6496Y-3.9803
X6.6496Y-4.2795
X6.6496Y-4.5748
X6.6496Y-4.8701
X6.7756Y-3.7598
X6.7756Y-4.0472
X6.7756Y-4.3465
X6.7756Y-4.6378
X6.7756Y-4.937
X7.0118Y-3.7313
X7.122Y-3.8268
X7.122Y-4.122
X7.122Y-4.4134
X7.122Y-4.7126
X7.122Y-5.0039
X7.248Y-3.8937
X7.248Y-4.189
X7.248Y-4.4843
X7.248Y-4.7795
X7.248Y-5.0787
X7.3538Y-3.6845
X7.3583Y-3.9803
X7.3583Y-4.2756
X7.3583Y-4.5709
X7.3583Y-4.8701
X7.4843Y-3.7598
X7.4843Y-4.0551
X7.4843Y-4.3465
X7.4843Y-4.6417
X7.4882Y-4.937
X7.6294Y-3.8223
X7.6339Y-4.1299
X7.6339Y-4.4222
X7.6339Y-4.7165
X7.6339Y-5.0118
X7.7559Y-4.189
X7.7559Y-4.7835
X7.7598Y-3.8937
X7.7598Y-4.4843
X7.7598Y-5.0709
X7.8656Y-3.6845
X7.8701Y-3.9803
X7.8701Y-4.2756
X7.8701Y-4.5709
X7.8701Y-4.8661
X7.9921Y-3.7559
X7.9921Y-4.0512
X7.9921Y-4.3425
X7.9921Y-4.937
X7.9961Y-4.6417
X8.1393Y-3.8243
X8.1457Y-4.1181
X8.1457Y-4.4134
X8.1457Y-4.7087
X8.1457Y-5.0079
X8.2717Y-3.8937
X8.2717Y-4.189
X8.2717Y-4.4843
X8.2717Y-4.7795
X8.2717Y-5.0787
X8.3755Y-3.6865
X8.3819Y-3.9843
X8.3819Y-4.2795
X8.3819Y-4.5709
X8.3819Y-4.8661
X8.5079Y-3.752
X8.5079Y-4.0512
X8.5079Y-4.3465
X8.5079Y-4.6417
X8.5079Y-4.937
X8.6511Y-3.8243
X8.6575Y-4.126
X8.6575Y-4.4252
X8.6575Y-4.7165
X8.6575Y-5.0118
X8.7795Y-4.4843
X8.7795Y-5.0748
X8.7835Y-3.8898
X8.7835Y-4.185
X8.7835Y-4.7795
X8.8893Y-3.6845
X8.8937Y-3.9803
X8.8937Y-4.2756
X8.8937Y-4.5748
X8.8937Y-4.8661
X9.0157Y-3.752
X9.0197Y-4.0512
X9.0197Y-4.3465
X9.0197Y-4.6378
X9.0197Y-4.9409
T2
X6.0571Y-3.1201
X6.2343Y-3.1201
X5.4094Y-3.1201
X5.5866Y-3.1201
X4.9843Y-3.1201
X5.1614Y-3.1201
X6.4902Y-3.1201
X6.6673Y-3.1201
T3
X4.1803Y-3.5654
X4.1803Y-3.6654
X4.6803Y-4.0654
X4.6803Y-4.1654
X4.6803Y-4.2654
X4.6803Y-4.3654
X4.6803Y-4.4654
T4
X6.0075Y-3.2181
X6.2835Y-3.2181
X5.3598Y-3.2181
X5.6358Y-3.2181
X4.9346Y-3.2181
X5.2106Y-3.2181
X6.4406Y-3.2181
X6.7165Y-3.2181
T0
M30
