G04 #@! TF.GenerationSoftware,KiCad,Pcbnew,(5.1.5-0-10_14)*
G04 #@! TF.CreationDate,2020-01-03T17:39:58-06:00*
G04 #@! TF.ProjectId,foxie_clock_nano,666f7869-655f-4636-9c6f-636b5f6e616e,1.4*
G04 #@! TF.SameCoordinates,Original*
G04 #@! TF.FileFunction,Paste,Top*
G04 #@! TF.FilePolarity,Positive*
%FSLAX46Y46*%
G04 Gerber Fmt 4.6, Leading zero omitted, Abs format (unit mm)*
G04 Created by KiCad (PCBNEW (5.1.5-0-10_14)) date 2020-01-03 17:39:58*
%MOMM*%
%LPD*%
G04 APERTURE LIST*
%ADD10R,1.000000X1.500000*%
%ADD11C,0.100000*%
%ADD12R,0.450000X1.450000*%
G04 APERTURE END LIST*
D10*
X216100000Y-92050000D03*
X212900000Y-92050000D03*
X216100000Y-96950000D03*
X212900000Y-96950000D03*
D11*
G36*
X168224504Y-86401204D02*
G01*
X168248773Y-86404804D01*
X168272571Y-86410765D01*
X168295671Y-86419030D01*
X168317849Y-86429520D01*
X168338893Y-86442133D01*
X168358598Y-86456747D01*
X168376777Y-86473223D01*
X168393253Y-86491402D01*
X168407867Y-86511107D01*
X168420480Y-86532151D01*
X168430970Y-86554329D01*
X168439235Y-86577429D01*
X168445196Y-86601227D01*
X168448796Y-86625496D01*
X168450000Y-86650000D01*
X168450000Y-87750000D01*
X168448796Y-87774504D01*
X168445196Y-87798773D01*
X168439235Y-87822571D01*
X168430970Y-87845671D01*
X168420480Y-87867849D01*
X168407867Y-87888893D01*
X168393253Y-87908598D01*
X168376777Y-87926777D01*
X168358598Y-87943253D01*
X168338893Y-87957867D01*
X168317849Y-87970480D01*
X168295671Y-87980970D01*
X168272571Y-87989235D01*
X168248773Y-87995196D01*
X168224504Y-87998796D01*
X168200000Y-88000000D01*
X165200000Y-88000000D01*
X165175496Y-87998796D01*
X165151227Y-87995196D01*
X165127429Y-87989235D01*
X165104329Y-87980970D01*
X165082151Y-87970480D01*
X165061107Y-87957867D01*
X165041402Y-87943253D01*
X165023223Y-87926777D01*
X165006747Y-87908598D01*
X164992133Y-87888893D01*
X164979520Y-87867849D01*
X164969030Y-87845671D01*
X164960765Y-87822571D01*
X164954804Y-87798773D01*
X164951204Y-87774504D01*
X164950000Y-87750000D01*
X164950000Y-86650000D01*
X164951204Y-86625496D01*
X164954804Y-86601227D01*
X164960765Y-86577429D01*
X164969030Y-86554329D01*
X164979520Y-86532151D01*
X164992133Y-86511107D01*
X165006747Y-86491402D01*
X165023223Y-86473223D01*
X165041402Y-86456747D01*
X165061107Y-86442133D01*
X165082151Y-86429520D01*
X165104329Y-86419030D01*
X165127429Y-86410765D01*
X165151227Y-86404804D01*
X165175496Y-86401204D01*
X165200000Y-86400000D01*
X168200000Y-86400000D01*
X168224504Y-86401204D01*
G37*
G36*
X162824504Y-86401204D02*
G01*
X162848773Y-86404804D01*
X162872571Y-86410765D01*
X162895671Y-86419030D01*
X162917849Y-86429520D01*
X162938893Y-86442133D01*
X162958598Y-86456747D01*
X162976777Y-86473223D01*
X162993253Y-86491402D01*
X163007867Y-86511107D01*
X163020480Y-86532151D01*
X163030970Y-86554329D01*
X163039235Y-86577429D01*
X163045196Y-86601227D01*
X163048796Y-86625496D01*
X163050000Y-86650000D01*
X163050000Y-87750000D01*
X163048796Y-87774504D01*
X163045196Y-87798773D01*
X163039235Y-87822571D01*
X163030970Y-87845671D01*
X163020480Y-87867849D01*
X163007867Y-87888893D01*
X162993253Y-87908598D01*
X162976777Y-87926777D01*
X162958598Y-87943253D01*
X162938893Y-87957867D01*
X162917849Y-87970480D01*
X162895671Y-87980970D01*
X162872571Y-87989235D01*
X162848773Y-87995196D01*
X162824504Y-87998796D01*
X162800000Y-88000000D01*
X159800000Y-88000000D01*
X159775496Y-87998796D01*
X159751227Y-87995196D01*
X159727429Y-87989235D01*
X159704329Y-87980970D01*
X159682151Y-87970480D01*
X159661107Y-87957867D01*
X159641402Y-87943253D01*
X159623223Y-87926777D01*
X159606747Y-87908598D01*
X159592133Y-87888893D01*
X159579520Y-87867849D01*
X159569030Y-87845671D01*
X159560765Y-87822571D01*
X159554804Y-87798773D01*
X159551204Y-87774504D01*
X159550000Y-87750000D01*
X159550000Y-86650000D01*
X159551204Y-86625496D01*
X159554804Y-86601227D01*
X159560765Y-86577429D01*
X159569030Y-86554329D01*
X159579520Y-86532151D01*
X159592133Y-86511107D01*
X159606747Y-86491402D01*
X159623223Y-86473223D01*
X159641402Y-86456747D01*
X159661107Y-86442133D01*
X159682151Y-86429520D01*
X159704329Y-86419030D01*
X159727429Y-86410765D01*
X159751227Y-86404804D01*
X159775496Y-86401204D01*
X159800000Y-86400000D01*
X162800000Y-86400000D01*
X162824504Y-86401204D01*
G37*
D10*
X178100000Y-92050000D03*
X174900000Y-92050000D03*
X178100000Y-96950000D03*
X174900000Y-96950000D03*
X121100000Y-92050000D03*
X117900000Y-92050000D03*
X121100000Y-96950000D03*
X117900000Y-96950000D03*
X223100000Y-125550000D03*
X219900000Y-125550000D03*
X223100000Y-130450000D03*
X219900000Y-130450000D03*
X210100000Y-125550000D03*
X206900000Y-125550000D03*
X210100000Y-130450000D03*
X206900000Y-130450000D03*
X229100000Y-122050000D03*
X225900000Y-122050000D03*
X229100000Y-126950000D03*
X225900000Y-126950000D03*
X216100000Y-122050000D03*
X212900000Y-122050000D03*
X216100000Y-126950000D03*
X212900000Y-126950000D03*
X223100000Y-118050000D03*
X219900000Y-118050000D03*
X223100000Y-122950000D03*
X219900000Y-122950000D03*
X210100000Y-118050000D03*
X206900000Y-118050000D03*
X210100000Y-122950000D03*
X206900000Y-122950000D03*
X229100000Y-114550000D03*
X225900000Y-114550000D03*
X229100000Y-119450000D03*
X225900000Y-119450000D03*
X216100000Y-114550000D03*
X212900000Y-114550000D03*
X216100000Y-119450000D03*
X212900000Y-119450000D03*
X223100000Y-110550000D03*
X219900000Y-110550000D03*
X223100000Y-115450000D03*
X219900000Y-115450000D03*
X210100000Y-110550000D03*
X206900000Y-110550000D03*
X210100000Y-115450000D03*
X206900000Y-115450000D03*
X229100000Y-107050000D03*
X225900000Y-107050000D03*
X229100000Y-111950000D03*
X225900000Y-111950000D03*
X216100000Y-107050000D03*
X212900000Y-107050000D03*
X216100000Y-111950000D03*
X212900000Y-111950000D03*
X223100000Y-103050000D03*
X219900000Y-103050000D03*
X223100000Y-107950000D03*
X219900000Y-107950000D03*
X210100000Y-103050000D03*
X206900000Y-103050000D03*
X210100000Y-107950000D03*
X206900000Y-107950000D03*
X229100000Y-99550000D03*
X225900000Y-99550000D03*
X229100000Y-104450000D03*
X225900000Y-104450000D03*
X216100000Y-99550000D03*
X212900000Y-99550000D03*
X216100000Y-104450000D03*
X212900000Y-104450000D03*
X223100000Y-95550000D03*
X219900000Y-95550000D03*
X223100000Y-100450000D03*
X219900000Y-100450000D03*
X210100000Y-95550000D03*
X206900000Y-95550000D03*
X210100000Y-100450000D03*
X206900000Y-100450000D03*
X229100000Y-92050000D03*
X225900000Y-92050000D03*
X229100000Y-96950000D03*
X225900000Y-96950000D03*
X197100000Y-125550000D03*
X193900000Y-125550000D03*
X197100000Y-130450000D03*
X193900000Y-130450000D03*
X184100000Y-125550000D03*
X180900000Y-125550000D03*
X184100000Y-130450000D03*
X180900000Y-130450000D03*
X203100000Y-122050000D03*
X199900000Y-122050000D03*
X203100000Y-126950000D03*
X199900000Y-126950000D03*
X190100000Y-122050000D03*
X186900000Y-122050000D03*
X190100000Y-126950000D03*
X186900000Y-126950000D03*
X197100000Y-118050000D03*
X193900000Y-118050000D03*
X197100000Y-122950000D03*
X193900000Y-122950000D03*
X184100000Y-118050000D03*
X180900000Y-118050000D03*
X184100000Y-122950000D03*
X180900000Y-122950000D03*
X203100000Y-114550000D03*
X199900000Y-114550000D03*
X203100000Y-119450000D03*
X199900000Y-119450000D03*
X190100000Y-114550000D03*
X186900000Y-114550000D03*
X190100000Y-119450000D03*
X186900000Y-119450000D03*
X197100000Y-110550000D03*
X193900000Y-110550000D03*
X197100000Y-115450000D03*
X193900000Y-115450000D03*
X184100000Y-110550000D03*
X180900000Y-110550000D03*
X184100000Y-115450000D03*
X180900000Y-115450000D03*
X203100000Y-107050000D03*
X199900000Y-107050000D03*
X203100000Y-111950000D03*
X199900000Y-111950000D03*
X190100000Y-107050000D03*
X186900000Y-107050000D03*
X190100000Y-111950000D03*
X186900000Y-111950000D03*
X197100000Y-103050000D03*
X193900000Y-103050000D03*
X197100000Y-107950000D03*
X193900000Y-107950000D03*
X184100000Y-103050000D03*
X180900000Y-103050000D03*
X184100000Y-107950000D03*
X180900000Y-107950000D03*
X203100000Y-99550000D03*
X199900000Y-99550000D03*
X203100000Y-104450000D03*
X199900000Y-104450000D03*
X190100000Y-99550000D03*
X186900000Y-99550000D03*
X190100000Y-104450000D03*
X186900000Y-104450000D03*
X197100000Y-95550000D03*
X193900000Y-95550000D03*
X197100000Y-100450000D03*
X193900000Y-100450000D03*
X184100000Y-95550000D03*
X180900000Y-95550000D03*
X184100000Y-100450000D03*
X180900000Y-100450000D03*
X203100000Y-92050000D03*
X199900000Y-92050000D03*
X203100000Y-96950000D03*
X199900000Y-96950000D03*
X190100000Y-92050000D03*
X186900000Y-92050000D03*
X190100000Y-96950000D03*
X186900000Y-96950000D03*
X166100000Y-125550000D03*
X162900000Y-125550000D03*
X166100000Y-130450000D03*
X162900000Y-130450000D03*
X153100000Y-125550000D03*
X149900000Y-125550000D03*
X153100000Y-130450000D03*
X149900000Y-130450000D03*
X172100000Y-122050000D03*
X168900000Y-122050000D03*
X172100000Y-126950000D03*
X168900000Y-126950000D03*
X159100000Y-122050000D03*
X155900000Y-122050000D03*
X159100000Y-126950000D03*
X155900000Y-126950000D03*
X166100000Y-118050000D03*
X162900000Y-118050000D03*
X166100000Y-122950000D03*
X162900000Y-122950000D03*
X153100000Y-118050000D03*
X149900000Y-118050000D03*
X153100000Y-122950000D03*
X149900000Y-122950000D03*
X172100000Y-114550000D03*
X168900000Y-114550000D03*
X172100000Y-119450000D03*
X168900000Y-119450000D03*
X159100000Y-114550000D03*
X155900000Y-114550000D03*
X159100000Y-119450000D03*
X155900000Y-119450000D03*
X166100000Y-110550000D03*
X162900000Y-110550000D03*
X166100000Y-115450000D03*
X162900000Y-115450000D03*
X153100000Y-110550000D03*
X149900000Y-110550000D03*
X153100000Y-115450000D03*
X149900000Y-115450000D03*
X172100000Y-107050000D03*
X168900000Y-107050000D03*
X172100000Y-111950000D03*
X168900000Y-111950000D03*
X159100000Y-107050000D03*
X155900000Y-107050000D03*
X159100000Y-111950000D03*
X155900000Y-111950000D03*
X166100000Y-103050000D03*
X162900000Y-103050000D03*
X166100000Y-107950000D03*
X162900000Y-107950000D03*
X153100000Y-103050000D03*
X149900000Y-103050000D03*
X153100000Y-107950000D03*
X149900000Y-107950000D03*
X172100000Y-99550000D03*
X168900000Y-99550000D03*
X172100000Y-104450000D03*
X168900000Y-104450000D03*
X159100000Y-99550000D03*
X155900000Y-99550000D03*
X159100000Y-104450000D03*
X155900000Y-104450000D03*
X166100000Y-95550000D03*
X162900000Y-95550000D03*
X166100000Y-100450000D03*
X162900000Y-100450000D03*
X153100000Y-95550000D03*
X149900000Y-95550000D03*
X153100000Y-100450000D03*
X149900000Y-100450000D03*
X172100000Y-92050000D03*
X168900000Y-92050000D03*
X172100000Y-96950000D03*
X168900000Y-96950000D03*
X159100000Y-92050000D03*
X155900000Y-92050000D03*
X159100000Y-96950000D03*
X155900000Y-96950000D03*
X140100000Y-125550000D03*
X136900000Y-125550000D03*
X140100000Y-130450000D03*
X136900000Y-130450000D03*
X127100000Y-125550000D03*
X123900000Y-125550000D03*
X127100000Y-130450000D03*
X123900000Y-130450000D03*
X146100000Y-122050000D03*
X142900000Y-122050000D03*
X146100000Y-126950000D03*
X142900000Y-126950000D03*
X133100000Y-122050000D03*
X129900000Y-122050000D03*
X133100000Y-126950000D03*
X129900000Y-126950000D03*
X140100000Y-118050000D03*
X136900000Y-118050000D03*
X140100000Y-122950000D03*
X136900000Y-122950000D03*
X127100000Y-118050000D03*
X123900000Y-118050000D03*
X127100000Y-122950000D03*
X123900000Y-122950000D03*
X146100000Y-114550000D03*
X142900000Y-114550000D03*
X146100000Y-119450000D03*
X142900000Y-119450000D03*
X133100000Y-114550000D03*
X129900000Y-114550000D03*
X133100000Y-119450000D03*
X129900000Y-119450000D03*
X140100000Y-110550000D03*
X136900000Y-110550000D03*
X140100000Y-115450000D03*
X136900000Y-115450000D03*
X127100000Y-110550000D03*
X123900000Y-110550000D03*
X127100000Y-115450000D03*
X123900000Y-115450000D03*
X146100000Y-107050000D03*
X142900000Y-107050000D03*
X146100000Y-111950000D03*
X142900000Y-111950000D03*
X133100000Y-107050000D03*
X129900000Y-107050000D03*
X133100000Y-111950000D03*
X129900000Y-111950000D03*
X140100000Y-103050000D03*
X136900000Y-103050000D03*
X140100000Y-107950000D03*
X136900000Y-107950000D03*
X127100000Y-103050000D03*
X123900000Y-103050000D03*
X127100000Y-107950000D03*
X123900000Y-107950000D03*
X146100000Y-99550000D03*
X142900000Y-99550000D03*
X146100000Y-104450000D03*
X142900000Y-104450000D03*
X133100000Y-99550000D03*
X129900000Y-99550000D03*
X133100000Y-104450000D03*
X129900000Y-104450000D03*
X140100000Y-95550000D03*
X136900000Y-95550000D03*
X140100000Y-100450000D03*
X136900000Y-100450000D03*
X127100000Y-95550000D03*
X123900000Y-95550000D03*
X127100000Y-100450000D03*
X123900000Y-100450000D03*
X146100000Y-92050000D03*
X142900000Y-92050000D03*
X146100000Y-96950000D03*
X142900000Y-96950000D03*
X133100000Y-92050000D03*
X129900000Y-92050000D03*
X133100000Y-96950000D03*
X129900000Y-96950000D03*
X109100000Y-125550000D03*
X105900000Y-125550000D03*
X109100000Y-130450000D03*
X105900000Y-130450000D03*
X96100000Y-125550000D03*
X92900000Y-125550000D03*
X96100000Y-130450000D03*
X92900000Y-130450000D03*
X115100000Y-122050000D03*
X111900000Y-122050000D03*
X115100000Y-126950000D03*
X111900000Y-126950000D03*
X102100000Y-122050000D03*
X98900000Y-122050000D03*
X102100000Y-126950000D03*
X98900000Y-126950000D03*
X109100000Y-118050000D03*
X105900000Y-118050000D03*
X109100000Y-122950000D03*
X105900000Y-122950000D03*
X96100000Y-118050000D03*
X92900000Y-118050000D03*
X96100000Y-122950000D03*
X92900000Y-122950000D03*
X115100000Y-114550000D03*
X111900000Y-114550000D03*
X115100000Y-119450000D03*
X111900000Y-119450000D03*
X102100000Y-114550000D03*
X98900000Y-114550000D03*
X102100000Y-119450000D03*
X98900000Y-119450000D03*
X109100000Y-110550000D03*
X105900000Y-110550000D03*
X109100000Y-115450000D03*
X105900000Y-115450000D03*
X96100000Y-110550000D03*
X92900000Y-110550000D03*
X96100000Y-115450000D03*
X92900000Y-115450000D03*
X115100000Y-107050000D03*
X111900000Y-107050000D03*
X115100000Y-111950000D03*
X111900000Y-111950000D03*
X102100000Y-107050000D03*
X98900000Y-107050000D03*
X102100000Y-111950000D03*
X98900000Y-111950000D03*
X109100000Y-103050000D03*
X105900000Y-103050000D03*
X109100000Y-107950000D03*
X105900000Y-107950000D03*
X96100000Y-103050000D03*
X92900000Y-103050000D03*
X96100000Y-107950000D03*
X92900000Y-107950000D03*
X115100000Y-99550000D03*
X111900000Y-99550000D03*
X115100000Y-104450000D03*
X111900000Y-104450000D03*
X102100000Y-99550000D03*
X98900000Y-99550000D03*
X102100000Y-104450000D03*
X98900000Y-104450000D03*
X109100000Y-95550000D03*
X105900000Y-95550000D03*
X109100000Y-100450000D03*
X105900000Y-100450000D03*
X96100000Y-95550000D03*
X92900000Y-95550000D03*
X96100000Y-100450000D03*
X92900000Y-100450000D03*
X115100000Y-92050000D03*
X111900000Y-92050000D03*
X115100000Y-96950000D03*
X111900000Y-96950000D03*
X102100000Y-92050000D03*
X98900000Y-92050000D03*
X102100000Y-96950000D03*
X98900000Y-96950000D03*
X83100000Y-125550000D03*
X79900000Y-125550000D03*
X83100000Y-130450000D03*
X79900000Y-130450000D03*
X70100000Y-125550000D03*
X66900000Y-125550000D03*
X70100000Y-130450000D03*
X66900000Y-130450000D03*
X89100000Y-122050000D03*
X85900000Y-122050000D03*
X89100000Y-126950000D03*
X85900000Y-126950000D03*
X76100000Y-122050000D03*
X72900000Y-122050000D03*
X76100000Y-126950000D03*
X72900000Y-126950000D03*
X83100000Y-118050000D03*
X79900000Y-118050000D03*
X83100000Y-122950000D03*
X79900000Y-122950000D03*
X70100000Y-118050000D03*
X66900000Y-118050000D03*
X70100000Y-122950000D03*
X66900000Y-122950000D03*
X89100000Y-114550000D03*
X85900000Y-114550000D03*
X89100000Y-119450000D03*
X85900000Y-119450000D03*
X76100000Y-114550000D03*
X72900000Y-114550000D03*
X76100000Y-119450000D03*
X72900000Y-119450000D03*
X83100000Y-110550000D03*
X79900000Y-110550000D03*
X83100000Y-115450000D03*
X79900000Y-115450000D03*
X70100000Y-110550000D03*
X66900000Y-110550000D03*
X70100000Y-115450000D03*
X66900000Y-115450000D03*
X89100000Y-107050000D03*
X85900000Y-107050000D03*
X89100000Y-111950000D03*
X85900000Y-111950000D03*
X76100000Y-107050000D03*
X72900000Y-107050000D03*
X76100000Y-111950000D03*
X72900000Y-111950000D03*
X83100000Y-103050000D03*
X79900000Y-103050000D03*
X83100000Y-107950000D03*
X79900000Y-107950000D03*
X70100000Y-103050000D03*
X66900000Y-103050000D03*
X70100000Y-107950000D03*
X66900000Y-107950000D03*
X89100000Y-99550000D03*
X85900000Y-99550000D03*
X89100000Y-104450000D03*
X85900000Y-104450000D03*
X76100000Y-99550000D03*
X72900000Y-99550000D03*
X76100000Y-104450000D03*
X72900000Y-104450000D03*
X83100000Y-95550000D03*
X79900000Y-95550000D03*
X83100000Y-100450000D03*
X79900000Y-100450000D03*
X70100000Y-95550000D03*
X66900000Y-95550000D03*
X70100000Y-100450000D03*
X66900000Y-100450000D03*
X89100000Y-92050000D03*
X85900000Y-92050000D03*
X89100000Y-96950000D03*
X85900000Y-96950000D03*
X76100000Y-92050000D03*
X72900000Y-92050000D03*
X76100000Y-96950000D03*
X72900000Y-96950000D03*
D12*
X79550000Y-86550000D03*
X80200000Y-86550000D03*
X80850000Y-86550000D03*
X81500000Y-86550000D03*
X82150000Y-86550000D03*
X82800000Y-86550000D03*
X83450000Y-86550000D03*
X83450000Y-92450000D03*
X82800000Y-92450000D03*
X82150000Y-92450000D03*
X81500000Y-92450000D03*
X80850000Y-92450000D03*
X80200000Y-92450000D03*
X79550000Y-92450000D03*
D11*
G36*
X73499504Y-87126204D02*
G01*
X73523773Y-87129804D01*
X73547571Y-87135765D01*
X73570671Y-87144030D01*
X73592849Y-87154520D01*
X73613893Y-87167133D01*
X73633598Y-87181747D01*
X73651777Y-87198223D01*
X73668253Y-87216402D01*
X73682867Y-87236107D01*
X73695480Y-87257151D01*
X73705970Y-87279329D01*
X73714235Y-87302429D01*
X73720196Y-87326227D01*
X73723796Y-87350496D01*
X73725000Y-87375000D01*
X73725000Y-88625000D01*
X73723796Y-88649504D01*
X73720196Y-88673773D01*
X73714235Y-88697571D01*
X73705970Y-88720671D01*
X73695480Y-88742849D01*
X73682867Y-88763893D01*
X73668253Y-88783598D01*
X73651777Y-88801777D01*
X73633598Y-88818253D01*
X73613893Y-88832867D01*
X73592849Y-88845480D01*
X73570671Y-88855970D01*
X73547571Y-88864235D01*
X73523773Y-88870196D01*
X73499504Y-88873796D01*
X73475000Y-88875000D01*
X72725000Y-88875000D01*
X72700496Y-88873796D01*
X72676227Y-88870196D01*
X72652429Y-88864235D01*
X72629329Y-88855970D01*
X72607151Y-88845480D01*
X72586107Y-88832867D01*
X72566402Y-88818253D01*
X72548223Y-88801777D01*
X72531747Y-88783598D01*
X72517133Y-88763893D01*
X72504520Y-88742849D01*
X72494030Y-88720671D01*
X72485765Y-88697571D01*
X72479804Y-88673773D01*
X72476204Y-88649504D01*
X72475000Y-88625000D01*
X72475000Y-87375000D01*
X72476204Y-87350496D01*
X72479804Y-87326227D01*
X72485765Y-87302429D01*
X72494030Y-87279329D01*
X72504520Y-87257151D01*
X72517133Y-87236107D01*
X72531747Y-87216402D01*
X72548223Y-87198223D01*
X72566402Y-87181747D01*
X72586107Y-87167133D01*
X72607151Y-87154520D01*
X72629329Y-87144030D01*
X72652429Y-87135765D01*
X72676227Y-87129804D01*
X72700496Y-87126204D01*
X72725000Y-87125000D01*
X73475000Y-87125000D01*
X73499504Y-87126204D01*
G37*
G36*
X76299504Y-87126204D02*
G01*
X76323773Y-87129804D01*
X76347571Y-87135765D01*
X76370671Y-87144030D01*
X76392849Y-87154520D01*
X76413893Y-87167133D01*
X76433598Y-87181747D01*
X76451777Y-87198223D01*
X76468253Y-87216402D01*
X76482867Y-87236107D01*
X76495480Y-87257151D01*
X76505970Y-87279329D01*
X76514235Y-87302429D01*
X76520196Y-87326227D01*
X76523796Y-87350496D01*
X76525000Y-87375000D01*
X76525000Y-88625000D01*
X76523796Y-88649504D01*
X76520196Y-88673773D01*
X76514235Y-88697571D01*
X76505970Y-88720671D01*
X76495480Y-88742849D01*
X76482867Y-88763893D01*
X76468253Y-88783598D01*
X76451777Y-88801777D01*
X76433598Y-88818253D01*
X76413893Y-88832867D01*
X76392849Y-88845480D01*
X76370671Y-88855970D01*
X76347571Y-88864235D01*
X76323773Y-88870196D01*
X76299504Y-88873796D01*
X76275000Y-88875000D01*
X75525000Y-88875000D01*
X75500496Y-88873796D01*
X75476227Y-88870196D01*
X75452429Y-88864235D01*
X75429329Y-88855970D01*
X75407151Y-88845480D01*
X75386107Y-88832867D01*
X75366402Y-88818253D01*
X75348223Y-88801777D01*
X75331747Y-88783598D01*
X75317133Y-88763893D01*
X75304520Y-88742849D01*
X75294030Y-88720671D01*
X75285765Y-88697571D01*
X75279804Y-88673773D01*
X75276204Y-88649504D01*
X75275000Y-88625000D01*
X75275000Y-87375000D01*
X75276204Y-87350496D01*
X75279804Y-87326227D01*
X75285765Y-87302429D01*
X75294030Y-87279329D01*
X75304520Y-87257151D01*
X75317133Y-87236107D01*
X75331747Y-87216402D01*
X75348223Y-87198223D01*
X75366402Y-87181747D01*
X75386107Y-87167133D01*
X75407151Y-87154520D01*
X75429329Y-87144030D01*
X75452429Y-87135765D01*
X75476227Y-87129804D01*
X75500496Y-87126204D01*
X75525000Y-87125000D01*
X76275000Y-87125000D01*
X76299504Y-87126204D01*
G37*
G36*
X205224504Y-86401204D02*
G01*
X205248773Y-86404804D01*
X205272571Y-86410765D01*
X205295671Y-86419030D01*
X205317849Y-86429520D01*
X205338893Y-86442133D01*
X205358598Y-86456747D01*
X205376777Y-86473223D01*
X205393253Y-86491402D01*
X205407867Y-86511107D01*
X205420480Y-86532151D01*
X205430970Y-86554329D01*
X205439235Y-86577429D01*
X205445196Y-86601227D01*
X205448796Y-86625496D01*
X205450000Y-86650000D01*
X205450000Y-87750000D01*
X205448796Y-87774504D01*
X205445196Y-87798773D01*
X205439235Y-87822571D01*
X205430970Y-87845671D01*
X205420480Y-87867849D01*
X205407867Y-87888893D01*
X205393253Y-87908598D01*
X205376777Y-87926777D01*
X205358598Y-87943253D01*
X205338893Y-87957867D01*
X205317849Y-87970480D01*
X205295671Y-87980970D01*
X205272571Y-87989235D01*
X205248773Y-87995196D01*
X205224504Y-87998796D01*
X205200000Y-88000000D01*
X202200000Y-88000000D01*
X202175496Y-87998796D01*
X202151227Y-87995196D01*
X202127429Y-87989235D01*
X202104329Y-87980970D01*
X202082151Y-87970480D01*
X202061107Y-87957867D01*
X202041402Y-87943253D01*
X202023223Y-87926777D01*
X202006747Y-87908598D01*
X201992133Y-87888893D01*
X201979520Y-87867849D01*
X201969030Y-87845671D01*
X201960765Y-87822571D01*
X201954804Y-87798773D01*
X201951204Y-87774504D01*
X201950000Y-87750000D01*
X201950000Y-86650000D01*
X201951204Y-86625496D01*
X201954804Y-86601227D01*
X201960765Y-86577429D01*
X201969030Y-86554329D01*
X201979520Y-86532151D01*
X201992133Y-86511107D01*
X202006747Y-86491402D01*
X202023223Y-86473223D01*
X202041402Y-86456747D01*
X202061107Y-86442133D01*
X202082151Y-86429520D01*
X202104329Y-86419030D01*
X202127429Y-86410765D01*
X202151227Y-86404804D01*
X202175496Y-86401204D01*
X202200000Y-86400000D01*
X205200000Y-86400000D01*
X205224504Y-86401204D01*
G37*
G36*
X199824504Y-86401204D02*
G01*
X199848773Y-86404804D01*
X199872571Y-86410765D01*
X199895671Y-86419030D01*
X199917849Y-86429520D01*
X199938893Y-86442133D01*
X199958598Y-86456747D01*
X199976777Y-86473223D01*
X199993253Y-86491402D01*
X200007867Y-86511107D01*
X200020480Y-86532151D01*
X200030970Y-86554329D01*
X200039235Y-86577429D01*
X200045196Y-86601227D01*
X200048796Y-86625496D01*
X200050000Y-86650000D01*
X200050000Y-87750000D01*
X200048796Y-87774504D01*
X200045196Y-87798773D01*
X200039235Y-87822571D01*
X200030970Y-87845671D01*
X200020480Y-87867849D01*
X200007867Y-87888893D01*
X199993253Y-87908598D01*
X199976777Y-87926777D01*
X199958598Y-87943253D01*
X199938893Y-87957867D01*
X199917849Y-87970480D01*
X199895671Y-87980970D01*
X199872571Y-87989235D01*
X199848773Y-87995196D01*
X199824504Y-87998796D01*
X199800000Y-88000000D01*
X196800000Y-88000000D01*
X196775496Y-87998796D01*
X196751227Y-87995196D01*
X196727429Y-87989235D01*
X196704329Y-87980970D01*
X196682151Y-87970480D01*
X196661107Y-87957867D01*
X196641402Y-87943253D01*
X196623223Y-87926777D01*
X196606747Y-87908598D01*
X196592133Y-87888893D01*
X196579520Y-87867849D01*
X196569030Y-87845671D01*
X196560765Y-87822571D01*
X196554804Y-87798773D01*
X196551204Y-87774504D01*
X196550000Y-87750000D01*
X196550000Y-86650000D01*
X196551204Y-86625496D01*
X196554804Y-86601227D01*
X196560765Y-86577429D01*
X196569030Y-86554329D01*
X196579520Y-86532151D01*
X196592133Y-86511107D01*
X196606747Y-86491402D01*
X196623223Y-86473223D01*
X196641402Y-86456747D01*
X196661107Y-86442133D01*
X196682151Y-86429520D01*
X196704329Y-86419030D01*
X196727429Y-86410765D01*
X196751227Y-86404804D01*
X196775496Y-86401204D01*
X196800000Y-86400000D01*
X199800000Y-86400000D01*
X199824504Y-86401204D01*
G37*
G36*
X135324504Y-86401204D02*
G01*
X135348773Y-86404804D01*
X135372571Y-86410765D01*
X135395671Y-86419030D01*
X135417849Y-86429520D01*
X135438893Y-86442133D01*
X135458598Y-86456747D01*
X135476777Y-86473223D01*
X135493253Y-86491402D01*
X135507867Y-86511107D01*
X135520480Y-86532151D01*
X135530970Y-86554329D01*
X135539235Y-86577429D01*
X135545196Y-86601227D01*
X135548796Y-86625496D01*
X135550000Y-86650000D01*
X135550000Y-87750000D01*
X135548796Y-87774504D01*
X135545196Y-87798773D01*
X135539235Y-87822571D01*
X135530970Y-87845671D01*
X135520480Y-87867849D01*
X135507867Y-87888893D01*
X135493253Y-87908598D01*
X135476777Y-87926777D01*
X135458598Y-87943253D01*
X135438893Y-87957867D01*
X135417849Y-87970480D01*
X135395671Y-87980970D01*
X135372571Y-87989235D01*
X135348773Y-87995196D01*
X135324504Y-87998796D01*
X135300000Y-88000000D01*
X132300000Y-88000000D01*
X132275496Y-87998796D01*
X132251227Y-87995196D01*
X132227429Y-87989235D01*
X132204329Y-87980970D01*
X132182151Y-87970480D01*
X132161107Y-87957867D01*
X132141402Y-87943253D01*
X132123223Y-87926777D01*
X132106747Y-87908598D01*
X132092133Y-87888893D01*
X132079520Y-87867849D01*
X132069030Y-87845671D01*
X132060765Y-87822571D01*
X132054804Y-87798773D01*
X132051204Y-87774504D01*
X132050000Y-87750000D01*
X132050000Y-86650000D01*
X132051204Y-86625496D01*
X132054804Y-86601227D01*
X132060765Y-86577429D01*
X132069030Y-86554329D01*
X132079520Y-86532151D01*
X132092133Y-86511107D01*
X132106747Y-86491402D01*
X132123223Y-86473223D01*
X132141402Y-86456747D01*
X132161107Y-86442133D01*
X132182151Y-86429520D01*
X132204329Y-86419030D01*
X132227429Y-86410765D01*
X132251227Y-86404804D01*
X132275496Y-86401204D01*
X132300000Y-86400000D01*
X135300000Y-86400000D01*
X135324504Y-86401204D01*
G37*
G36*
X129924504Y-86401204D02*
G01*
X129948773Y-86404804D01*
X129972571Y-86410765D01*
X129995671Y-86419030D01*
X130017849Y-86429520D01*
X130038893Y-86442133D01*
X130058598Y-86456747D01*
X130076777Y-86473223D01*
X130093253Y-86491402D01*
X130107867Y-86511107D01*
X130120480Y-86532151D01*
X130130970Y-86554329D01*
X130139235Y-86577429D01*
X130145196Y-86601227D01*
X130148796Y-86625496D01*
X130150000Y-86650000D01*
X130150000Y-87750000D01*
X130148796Y-87774504D01*
X130145196Y-87798773D01*
X130139235Y-87822571D01*
X130130970Y-87845671D01*
X130120480Y-87867849D01*
X130107867Y-87888893D01*
X130093253Y-87908598D01*
X130076777Y-87926777D01*
X130058598Y-87943253D01*
X130038893Y-87957867D01*
X130017849Y-87970480D01*
X129995671Y-87980970D01*
X129972571Y-87989235D01*
X129948773Y-87995196D01*
X129924504Y-87998796D01*
X129900000Y-88000000D01*
X126900000Y-88000000D01*
X126875496Y-87998796D01*
X126851227Y-87995196D01*
X126827429Y-87989235D01*
X126804329Y-87980970D01*
X126782151Y-87970480D01*
X126761107Y-87957867D01*
X126741402Y-87943253D01*
X126723223Y-87926777D01*
X126706747Y-87908598D01*
X126692133Y-87888893D01*
X126679520Y-87867849D01*
X126669030Y-87845671D01*
X126660765Y-87822571D01*
X126654804Y-87798773D01*
X126651204Y-87774504D01*
X126650000Y-87750000D01*
X126650000Y-86650000D01*
X126651204Y-86625496D01*
X126654804Y-86601227D01*
X126660765Y-86577429D01*
X126669030Y-86554329D01*
X126679520Y-86532151D01*
X126692133Y-86511107D01*
X126706747Y-86491402D01*
X126723223Y-86473223D01*
X126741402Y-86456747D01*
X126761107Y-86442133D01*
X126782151Y-86429520D01*
X126804329Y-86419030D01*
X126827429Y-86410765D01*
X126851227Y-86404804D01*
X126875496Y-86401204D01*
X126900000Y-86400000D01*
X129900000Y-86400000D01*
X129924504Y-86401204D01*
G37*
G36*
X98424504Y-86401204D02*
G01*
X98448773Y-86404804D01*
X98472571Y-86410765D01*
X98495671Y-86419030D01*
X98517849Y-86429520D01*
X98538893Y-86442133D01*
X98558598Y-86456747D01*
X98576777Y-86473223D01*
X98593253Y-86491402D01*
X98607867Y-86511107D01*
X98620480Y-86532151D01*
X98630970Y-86554329D01*
X98639235Y-86577429D01*
X98645196Y-86601227D01*
X98648796Y-86625496D01*
X98650000Y-86650000D01*
X98650000Y-87750000D01*
X98648796Y-87774504D01*
X98645196Y-87798773D01*
X98639235Y-87822571D01*
X98630970Y-87845671D01*
X98620480Y-87867849D01*
X98607867Y-87888893D01*
X98593253Y-87908598D01*
X98576777Y-87926777D01*
X98558598Y-87943253D01*
X98538893Y-87957867D01*
X98517849Y-87970480D01*
X98495671Y-87980970D01*
X98472571Y-87989235D01*
X98448773Y-87995196D01*
X98424504Y-87998796D01*
X98400000Y-88000000D01*
X95400000Y-88000000D01*
X95375496Y-87998796D01*
X95351227Y-87995196D01*
X95327429Y-87989235D01*
X95304329Y-87980970D01*
X95282151Y-87970480D01*
X95261107Y-87957867D01*
X95241402Y-87943253D01*
X95223223Y-87926777D01*
X95206747Y-87908598D01*
X95192133Y-87888893D01*
X95179520Y-87867849D01*
X95169030Y-87845671D01*
X95160765Y-87822571D01*
X95154804Y-87798773D01*
X95151204Y-87774504D01*
X95150000Y-87750000D01*
X95150000Y-86650000D01*
X95151204Y-86625496D01*
X95154804Y-86601227D01*
X95160765Y-86577429D01*
X95169030Y-86554329D01*
X95179520Y-86532151D01*
X95192133Y-86511107D01*
X95206747Y-86491402D01*
X95223223Y-86473223D01*
X95241402Y-86456747D01*
X95261107Y-86442133D01*
X95282151Y-86429520D01*
X95304329Y-86419030D01*
X95327429Y-86410765D01*
X95351227Y-86404804D01*
X95375496Y-86401204D01*
X95400000Y-86400000D01*
X98400000Y-86400000D01*
X98424504Y-86401204D01*
G37*
G36*
X93024504Y-86401204D02*
G01*
X93048773Y-86404804D01*
X93072571Y-86410765D01*
X93095671Y-86419030D01*
X93117849Y-86429520D01*
X93138893Y-86442133D01*
X93158598Y-86456747D01*
X93176777Y-86473223D01*
X93193253Y-86491402D01*
X93207867Y-86511107D01*
X93220480Y-86532151D01*
X93230970Y-86554329D01*
X93239235Y-86577429D01*
X93245196Y-86601227D01*
X93248796Y-86625496D01*
X93250000Y-86650000D01*
X93250000Y-87750000D01*
X93248796Y-87774504D01*
X93245196Y-87798773D01*
X93239235Y-87822571D01*
X93230970Y-87845671D01*
X93220480Y-87867849D01*
X93207867Y-87888893D01*
X93193253Y-87908598D01*
X93176777Y-87926777D01*
X93158598Y-87943253D01*
X93138893Y-87957867D01*
X93117849Y-87970480D01*
X93095671Y-87980970D01*
X93072571Y-87989235D01*
X93048773Y-87995196D01*
X93024504Y-87998796D01*
X93000000Y-88000000D01*
X90000000Y-88000000D01*
X89975496Y-87998796D01*
X89951227Y-87995196D01*
X89927429Y-87989235D01*
X89904329Y-87980970D01*
X89882151Y-87970480D01*
X89861107Y-87957867D01*
X89841402Y-87943253D01*
X89823223Y-87926777D01*
X89806747Y-87908598D01*
X89792133Y-87888893D01*
X89779520Y-87867849D01*
X89769030Y-87845671D01*
X89760765Y-87822571D01*
X89754804Y-87798773D01*
X89751204Y-87774504D01*
X89750000Y-87750000D01*
X89750000Y-86650000D01*
X89751204Y-86625496D01*
X89754804Y-86601227D01*
X89760765Y-86577429D01*
X89769030Y-86554329D01*
X89779520Y-86532151D01*
X89792133Y-86511107D01*
X89806747Y-86491402D01*
X89823223Y-86473223D01*
X89841402Y-86456747D01*
X89861107Y-86442133D01*
X89882151Y-86429520D01*
X89904329Y-86419030D01*
X89927429Y-86410765D01*
X89951227Y-86404804D01*
X89975496Y-86401204D01*
X90000000Y-86400000D01*
X93000000Y-86400000D01*
X93024504Y-86401204D01*
G37*
M02*
