G04 #@! TF.GenerationSoftware,KiCad,Pcbnew,(5.1.5-0-10_14)*
G04 #@! TF.CreationDate,2020-01-03T17:39:58-06:00*
G04 #@! TF.ProjectId,foxie_clock_nano,666f7869-655f-4636-9c6f-636b5f6e616e,1.4*
G04 #@! TF.SameCoordinates,Original*
G04 #@! TF.FileFunction,Copper,L2,Bot*
G04 #@! TF.FilePolarity,Positive*
%FSLAX46Y46*%
G04 Gerber Fmt 4.6, Leading zero omitted, Abs format (unit mm)*
G04 Created by KiCad (PCBNEW (5.1.5-0-10_14)) date 2020-01-03 17:39:58*
%MOMM*%
%LPD*%
G04 APERTURE LIST*
%ADD10C,1.600000*%
%ADD11R,1.600000X1.600000*%
%ADD12C,2.100000*%
%ADD13C,1.750000*%
%ADD14C,0.800000*%
%ADD15C,0.250000*%
%ADD16C,0.254000*%
G04 APERTURE END LIST*
D10*
X106180000Y-90560000D03*
D11*
X106180000Y-93100000D03*
D10*
X118880000Y-113420000D03*
X118880000Y-110880000D03*
X118880000Y-108340000D03*
X118880000Y-105800000D03*
X118880000Y-103260000D03*
D12*
X170600000Y-81740000D03*
D13*
X169350000Y-79250000D03*
X164850000Y-79250000D03*
D12*
X163590000Y-81740000D03*
X159600000Y-81740000D03*
D13*
X158350000Y-79250000D03*
X153850000Y-79250000D03*
D12*
X152590000Y-81740000D03*
X143150000Y-81740000D03*
D13*
X141900000Y-79250000D03*
X137400000Y-79250000D03*
D12*
X136140000Y-81740000D03*
X132350000Y-81740000D03*
D13*
X131100000Y-79250000D03*
X126600000Y-79250000D03*
D12*
X125340000Y-81740000D03*
D14*
X72900000Y-93600000D03*
X89100000Y-95400000D03*
X85887347Y-93487347D03*
X70100000Y-98900000D03*
X66900000Y-97200000D03*
X83000000Y-98900000D03*
X79787347Y-97087347D03*
X76100000Y-102900000D03*
X72737347Y-101137347D03*
X89000000Y-102900000D03*
X85900000Y-101100000D03*
X70100000Y-106500000D03*
X66900000Y-104600000D03*
X83000000Y-106400000D03*
X79900000Y-104800011D03*
X76100000Y-110400000D03*
X72900000Y-108600000D03*
X89100000Y-110400000D03*
X85900000Y-108600000D03*
X70100000Y-113900000D03*
X66900000Y-112100000D03*
X83000000Y-113900000D03*
X79900000Y-112300011D03*
X76100000Y-117900000D03*
X72900000Y-116100000D03*
X89000000Y-117900000D03*
X85900000Y-116100000D03*
X70100000Y-121400000D03*
X66900000Y-119600000D03*
X83000000Y-121400000D03*
X79900000Y-119800011D03*
X76100000Y-125400000D03*
X72900000Y-123600000D03*
X89000000Y-125400000D03*
X85900000Y-123600000D03*
X70100000Y-128900000D03*
X66900000Y-127100000D03*
X83100000Y-128800000D03*
X79900000Y-127300011D03*
X102100000Y-95400000D03*
X98837347Y-93537347D03*
X115000000Y-95500000D03*
X111787347Y-93587347D03*
X96100000Y-98900000D03*
X92737347Y-97137347D03*
X109100000Y-98900000D03*
X105887347Y-96987347D03*
X102100000Y-102900000D03*
X98900000Y-101100000D03*
X115100000Y-102900000D03*
X111900000Y-101200000D03*
X96100000Y-106400000D03*
X92900000Y-104700000D03*
X109000000Y-106400000D03*
X105900000Y-104900000D03*
X102100000Y-110400000D03*
X98900000Y-108600000D03*
X115100000Y-110400000D03*
X96050000Y-113900001D03*
X111900000Y-108650000D03*
X92900000Y-112100000D03*
X109000000Y-113900000D03*
X105900000Y-112300011D03*
X102100000Y-117800000D03*
X98900000Y-116100000D03*
X115000000Y-117900000D03*
X111900000Y-116100000D03*
X96100000Y-121400000D03*
X92900000Y-119700000D03*
X109100000Y-121400000D03*
X105900000Y-119700011D03*
X102100000Y-125400000D03*
X98900000Y-123600000D03*
X115100000Y-125400000D03*
X111900000Y-123600000D03*
X96100000Y-128900000D03*
X92900000Y-127200000D03*
X109000000Y-128900000D03*
X105900000Y-127300011D03*
X133000000Y-95500000D03*
X129887347Y-93487347D03*
X146000000Y-95500000D03*
X142837347Y-93537347D03*
X127100000Y-99100000D03*
X123900000Y-97100000D03*
X140000000Y-99000000D03*
X136787347Y-97087347D03*
X133100000Y-102900000D03*
X129900000Y-101100000D03*
X146000000Y-102900000D03*
X142900000Y-101100000D03*
X127100000Y-106400000D03*
X123900000Y-104600000D03*
X140000000Y-106400000D03*
X136900000Y-104800011D03*
X133100000Y-110400000D03*
X129900000Y-108600000D03*
X146000000Y-110400000D03*
X142900000Y-108600000D03*
X127100000Y-113900000D03*
X123900000Y-112100000D03*
X140100000Y-113800000D03*
X136900000Y-112300011D03*
X133100000Y-117900000D03*
X129900000Y-116100000D03*
X146100000Y-117900000D03*
X142900000Y-116100000D03*
X127100000Y-121400000D03*
X123900000Y-119600000D03*
X140100000Y-121400000D03*
X136900000Y-119800011D03*
X133100000Y-125400000D03*
X129900000Y-123600000D03*
X146100000Y-125500000D03*
X142900000Y-123600000D03*
X127100000Y-128900000D03*
X123900000Y-127100000D03*
X140100000Y-128900000D03*
X136900000Y-127300011D03*
X159100000Y-95400000D03*
X155787347Y-93587347D03*
X172100000Y-95500000D03*
X168787347Y-93587347D03*
X153100000Y-98800000D03*
X149787347Y-97087347D03*
X166000000Y-98900000D03*
X162837347Y-97037347D03*
X159100000Y-102900000D03*
X155900000Y-101100000D03*
X172100000Y-102800000D03*
X168900000Y-101100000D03*
X153100000Y-106400000D03*
X149900000Y-104600000D03*
X166000000Y-106400000D03*
X162900000Y-104800011D03*
X159100000Y-110400000D03*
X155900000Y-108600000D03*
X172100000Y-110400000D03*
X168900000Y-108700000D03*
X153100000Y-114000000D03*
X149900000Y-112200000D03*
X166100000Y-113900000D03*
X162900000Y-112400000D03*
X159100000Y-117800000D03*
X155900000Y-116200000D03*
X172100000Y-117800000D03*
X168900000Y-116200000D03*
X153100000Y-121400000D03*
X149900000Y-119600000D03*
X166100000Y-121400000D03*
X162900000Y-119700011D03*
X159100000Y-125400000D03*
X155900000Y-123700000D03*
X172100000Y-125400000D03*
X168900000Y-123700000D03*
X153100000Y-129000000D03*
X149900000Y-127200000D03*
X166000000Y-128900000D03*
X162900000Y-127400000D03*
X190100000Y-95500000D03*
X186787347Y-93587347D03*
X203000000Y-95400000D03*
X199787347Y-93587347D03*
X184100000Y-98900000D03*
X180900000Y-97200000D03*
X197100000Y-98900000D03*
X193787347Y-97087347D03*
X190100000Y-103000000D03*
X186900000Y-101100000D03*
X203000000Y-102900000D03*
X199900000Y-101100000D03*
X184100000Y-106400000D03*
X180900000Y-104700000D03*
X197000000Y-106400000D03*
X193900000Y-104900011D03*
X190100000Y-110400000D03*
X186900000Y-108600000D03*
X203000000Y-110300000D03*
X199900000Y-108600000D03*
X184100000Y-113900000D03*
X180900000Y-112100000D03*
X197100000Y-113900000D03*
X193900000Y-112325000D03*
X190100000Y-117900000D03*
X186900000Y-116100000D03*
X203100000Y-117900000D03*
X199900000Y-116100000D03*
X184100000Y-121400000D03*
X180900000Y-119700000D03*
X197000000Y-121500000D03*
X193900000Y-119800011D03*
X190200000Y-125400000D03*
X186900000Y-123700000D03*
X203000000Y-125400000D03*
X199900000Y-123600000D03*
X184100000Y-129000000D03*
X180900000Y-127100000D03*
X197100000Y-128800000D03*
X193900000Y-127300011D03*
X216100000Y-95300000D03*
X212737347Y-93637347D03*
X229000000Y-95300000D03*
X225787347Y-93587347D03*
X210100000Y-98900000D03*
X206737347Y-97137347D03*
X223100000Y-98800000D03*
X219737347Y-97137347D03*
X216100000Y-102900000D03*
X212900000Y-101200000D03*
X229100000Y-102900000D03*
X225900000Y-101100000D03*
X210100000Y-106400000D03*
X206900000Y-104600000D03*
X223100000Y-106300000D03*
X219900000Y-104800011D03*
X216100000Y-110400000D03*
X212900000Y-108700000D03*
X229100000Y-110400000D03*
X225900000Y-108600000D03*
X210100000Y-113900000D03*
X206900000Y-112100000D03*
X223000000Y-113900000D03*
X219900000Y-112400000D03*
X216100000Y-117900000D03*
X212900000Y-116100000D03*
X229100000Y-117800000D03*
X225900000Y-116200000D03*
X210100000Y-121400000D03*
X206900000Y-119600000D03*
X223100000Y-121400000D03*
X219900000Y-119800011D03*
X216100000Y-125400000D03*
X212900000Y-123600000D03*
X229100000Y-125500000D03*
X225900000Y-123600000D03*
X210100000Y-129000000D03*
X206900000Y-127200000D03*
X223000000Y-128900000D03*
X219900000Y-127300011D03*
X121100000Y-96950000D03*
X117900000Y-93600000D03*
X178100000Y-94775000D03*
X80150000Y-91000000D03*
D15*
X106180000Y-93100000D02*
X106200000Y-93100000D01*
X73465685Y-93600000D02*
X75265685Y-95400000D01*
X72900000Y-93600000D02*
X73465685Y-93600000D01*
X75265685Y-95400000D02*
X89100000Y-95400000D01*
X70100000Y-95326998D02*
X70100000Y-98900000D01*
X72551999Y-92874999D02*
X70100000Y-95326998D01*
X85274999Y-92874999D02*
X72551999Y-92874999D01*
X85887347Y-93487347D02*
X85274999Y-92874999D01*
X82274999Y-99625001D02*
X83000000Y-98900000D01*
X69325001Y-99625001D02*
X82274999Y-99625001D01*
X66900000Y-97200000D02*
X69325001Y-99625001D01*
X83725001Y-99248001D02*
X82897991Y-100075011D01*
X83725001Y-98551999D02*
X83725001Y-99248001D01*
X82260349Y-97087347D02*
X83725001Y-98551999D01*
X79787347Y-97087347D02*
X82260349Y-97087347D01*
X78924989Y-100075011D02*
X76100000Y-102900000D01*
X82897991Y-100075011D02*
X78924989Y-100075011D01*
X88274999Y-103625001D02*
X89000000Y-102900000D01*
X75225001Y-103625001D02*
X88274999Y-103625001D01*
X72737347Y-101137347D02*
X75225001Y-103625001D01*
X89725001Y-103248001D02*
X88897991Y-104075011D01*
X89725001Y-102551999D02*
X89725001Y-103248001D01*
X88273002Y-101100000D02*
X89725001Y-102551999D01*
X85900000Y-101100000D02*
X88273002Y-101100000D01*
X72524989Y-104075011D02*
X70100000Y-106500000D01*
X88897991Y-104075011D02*
X72524989Y-104075011D01*
X82174999Y-107225001D02*
X83000000Y-106400000D01*
X69525001Y-107225001D02*
X82174999Y-107225001D01*
X66900000Y-104600000D02*
X69525001Y-107225001D01*
X82473013Y-104800011D02*
X83725001Y-106051999D01*
X83725001Y-106748001D02*
X82797991Y-107675011D01*
X83725001Y-106051999D02*
X83725001Y-106748001D01*
X79900000Y-104800011D02*
X82473013Y-104800011D01*
X78824989Y-107675011D02*
X76100000Y-110400000D01*
X82797991Y-107675011D02*
X78824989Y-107675011D01*
X88374999Y-111125001D02*
X89100000Y-110400000D01*
X75425001Y-111125001D02*
X88374999Y-111125001D01*
X72900000Y-108600000D02*
X75425001Y-111125001D01*
X89825001Y-110748001D02*
X88997991Y-111575011D01*
X89825001Y-110051999D02*
X89825001Y-110748001D01*
X88373002Y-108600000D02*
X89825001Y-110051999D01*
X85900000Y-108600000D02*
X88373002Y-108600000D01*
X72424989Y-111575011D02*
X70100000Y-113900000D01*
X88997991Y-111575011D02*
X72424989Y-111575011D01*
X82274999Y-114625001D02*
X83000000Y-113900000D01*
X69425001Y-114625001D02*
X82274999Y-114625001D01*
X66900000Y-112100000D02*
X69425001Y-114625001D01*
X83725001Y-113551999D02*
X83725001Y-114248001D01*
X83725001Y-114248001D02*
X82897991Y-115075011D01*
X82473013Y-112300011D02*
X83725001Y-113551999D01*
X79900000Y-112300011D02*
X82473013Y-112300011D01*
X78924989Y-115075011D02*
X76100000Y-117900000D01*
X82897991Y-115075011D02*
X78924989Y-115075011D01*
X88274999Y-118625001D02*
X89000000Y-117900000D01*
X75425001Y-118625001D02*
X88274999Y-118625001D01*
X72900000Y-116100000D02*
X75425001Y-118625001D01*
X89725001Y-117551999D02*
X89725001Y-118248001D01*
X89725001Y-118248001D02*
X88897991Y-119075011D01*
X88273002Y-116100000D02*
X89725001Y-117551999D01*
X85900000Y-116100000D02*
X88273002Y-116100000D01*
X72424989Y-119075011D02*
X70100000Y-121400000D01*
X88897991Y-119075011D02*
X72424989Y-119075011D01*
X82274999Y-122125001D02*
X83000000Y-121400000D01*
X69425001Y-122125001D02*
X82274999Y-122125001D01*
X66900000Y-119600000D02*
X69425001Y-122125001D01*
X83725001Y-121051999D02*
X83725001Y-121748001D01*
X83725001Y-121748001D02*
X82897991Y-122575011D01*
X82473013Y-119800011D02*
X83725001Y-121051999D01*
X79900000Y-119800011D02*
X82473013Y-119800011D01*
X78924989Y-122575011D02*
X76100000Y-125400000D01*
X82897991Y-122575011D02*
X78924989Y-122575011D01*
X88274999Y-126125001D02*
X89000000Y-125400000D01*
X75425001Y-126125001D02*
X88274999Y-126125001D01*
X72900000Y-123600000D02*
X75425001Y-126125001D01*
X89725001Y-125051999D02*
X89725001Y-125748001D01*
X89725001Y-125748001D02*
X88897991Y-126575011D01*
X88273002Y-123600000D02*
X89725001Y-125051999D01*
X85900000Y-123600000D02*
X88273002Y-123600000D01*
X72424989Y-126575011D02*
X70100000Y-128900000D01*
X88897991Y-126575011D02*
X72424989Y-126575011D01*
X82274999Y-129625001D02*
X83100000Y-128800000D01*
X69425001Y-129625001D02*
X82274999Y-129625001D01*
X66900000Y-127100000D02*
X69425001Y-129625001D01*
X88809401Y-127300011D02*
X90300000Y-125809412D01*
X79900000Y-127300011D02*
X88809401Y-127300011D01*
X90300000Y-125809412D02*
X90300000Y-99500000D01*
X90300000Y-99500000D02*
X90300000Y-96100000D01*
X90300000Y-96100000D02*
X90300000Y-95900000D01*
X90800000Y-95400000D02*
X102100000Y-95400000D01*
X90300000Y-95900000D02*
X90800000Y-95400000D01*
X98837347Y-93537347D02*
X99974999Y-94674999D01*
X99974999Y-94674999D02*
X101751999Y-94674999D01*
X114174999Y-94674999D02*
X115000000Y-95500000D01*
X101751999Y-94674999D02*
X114174999Y-94674999D01*
X98774999Y-96225001D02*
X96100000Y-98900000D01*
X115348001Y-96225001D02*
X98774999Y-96225001D01*
X115725001Y-95151999D02*
X115725001Y-95848001D01*
X112424989Y-94224989D02*
X114797991Y-94224989D01*
X115725001Y-95848001D02*
X115348001Y-96225001D01*
X114797991Y-94224989D02*
X115725001Y-95151999D01*
X111787347Y-93587347D02*
X112424989Y-94224989D01*
X108374999Y-99625001D02*
X109100000Y-98900000D01*
X95225001Y-99625001D02*
X108374999Y-99625001D01*
X92737347Y-97137347D02*
X95225001Y-99625001D01*
X109825001Y-98551999D02*
X109825001Y-99248001D01*
X108260349Y-96987347D02*
X109825001Y-98551999D01*
X109825001Y-99248001D02*
X108997991Y-100075011D01*
X105887347Y-96987347D02*
X108260349Y-96987347D01*
X104924989Y-100075011D02*
X102100000Y-102900000D01*
X108997991Y-100075011D02*
X104924989Y-100075011D01*
X114374999Y-103625001D02*
X115100000Y-102900000D01*
X101425001Y-103625001D02*
X114374999Y-103625001D01*
X98900000Y-101100000D02*
X101425001Y-103625001D01*
X115825001Y-102551999D02*
X115825001Y-103248001D01*
X115825001Y-103248001D02*
X114973002Y-104100000D01*
X114473002Y-101200000D02*
X115825001Y-102551999D01*
X111900000Y-101200000D02*
X114473002Y-101200000D01*
X98400000Y-104100000D02*
X96100000Y-106400000D01*
X114973002Y-104100000D02*
X98400000Y-104100000D01*
X108274999Y-107125001D02*
X109000000Y-106400000D01*
X95325001Y-107125001D02*
X108274999Y-107125001D01*
X92900000Y-104700000D02*
X95325001Y-107125001D01*
X109725001Y-106051999D02*
X109725001Y-106748001D01*
X108573002Y-104900000D02*
X109725001Y-106051999D01*
X109725001Y-106748001D02*
X108897991Y-107575011D01*
X105900000Y-104900000D02*
X108573002Y-104900000D01*
X104924989Y-107575011D02*
X102100000Y-110400000D01*
X108897991Y-107575011D02*
X104924989Y-107575011D01*
X114374999Y-111125001D02*
X115100000Y-110400000D01*
X101425001Y-111125001D02*
X114374999Y-111125001D01*
X98900000Y-108600000D02*
X101425001Y-111125001D01*
X96449999Y-113500002D02*
X96050000Y-113900001D01*
X98374991Y-111575010D02*
X96449999Y-113500002D01*
X115825001Y-110748001D02*
X114997992Y-111575010D01*
X115825001Y-110051999D02*
X115825001Y-110748001D01*
X114423002Y-108650000D02*
X115825001Y-110051999D01*
X114997992Y-111575010D02*
X98374991Y-111575010D01*
X111900000Y-108650000D02*
X114423002Y-108650000D01*
X95425001Y-114625001D02*
X108274999Y-114625001D01*
X108274999Y-114625001D02*
X109000000Y-113900000D01*
X92900000Y-112100000D02*
X95425001Y-114625001D01*
X109725001Y-113551999D02*
X109725001Y-114248001D01*
X109725001Y-114248001D02*
X108897991Y-115075011D01*
X108473013Y-112300011D02*
X109725001Y-113551999D01*
X105900000Y-112300011D02*
X108473013Y-112300011D01*
X104824989Y-115075011D02*
X102100000Y-117800000D01*
X108897991Y-115075011D02*
X104824989Y-115075011D01*
X114374999Y-118525001D02*
X115000000Y-117900000D01*
X101325001Y-118525001D02*
X114374999Y-118525001D01*
X98900000Y-116100000D02*
X101325001Y-118525001D01*
X115725001Y-118248001D02*
X114997991Y-118975011D01*
X115725001Y-117551999D02*
X115725001Y-118248001D01*
X114273002Y-116100000D02*
X115725001Y-117551999D01*
X111900000Y-116100000D02*
X114273002Y-116100000D01*
X98524989Y-118975011D02*
X96100000Y-121400000D01*
X114997991Y-118975011D02*
X98524989Y-118975011D01*
X108374999Y-122125001D02*
X109100000Y-121400000D01*
X95325001Y-122125001D02*
X108374999Y-122125001D01*
X92900000Y-119700000D02*
X95325001Y-122125001D01*
X109825001Y-121748001D02*
X108997991Y-122575011D01*
X108473013Y-119700011D02*
X109825001Y-121051999D01*
X109825001Y-121051999D02*
X109825001Y-121748001D01*
X105900000Y-119700011D02*
X108473013Y-119700011D01*
X104924989Y-122575011D02*
X102100000Y-125400000D01*
X108997991Y-122575011D02*
X104924989Y-122575011D01*
X114374999Y-126125001D02*
X115100000Y-125400000D01*
X101425001Y-126125001D02*
X114374999Y-126125001D01*
X98900000Y-123600000D02*
X101425001Y-126125001D01*
X115825001Y-125748001D02*
X114997991Y-126575011D01*
X114373002Y-123600000D02*
X115825001Y-125051999D01*
X115825001Y-125051999D02*
X115825001Y-125748001D01*
X111900000Y-123600000D02*
X114373002Y-123600000D01*
X98424989Y-126575011D02*
X96100000Y-128900000D01*
X114997991Y-126575011D02*
X98424989Y-126575011D01*
X95325001Y-129625001D02*
X108274999Y-129625001D01*
X108274999Y-129625001D02*
X109000000Y-128900000D01*
X92900000Y-127200000D02*
X95325001Y-129625001D01*
X118203205Y-101946795D02*
X116725021Y-100468611D01*
X119300000Y-95500000D02*
X133000000Y-95500000D01*
X119396795Y-101946795D02*
X118203205Y-101946795D01*
X114909401Y-127300011D02*
X116275011Y-125934401D01*
X119255002Y-104550000D02*
X120050000Y-103755002D01*
X120050000Y-102600000D02*
X119396795Y-101946795D01*
X120050000Y-103755002D02*
X120050000Y-102600000D01*
X116725021Y-100468611D02*
X116725021Y-98074979D01*
X118250000Y-104550000D02*
X119255002Y-104550000D01*
X116275011Y-125934401D02*
X116275011Y-106524989D01*
X116275011Y-106524989D02*
X118250000Y-104550000D01*
X116725021Y-98074979D02*
X119300000Y-95500000D01*
X105900000Y-127300011D02*
X114909401Y-127300011D01*
X129887347Y-93487347D02*
X131100000Y-94700000D01*
X145200000Y-94700000D02*
X146000000Y-95500000D01*
X131100000Y-94700000D02*
X145200000Y-94700000D01*
X146725001Y-95848001D02*
X146348001Y-96225001D01*
X146725001Y-95151999D02*
X146725001Y-95848001D01*
X130000000Y-96200000D02*
X127100000Y-99100000D01*
X130025001Y-96225001D02*
X146348001Y-96225001D01*
X130000000Y-96200000D02*
X130025001Y-96225001D01*
X142837347Y-93537347D02*
X143549990Y-94249990D01*
X145822992Y-94249990D02*
X146725001Y-95151999D01*
X143549990Y-94249990D02*
X145822992Y-94249990D01*
X139174999Y-99825001D02*
X140000000Y-99000000D01*
X126625001Y-99825001D02*
X139174999Y-99825001D01*
X123900000Y-97100000D02*
X126625001Y-99825001D01*
X140725001Y-99348001D02*
X139797991Y-100275011D01*
X140725001Y-98651999D02*
X140725001Y-99348001D01*
X139560348Y-97487346D02*
X140725001Y-98651999D01*
X137187346Y-97487346D02*
X139560348Y-97487346D01*
X136787347Y-97087347D02*
X137187346Y-97487346D01*
X135724989Y-100275011D02*
X133100000Y-102900000D01*
X139797991Y-100275011D02*
X135724989Y-100275011D01*
X145274999Y-103625001D02*
X146000000Y-102900000D01*
X132425001Y-103625001D02*
X145274999Y-103625001D01*
X129900000Y-101100000D02*
X132425001Y-103625001D01*
X145273002Y-101100000D02*
X146725001Y-102551999D01*
X146725001Y-103248001D02*
X145897991Y-104075011D01*
X146725001Y-102551999D02*
X146725001Y-103248001D01*
X142900000Y-101100000D02*
X145273002Y-101100000D01*
X129424989Y-104075011D02*
X127100000Y-106400000D01*
X145897991Y-104075011D02*
X129424989Y-104075011D01*
X139274999Y-107125001D02*
X140000000Y-106400000D01*
X126425001Y-107125001D02*
X139274999Y-107125001D01*
X123900000Y-104600000D02*
X126425001Y-107125001D01*
X140725001Y-106748001D02*
X139897992Y-107575010D01*
X140725001Y-106051999D02*
X140725001Y-106748001D01*
X139473013Y-104800011D02*
X140725001Y-106051999D01*
X136900000Y-104800011D02*
X139473013Y-104800011D01*
X135924990Y-107575010D02*
X133100000Y-110400000D01*
X139897992Y-107575010D02*
X135924990Y-107575010D01*
X145274999Y-111125001D02*
X146000000Y-110400000D01*
X132425001Y-111125001D02*
X145274999Y-111125001D01*
X129900000Y-108600000D02*
X132425001Y-111125001D01*
X145273002Y-108600000D02*
X146725001Y-110051999D01*
X146725001Y-110748001D02*
X145897991Y-111575011D01*
X146725001Y-110051999D02*
X146725001Y-110748001D01*
X142900000Y-108600000D02*
X145273002Y-108600000D01*
X129424989Y-111575011D02*
X127100000Y-113900000D01*
X145897991Y-111575011D02*
X129424989Y-111575011D01*
X126425001Y-114625001D02*
X139274999Y-114625001D01*
X139274999Y-114625001D02*
X140100000Y-113800000D01*
X123900000Y-112100000D02*
X126425001Y-114625001D01*
X140825001Y-114148001D02*
X139897991Y-115075011D01*
X140825001Y-113451999D02*
X140825001Y-114148001D01*
X139673013Y-112300011D02*
X140825001Y-113451999D01*
X136900000Y-112300011D02*
X139673013Y-112300011D01*
X135924989Y-115075011D02*
X133100000Y-117900000D01*
X139897991Y-115075011D02*
X135924989Y-115075011D01*
X145374999Y-118625001D02*
X146100000Y-117900000D01*
X132425001Y-118625001D02*
X145374999Y-118625001D01*
X129900000Y-116100000D02*
X132425001Y-118625001D01*
X146825001Y-117551999D02*
X146825001Y-118248001D01*
X145373002Y-116100000D02*
X146825001Y-117551999D01*
X146825001Y-118248001D02*
X145997991Y-119075011D01*
X142900000Y-116100000D02*
X145373002Y-116100000D01*
X129424989Y-119075011D02*
X127100000Y-121400000D01*
X145997991Y-119075011D02*
X129424989Y-119075011D01*
X139374999Y-122125001D02*
X140100000Y-121400000D01*
X126425001Y-122125001D02*
X139374999Y-122125001D01*
X123900000Y-119600000D02*
X126425001Y-122125001D01*
X140825001Y-121748001D02*
X139997991Y-122575011D01*
X140825001Y-121051999D02*
X140825001Y-121748001D01*
X139573013Y-119800011D02*
X140825001Y-121051999D01*
X136900000Y-119800011D02*
X139573013Y-119800011D01*
X135924989Y-122575011D02*
X133100000Y-125400000D01*
X139997991Y-122575011D02*
X135924989Y-122575011D01*
X145474999Y-126125001D02*
X146100000Y-125500000D01*
X132425001Y-126125001D02*
X145474999Y-126125001D01*
X129900000Y-123600000D02*
X132425001Y-126125001D01*
X146825001Y-125848001D02*
X146097991Y-126575011D01*
X146825001Y-125151999D02*
X146825001Y-125848001D01*
X145273002Y-123600000D02*
X146825001Y-125151999D01*
X142900000Y-123600000D02*
X145273002Y-123600000D01*
X129424989Y-126575011D02*
X127100000Y-128900000D01*
X146097991Y-126575011D02*
X129424989Y-126575011D01*
X139700001Y-129299999D02*
X140100000Y-128900000D01*
X123900000Y-127665685D02*
X125959316Y-129725001D01*
X139274999Y-129725001D02*
X139700001Y-129299999D01*
X125959316Y-129725001D02*
X139274999Y-129725001D01*
X123900000Y-127100000D02*
X123900000Y-127665685D01*
X146009401Y-127300011D02*
X147300000Y-126009412D01*
X136900000Y-127300011D02*
X146009401Y-127300011D01*
X147300000Y-126009412D02*
X147300000Y-97900000D01*
X149800000Y-95400000D02*
X159100000Y-95400000D01*
X147300000Y-97900000D02*
X149800000Y-95400000D01*
X155787347Y-93587347D02*
X156900000Y-94700000D01*
X171274999Y-94674999D02*
X172100000Y-95500000D01*
X156925001Y-94674999D02*
X171274999Y-94674999D01*
X156900000Y-94700000D02*
X156925001Y-94674999D01*
X155674999Y-96225001D02*
X153100000Y-98800000D01*
X172448001Y-96225001D02*
X155674999Y-96225001D01*
X171897991Y-94224989D02*
X172825001Y-95151999D01*
X169424989Y-94224989D02*
X171897991Y-94224989D01*
X172825001Y-95848001D02*
X172448001Y-96225001D01*
X172825001Y-95151999D02*
X172825001Y-95848001D01*
X168787347Y-93587347D02*
X169424989Y-94224989D01*
X165374999Y-99525001D02*
X166000000Y-98900000D01*
X152225001Y-99525001D02*
X165374999Y-99525001D01*
X149787347Y-97087347D02*
X152225001Y-99525001D01*
X166725001Y-98525001D02*
X166725001Y-99248001D01*
X166725001Y-99248001D02*
X165997991Y-99975011D01*
X162024989Y-99975011D02*
X159100000Y-102900000D01*
X165997991Y-99975011D02*
X162024989Y-99975011D01*
X163237346Y-97437346D02*
X165637346Y-97437346D01*
X165637346Y-97437346D02*
X166725001Y-98525001D01*
X162837347Y-97037347D02*
X163237346Y-97437346D01*
X171274999Y-103625001D02*
X172100000Y-102800000D01*
X158425001Y-103625001D02*
X171274999Y-103625001D01*
X155900000Y-101100000D02*
X158425001Y-103625001D01*
X172825001Y-103148001D02*
X171897991Y-104075011D01*
X172825001Y-102451999D02*
X172825001Y-103148001D01*
X171473002Y-101100000D02*
X172825001Y-102451999D01*
X168900000Y-101100000D02*
X171473002Y-101100000D01*
X155424989Y-104075011D02*
X153100000Y-106400000D01*
X171897991Y-104075011D02*
X155424989Y-104075011D01*
X165274999Y-107125001D02*
X166000000Y-106400000D01*
X152425001Y-107125001D02*
X165274999Y-107125001D01*
X149900000Y-104600000D02*
X152425001Y-107125001D01*
X166725001Y-106748001D02*
X165897991Y-107575011D01*
X166725001Y-106051999D02*
X166725001Y-106748001D01*
X165473013Y-104800011D02*
X166725001Y-106051999D01*
X162900000Y-104800011D02*
X165473013Y-104800011D01*
X161924989Y-107575011D02*
X159100000Y-110400000D01*
X165897991Y-107575011D02*
X161924989Y-107575011D01*
X171374999Y-111125001D02*
X172100000Y-110400000D01*
X158425001Y-111125001D02*
X171374999Y-111125001D01*
X155900000Y-108600000D02*
X158425001Y-111125001D01*
X171473002Y-108700000D02*
X172825001Y-110051999D01*
X172825001Y-110748001D02*
X171997991Y-111575011D01*
X172825001Y-110051999D02*
X172825001Y-110748001D01*
X168900000Y-108700000D02*
X171473002Y-108700000D01*
X155524989Y-111575011D02*
X153100000Y-114000000D01*
X171997991Y-111575011D02*
X155524989Y-111575011D01*
X165274999Y-114725001D02*
X166100000Y-113900000D01*
X152425001Y-114725001D02*
X165274999Y-114725001D01*
X149900000Y-112200000D02*
X152425001Y-114725001D01*
X166825001Y-113551999D02*
X166825001Y-114248001D01*
X166825001Y-114248001D02*
X165897991Y-115175011D01*
X165673002Y-112400000D02*
X166825001Y-113551999D01*
X162900000Y-112400000D02*
X165673002Y-112400000D01*
X161724989Y-115175011D02*
X159100000Y-117800000D01*
X165897991Y-115175011D02*
X161724989Y-115175011D01*
X171374999Y-118525001D02*
X172100000Y-117800000D01*
X158225001Y-118525001D02*
X171374999Y-118525001D01*
X155900000Y-116200000D02*
X158225001Y-118525001D01*
X172825001Y-118148001D02*
X171997991Y-118975011D01*
X172825001Y-117451999D02*
X172825001Y-118148001D01*
X171573002Y-116200000D02*
X172825001Y-117451999D01*
X168900000Y-116200000D02*
X171573002Y-116200000D01*
X155524989Y-118975011D02*
X153100000Y-121400000D01*
X171997991Y-118975011D02*
X155524989Y-118975011D01*
X152425001Y-122125001D02*
X165374999Y-122125001D01*
X165374999Y-122125001D02*
X166100000Y-121400000D01*
X149900000Y-119600000D02*
X152425001Y-122125001D01*
X166825001Y-121051999D02*
X166825001Y-121748001D01*
X166825001Y-121748001D02*
X165997991Y-122575011D01*
X165473013Y-119700011D02*
X166825001Y-121051999D01*
X162900000Y-119700011D02*
X165473013Y-119700011D01*
X161924989Y-122575011D02*
X159100000Y-125400000D01*
X165997991Y-122575011D02*
X161924989Y-122575011D01*
X171374999Y-126125001D02*
X172100000Y-125400000D01*
X158325001Y-126125001D02*
X171374999Y-126125001D01*
X155900000Y-123700000D02*
X158325001Y-126125001D01*
X172825001Y-125748001D02*
X171997991Y-126575011D01*
X172825001Y-125051999D02*
X172825001Y-125748001D01*
X171473002Y-123700000D02*
X172825001Y-125051999D01*
X168900000Y-123700000D02*
X171473002Y-123700000D01*
X155524989Y-126575011D02*
X153100000Y-129000000D01*
X171997991Y-126575011D02*
X155524989Y-126575011D01*
X165174999Y-129725001D02*
X166000000Y-128900000D01*
X152425001Y-129725001D02*
X165174999Y-129725001D01*
X149900000Y-127200000D02*
X152425001Y-129725001D01*
X173275011Y-125934401D02*
X173275011Y-103334401D01*
X171809412Y-127400000D02*
X173275011Y-125934401D01*
X162900000Y-127400000D02*
X171809412Y-127400000D01*
X173275011Y-103334401D02*
X173275011Y-97924989D01*
X173275011Y-97924989D02*
X174800000Y-96400000D01*
X175700000Y-95500000D02*
X190100000Y-95500000D01*
X174800000Y-96400000D02*
X175700000Y-95500000D01*
X186787347Y-93587347D02*
X187974999Y-94774999D01*
X202374999Y-94774999D02*
X203000000Y-95400000D01*
X187974999Y-94774999D02*
X202374999Y-94774999D01*
X203248001Y-96225001D02*
X188825001Y-96225001D01*
X202997992Y-94324990D02*
X203725001Y-95051999D01*
X203725001Y-95748001D02*
X203248001Y-96225001D01*
X203725001Y-95051999D02*
X203725001Y-95748001D01*
X200524990Y-94324990D02*
X202997992Y-94324990D01*
X199787347Y-93587347D02*
X200524990Y-94324990D01*
X186774999Y-96225001D02*
X184100000Y-98900000D01*
X188825001Y-96225001D02*
X186774999Y-96225001D01*
X196374999Y-99625001D02*
X197100000Y-98900000D01*
X183325001Y-99625001D02*
X196374999Y-99625001D01*
X180900000Y-97200000D02*
X183325001Y-99625001D01*
X197825001Y-99248001D02*
X196997991Y-100075011D01*
X197825001Y-98551999D02*
X197825001Y-99248001D01*
X196360349Y-97087347D02*
X197825001Y-98551999D01*
X193787347Y-97087347D02*
X196360349Y-97087347D01*
X193024989Y-100075011D02*
X190100000Y-103000000D01*
X196997991Y-100075011D02*
X193024989Y-100075011D01*
X202174999Y-103725001D02*
X203000000Y-102900000D01*
X189525001Y-103725001D02*
X202174999Y-103725001D01*
X186900000Y-101100000D02*
X189525001Y-103725001D01*
X203725001Y-103248001D02*
X202797991Y-104175011D01*
X203725001Y-102551999D02*
X203725001Y-103248001D01*
X202273002Y-101100000D02*
X203725001Y-102551999D01*
X199900000Y-101100000D02*
X202273002Y-101100000D01*
X186324989Y-104175011D02*
X184100000Y-106400000D01*
X202797991Y-104175011D02*
X186324989Y-104175011D01*
X196274999Y-107125001D02*
X197000000Y-106400000D01*
X183325001Y-107125001D02*
X196274999Y-107125001D01*
X180900000Y-104700000D02*
X183325001Y-107125001D01*
X197725001Y-106051999D02*
X197725001Y-106748001D01*
X197725001Y-106748001D02*
X196897991Y-107575011D01*
X196573013Y-104900011D02*
X197725001Y-106051999D01*
X193900000Y-104900011D02*
X196573013Y-104900011D01*
X192924989Y-107575011D02*
X190100000Y-110400000D01*
X196897991Y-107575011D02*
X192924989Y-107575011D01*
X202174999Y-111125001D02*
X203000000Y-110300000D01*
X189425001Y-111125001D02*
X202174999Y-111125001D01*
X186900000Y-108600000D02*
X189425001Y-111125001D01*
X203725001Y-109951999D02*
X203725001Y-110648001D01*
X202773001Y-108999999D02*
X203725001Y-109951999D01*
X200299999Y-108999999D02*
X202773001Y-108999999D01*
X203725001Y-110648001D02*
X202773002Y-111600000D01*
X199900000Y-108600000D02*
X200299999Y-108999999D01*
X186400000Y-111600000D02*
X184100000Y-113900000D01*
X202773002Y-111600000D02*
X186400000Y-111600000D01*
X196374999Y-114625001D02*
X197100000Y-113900000D01*
X183425001Y-114625001D02*
X196374999Y-114625001D01*
X180900000Y-112100000D02*
X183425001Y-114625001D01*
X197825001Y-113551999D02*
X197825001Y-114248001D01*
X196598002Y-112325000D02*
X197825001Y-113551999D01*
X197825001Y-114248001D02*
X196997991Y-115075011D01*
X193900000Y-112325000D02*
X196598002Y-112325000D01*
X192924989Y-115075011D02*
X190100000Y-117900000D01*
X196997991Y-115075011D02*
X192924989Y-115075011D01*
X189425001Y-118625001D02*
X202374999Y-118625001D01*
X202374999Y-118625001D02*
X203100000Y-117900000D01*
X186900000Y-116100000D02*
X189425001Y-118625001D01*
X203825001Y-118248001D02*
X202997991Y-119075011D01*
X203825001Y-117551999D02*
X203825001Y-118248001D01*
X202373002Y-116100000D02*
X203825001Y-117551999D01*
X199900000Y-116100000D02*
X202373002Y-116100000D01*
X186424989Y-119075011D02*
X184100000Y-121400000D01*
X202997991Y-119075011D02*
X186424989Y-119075011D01*
X196374999Y-122125001D02*
X197000000Y-121500000D01*
X183325001Y-122125001D02*
X196374999Y-122125001D01*
X180900000Y-119700000D02*
X183325001Y-122125001D01*
X197725001Y-121848001D02*
X196997991Y-122575011D01*
X196373013Y-119800011D02*
X197725001Y-121151999D01*
X197725001Y-121151999D02*
X197725001Y-121848001D01*
X193900000Y-119800011D02*
X196373013Y-119800011D01*
X193024989Y-122575011D02*
X190200000Y-125400000D01*
X196997991Y-122575011D02*
X193024989Y-122575011D01*
X202274999Y-126125001D02*
X203000000Y-125400000D01*
X189325001Y-126125001D02*
X202274999Y-126125001D01*
X186900000Y-123700000D02*
X189325001Y-126125001D01*
X203725001Y-125748001D02*
X202897991Y-126575011D01*
X203725001Y-125051999D02*
X203725001Y-125748001D01*
X202273002Y-123600000D02*
X203725001Y-125051999D01*
X199900000Y-123600000D02*
X202273002Y-123600000D01*
X186524989Y-126575011D02*
X184100000Y-129000000D01*
X202897991Y-126575011D02*
X186524989Y-126575011D01*
X196174999Y-129725001D02*
X197100000Y-128800000D01*
X183525001Y-129725001D02*
X196174999Y-129725001D01*
X180900000Y-127100000D02*
X183525001Y-129725001D01*
X202809401Y-127300011D02*
X204275011Y-125834401D01*
X204275011Y-125834401D02*
X204275011Y-118434401D01*
X193900000Y-127300011D02*
X202809401Y-127300011D01*
X204275011Y-110075011D02*
X204300000Y-110050022D01*
X204275011Y-118434401D02*
X204275011Y-110075011D01*
X204300000Y-110050022D02*
X204300000Y-97800000D01*
X206800000Y-95300000D02*
X216100000Y-95300000D01*
X204300000Y-97800000D02*
X206800000Y-95300000D01*
X212737347Y-93637347D02*
X213674999Y-94574999D01*
X213674999Y-94574999D02*
X228274999Y-94574999D01*
X228274999Y-94574999D02*
X229000000Y-95300000D01*
X229825001Y-95748001D02*
X229448001Y-96125001D01*
X229448001Y-96125001D02*
X215725001Y-96125001D01*
X212874999Y-96125001D02*
X210100000Y-98900000D01*
X215725001Y-96125001D02*
X212874999Y-96125001D01*
X229800000Y-95026998D02*
X229800000Y-95200000D01*
X226324989Y-94124989D02*
X228897991Y-94124989D01*
X225787347Y-93587347D02*
X226324989Y-94124989D01*
X229825001Y-95051999D02*
X229800000Y-95200000D01*
X228897991Y-94124989D02*
X229800000Y-95026998D01*
X229800000Y-95200000D02*
X229825001Y-95748001D01*
X222274999Y-99625001D02*
X223100000Y-98800000D01*
X209225001Y-99625001D02*
X222274999Y-99625001D01*
X206737347Y-97137347D02*
X209225001Y-99625001D01*
X223825001Y-99148001D02*
X222897991Y-100075011D01*
X220137346Y-97537346D02*
X222910348Y-97537346D01*
X223825001Y-98451999D02*
X223825001Y-99148001D01*
X222910348Y-97537346D02*
X223825001Y-98451999D01*
X219737347Y-97137347D02*
X220137346Y-97537346D01*
X218924989Y-100075011D02*
X216100000Y-102900000D01*
X222897991Y-100075011D02*
X218924989Y-100075011D01*
X228374999Y-103625001D02*
X229100000Y-102900000D01*
X215325001Y-103625001D02*
X228374999Y-103625001D01*
X212900000Y-101200000D02*
X215325001Y-103625001D01*
X229825001Y-103248001D02*
X228997991Y-104075011D01*
X229825001Y-102551999D02*
X229825001Y-103248001D01*
X228373002Y-101100000D02*
X229825001Y-102551999D01*
X225900000Y-101100000D02*
X228373002Y-101100000D01*
X212424989Y-104075011D02*
X210100000Y-106400000D01*
X228997991Y-104075011D02*
X212424989Y-104075011D01*
X222274999Y-107125001D02*
X223100000Y-106300000D01*
X209425001Y-107125001D02*
X222274999Y-107125001D01*
X206900000Y-104600000D02*
X209425001Y-107125001D01*
X223825001Y-105951999D02*
X223825001Y-106648001D01*
X223825001Y-106648001D02*
X222897991Y-107575011D01*
X222673013Y-104800011D02*
X223825001Y-105951999D01*
X219900000Y-104800011D02*
X222673013Y-104800011D01*
X218924989Y-107575011D02*
X216100000Y-110400000D01*
X222897991Y-107575011D02*
X218924989Y-107575011D01*
X228374999Y-111125001D02*
X229100000Y-110400000D01*
X215325001Y-111125001D02*
X228374999Y-111125001D01*
X212900000Y-108700000D02*
X215325001Y-111125001D01*
X229825001Y-110748001D02*
X228997991Y-111575011D01*
X229825001Y-110051999D02*
X229825001Y-110748001D01*
X228373002Y-108600000D02*
X229825001Y-110051999D01*
X225900000Y-108600000D02*
X228373002Y-108600000D01*
X212424989Y-111575011D02*
X210100000Y-113900000D01*
X228997991Y-111575011D02*
X212424989Y-111575011D01*
X222274999Y-114625001D02*
X223000000Y-113900000D01*
X209425001Y-114625001D02*
X222274999Y-114625001D01*
X206900000Y-112100000D02*
X209425001Y-114625001D01*
X223725001Y-114248001D02*
X222897991Y-115075011D01*
X223725001Y-113551999D02*
X223725001Y-114248001D01*
X222573002Y-112400000D02*
X223725001Y-113551999D01*
X219900000Y-112400000D02*
X222573002Y-112400000D01*
X218924989Y-115075011D02*
X216100000Y-117900000D01*
X222897991Y-115075011D02*
X218924989Y-115075011D01*
X215425001Y-118625001D02*
X228274999Y-118625001D01*
X228274999Y-118625001D02*
X229100000Y-117800000D01*
X212900000Y-116100000D02*
X215425001Y-118625001D01*
X229825001Y-117451999D02*
X229825001Y-118148001D01*
X228573002Y-116200000D02*
X229825001Y-117451999D01*
X229825001Y-118148001D02*
X228897991Y-119075011D01*
X225900000Y-116200000D02*
X228573002Y-116200000D01*
X212424989Y-119075011D02*
X210100000Y-121400000D01*
X228897991Y-119075011D02*
X212424989Y-119075011D01*
X222374999Y-122125001D02*
X223100000Y-121400000D01*
X209425001Y-122125001D02*
X222374999Y-122125001D01*
X206900000Y-119600000D02*
X209425001Y-122125001D01*
X222573013Y-119800011D02*
X223825001Y-121051999D01*
X223825001Y-121748001D02*
X222997991Y-122575011D01*
X223825001Y-121051999D02*
X223825001Y-121748001D01*
X219900000Y-119800011D02*
X222573013Y-119800011D01*
X218924989Y-122575011D02*
X216100000Y-125400000D01*
X222997991Y-122575011D02*
X218924989Y-122575011D01*
X228474999Y-126125001D02*
X229100000Y-125500000D01*
X215425001Y-126125001D02*
X228474999Y-126125001D01*
X212900000Y-123600000D02*
X215425001Y-126125001D01*
X229825001Y-125151999D02*
X229825001Y-125848001D01*
X228673001Y-123999999D02*
X229825001Y-125151999D01*
X226299999Y-123999999D02*
X228673001Y-123999999D01*
X229825001Y-125848001D02*
X229097991Y-126575011D01*
X225900000Y-123600000D02*
X226299999Y-123999999D01*
X212524989Y-126575011D02*
X210100000Y-129000000D01*
X229097991Y-126575011D02*
X212524989Y-126575011D01*
X209425001Y-129725001D02*
X222174999Y-129725001D01*
X222174999Y-129725001D02*
X223000000Y-128900000D01*
X206900000Y-127200000D02*
X209425001Y-129725001D01*
X121080041Y-125482136D02*
X121080041Y-96969959D01*
X121080041Y-96969959D02*
X121100000Y-96950000D01*
X125772915Y-130175010D02*
X121080041Y-125482136D01*
X222797991Y-130175011D02*
X125772915Y-130175010D01*
X223725001Y-128551999D02*
X223725001Y-129248001D01*
X222473013Y-127300011D02*
X223725001Y-128551999D01*
X219900000Y-127300011D02*
X222473013Y-127300011D01*
X223725001Y-129248001D02*
X222797991Y-130175011D01*
X176087346Y-92762346D02*
X178100000Y-94775000D01*
X129539346Y-92762346D02*
X176087346Y-92762346D01*
X128700000Y-93600000D02*
X128701692Y-93600000D01*
X127250010Y-95049990D02*
X128700000Y-93600000D01*
X128701692Y-93600000D02*
X129539346Y-92762346D01*
X119349990Y-95049990D02*
X127250010Y-95049990D01*
X117900000Y-93600000D02*
X119349990Y-95049990D01*
X80150000Y-91000000D02*
X82400000Y-88750000D01*
X82400000Y-88750000D02*
X113650000Y-88750000D01*
X118080001Y-102460001D02*
X118880000Y-103260000D01*
X116275012Y-100655012D02*
X118080001Y-102460001D01*
X116275012Y-91375012D02*
X116275012Y-100655012D01*
X113650000Y-88750000D02*
X116275012Y-91375012D01*
D16*
G36*
X230340000Y-93473000D02*
G01*
X229290435Y-93473000D01*
X229190238Y-93419443D01*
X229046977Y-93375986D01*
X228935324Y-93364989D01*
X228935313Y-93364989D01*
X228897991Y-93361313D01*
X228860669Y-93364989D01*
X226798394Y-93364989D01*
X226782573Y-93285449D01*
X226704552Y-93097091D01*
X226591284Y-92927573D01*
X226447121Y-92783410D01*
X226277603Y-92670142D01*
X226089245Y-92592121D01*
X225889286Y-92552347D01*
X225685408Y-92552347D01*
X225485449Y-92592121D01*
X225297091Y-92670142D01*
X225127573Y-92783410D01*
X224983410Y-92927573D01*
X224870142Y-93097091D01*
X224792121Y-93285449D01*
X224754815Y-93473000D01*
X213759933Y-93473000D01*
X213732573Y-93335449D01*
X213654552Y-93147091D01*
X213541284Y-92977573D01*
X213397121Y-92833410D01*
X213227603Y-92720142D01*
X213039245Y-92642121D01*
X212839286Y-92602347D01*
X212635408Y-92602347D01*
X212435449Y-92642121D01*
X212247091Y-92720142D01*
X212077573Y-92833410D01*
X211933410Y-92977573D01*
X211820142Y-93147091D01*
X211742121Y-93335449D01*
X211714761Y-93473000D01*
X200819879Y-93473000D01*
X200782573Y-93285449D01*
X200704552Y-93097091D01*
X200591284Y-92927573D01*
X200447121Y-92783410D01*
X200277603Y-92670142D01*
X200089245Y-92592121D01*
X199889286Y-92552347D01*
X199685408Y-92552347D01*
X199485449Y-92592121D01*
X199297091Y-92670142D01*
X199127573Y-92783410D01*
X198983410Y-92927573D01*
X198870142Y-93097091D01*
X198792121Y-93285449D01*
X198754815Y-93473000D01*
X187819879Y-93473000D01*
X187782573Y-93285449D01*
X187704552Y-93097091D01*
X187591284Y-92927573D01*
X187447121Y-92783410D01*
X187277603Y-92670142D01*
X187089245Y-92592121D01*
X186889286Y-92552347D01*
X186685408Y-92552347D01*
X186485449Y-92592121D01*
X186297091Y-92670142D01*
X186127573Y-92783410D01*
X185983410Y-92927573D01*
X185870142Y-93097091D01*
X185792121Y-93285449D01*
X185754815Y-93473000D01*
X177872802Y-93473000D01*
X176651150Y-92251349D01*
X176627347Y-92222345D01*
X176511622Y-92127372D01*
X176379593Y-92056800D01*
X176236332Y-92013343D01*
X176124679Y-92002346D01*
X176124668Y-92002346D01*
X176087346Y-91998670D01*
X176050024Y-92002346D01*
X129576671Y-92002346D01*
X129539346Y-91998670D01*
X129502021Y-92002346D01*
X129502013Y-92002346D01*
X129390360Y-92013343D01*
X129247099Y-92056800D01*
X129115070Y-92127372D01*
X128999345Y-92222345D01*
X128975547Y-92251343D01*
X128198438Y-93028453D01*
X128159999Y-93059999D01*
X128136201Y-93088997D01*
X127752198Y-93473000D01*
X118930015Y-93473000D01*
X118895226Y-93298102D01*
X118817205Y-93109744D01*
X118703937Y-92940226D01*
X118559774Y-92796063D01*
X118390256Y-92682795D01*
X118201898Y-92604774D01*
X118001939Y-92565000D01*
X117798061Y-92565000D01*
X117598102Y-92604774D01*
X117409744Y-92682795D01*
X117240226Y-92796063D01*
X117096063Y-92940226D01*
X117035012Y-93031596D01*
X117035012Y-91412345D01*
X117038689Y-91375012D01*
X117024015Y-91226026D01*
X116980558Y-91082765D01*
X116909986Y-90950736D01*
X116838811Y-90864009D01*
X116815013Y-90835011D01*
X116786016Y-90811214D01*
X114213804Y-88239003D01*
X114190001Y-88209999D01*
X114074276Y-88115026D01*
X113942247Y-88044454D01*
X113798986Y-88000997D01*
X113687333Y-87990000D01*
X113687322Y-87990000D01*
X113650000Y-87986324D01*
X113612678Y-87990000D01*
X82437333Y-87990000D01*
X82400000Y-87986323D01*
X82362667Y-87990000D01*
X82251014Y-88000997D01*
X82107753Y-88044454D01*
X81975724Y-88115026D01*
X81859999Y-88209999D01*
X81836201Y-88238997D01*
X80110199Y-89965000D01*
X80048061Y-89965000D01*
X79848102Y-90004774D01*
X79659744Y-90082795D01*
X79490226Y-90196063D01*
X79346063Y-90340226D01*
X79232795Y-90509744D01*
X79154774Y-90698102D01*
X79115000Y-90898061D01*
X79115000Y-91101939D01*
X79154774Y-91301898D01*
X79232795Y-91490256D01*
X79346063Y-91659774D01*
X79490226Y-91803937D01*
X79659744Y-91917205D01*
X79848102Y-91995226D01*
X80048061Y-92035000D01*
X80251939Y-92035000D01*
X80451898Y-91995226D01*
X80640256Y-91917205D01*
X80809774Y-91803937D01*
X80953937Y-91659774D01*
X81067205Y-91490256D01*
X81145226Y-91301898D01*
X81185000Y-91101939D01*
X81185000Y-91039801D01*
X82714802Y-89510000D01*
X105200604Y-89510000D01*
X105065363Y-89645241D01*
X104908320Y-89880273D01*
X104800147Y-90141426D01*
X104745000Y-90418665D01*
X104745000Y-90701335D01*
X104800147Y-90978574D01*
X104908320Y-91239727D01*
X105065363Y-91474759D01*
X105263961Y-91673357D01*
X105255518Y-91674188D01*
X105135820Y-91710498D01*
X105025506Y-91769463D01*
X104928815Y-91848815D01*
X104849463Y-91945506D01*
X104790498Y-92055820D01*
X104754188Y-92175518D01*
X104741928Y-92300000D01*
X104745000Y-92814250D01*
X104903750Y-92973000D01*
X106053000Y-92973000D01*
X106053000Y-92953000D01*
X106307000Y-92953000D01*
X106307000Y-92973000D01*
X107456250Y-92973000D01*
X107615000Y-92814250D01*
X107618072Y-92300000D01*
X107605812Y-92175518D01*
X107569502Y-92055820D01*
X107510537Y-91945506D01*
X107431185Y-91848815D01*
X107334494Y-91769463D01*
X107224180Y-91710498D01*
X107104482Y-91674188D01*
X107096039Y-91673357D01*
X107294637Y-91474759D01*
X107451680Y-91239727D01*
X107559853Y-90978574D01*
X107615000Y-90701335D01*
X107615000Y-90418665D01*
X107559853Y-90141426D01*
X107451680Y-89880273D01*
X107294637Y-89645241D01*
X107159396Y-89510000D01*
X113335199Y-89510000D01*
X115515012Y-91689814D01*
X115515012Y-93473000D01*
X114916660Y-93473000D01*
X114835324Y-93464989D01*
X114835313Y-93464989D01*
X114797991Y-93461313D01*
X114760669Y-93464989D01*
X112818285Y-93464989D01*
X112782573Y-93285449D01*
X112704552Y-93097091D01*
X112591284Y-92927573D01*
X112447121Y-92783410D01*
X112277603Y-92670142D01*
X112089245Y-92592121D01*
X111889286Y-92552347D01*
X111685408Y-92552347D01*
X111485449Y-92592121D01*
X111297091Y-92670142D01*
X111127573Y-92783410D01*
X110983410Y-92927573D01*
X110870142Y-93097091D01*
X110792121Y-93285449D01*
X110754815Y-93473000D01*
X107615521Y-93473000D01*
X107615000Y-93385750D01*
X107456250Y-93227000D01*
X106307000Y-93227000D01*
X106307000Y-93247000D01*
X106053000Y-93247000D01*
X106053000Y-93227000D01*
X104903750Y-93227000D01*
X104745000Y-93385750D01*
X104744479Y-93473000D01*
X99872347Y-93473000D01*
X99872347Y-93435408D01*
X99832573Y-93235449D01*
X99754552Y-93047091D01*
X99641284Y-92877573D01*
X99497121Y-92733410D01*
X99327603Y-92620142D01*
X99139245Y-92542121D01*
X98939286Y-92502347D01*
X98735408Y-92502347D01*
X98535449Y-92542121D01*
X98347091Y-92620142D01*
X98177573Y-92733410D01*
X98033410Y-92877573D01*
X97920142Y-93047091D01*
X97842121Y-93235449D01*
X97802347Y-93435408D01*
X97802347Y-93473000D01*
X86922347Y-93473000D01*
X86922347Y-93385408D01*
X86882573Y-93185449D01*
X86804552Y-92997091D01*
X86691284Y-92827573D01*
X86547121Y-92683410D01*
X86377603Y-92570142D01*
X86189245Y-92492121D01*
X85989286Y-92452347D01*
X85927148Y-92452347D01*
X85838802Y-92364001D01*
X85815000Y-92334998D01*
X85699275Y-92240025D01*
X85567246Y-92169453D01*
X85423985Y-92125996D01*
X85312332Y-92114999D01*
X85312321Y-92114999D01*
X85274999Y-92111323D01*
X85237677Y-92114999D01*
X72589321Y-92114999D01*
X72551998Y-92111323D01*
X72514675Y-92114999D01*
X72514666Y-92114999D01*
X72403013Y-92125996D01*
X72259752Y-92169453D01*
X72127723Y-92240025D01*
X72011998Y-92334998D01*
X71988200Y-92363996D01*
X70879196Y-93473000D01*
X65660000Y-93473000D01*
X65660000Y-81776521D01*
X86730979Y-81776521D01*
X86730979Y-82223479D01*
X86818176Y-82661849D01*
X86989220Y-83074785D01*
X87237536Y-83446417D01*
X87553583Y-83762464D01*
X87925215Y-84010780D01*
X88338151Y-84181824D01*
X88776521Y-84269021D01*
X89223479Y-84269021D01*
X89661849Y-84181824D01*
X90074785Y-84010780D01*
X90446417Y-83762464D01*
X90762464Y-83446417D01*
X91010780Y-83074785D01*
X91181824Y-82661849D01*
X91269021Y-82223479D01*
X91269021Y-81776521D01*
X91228746Y-81574042D01*
X123655000Y-81574042D01*
X123655000Y-81905958D01*
X123719754Y-82231496D01*
X123846772Y-82538147D01*
X124031175Y-82814125D01*
X124265875Y-83048825D01*
X124541853Y-83233228D01*
X124848504Y-83360246D01*
X125174042Y-83425000D01*
X125505958Y-83425000D01*
X125831496Y-83360246D01*
X126138147Y-83233228D01*
X126414125Y-83048825D01*
X126648825Y-82814125D01*
X126833228Y-82538147D01*
X126960246Y-82231496D01*
X127025000Y-81905958D01*
X127025000Y-81574042D01*
X126960246Y-81248504D01*
X126833228Y-80941853D01*
X126711386Y-80759504D01*
X126961963Y-80723501D01*
X127242474Y-80624572D01*
X127385975Y-80547868D01*
X127466635Y-80296240D01*
X126600000Y-79429605D01*
X126585858Y-79443748D01*
X126406253Y-79264143D01*
X126420395Y-79250000D01*
X126779605Y-79250000D01*
X127646240Y-80116635D01*
X127897868Y-80035975D01*
X128026267Y-79767671D01*
X128099855Y-79479474D01*
X128115804Y-79182457D01*
X128104140Y-79101278D01*
X129590000Y-79101278D01*
X129590000Y-79398722D01*
X129648029Y-79690451D01*
X129761856Y-79965253D01*
X129927107Y-80212569D01*
X130137431Y-80422893D01*
X130384747Y-80588144D01*
X130659549Y-80701971D01*
X130951278Y-80760000D01*
X130978283Y-80760000D01*
X130856772Y-80941853D01*
X130729754Y-81248504D01*
X130665000Y-81574042D01*
X130665000Y-81905958D01*
X130729754Y-82231496D01*
X130856772Y-82538147D01*
X131041175Y-82814125D01*
X131275875Y-83048825D01*
X131551853Y-83233228D01*
X131858504Y-83360246D01*
X132184042Y-83425000D01*
X132515958Y-83425000D01*
X132841496Y-83360246D01*
X133148147Y-83233228D01*
X133424125Y-83048825D01*
X133658825Y-82814125D01*
X133843228Y-82538147D01*
X133970246Y-82231496D01*
X134035000Y-81905958D01*
X134035000Y-81574042D01*
X134455000Y-81574042D01*
X134455000Y-81905958D01*
X134519754Y-82231496D01*
X134646772Y-82538147D01*
X134831175Y-82814125D01*
X135065875Y-83048825D01*
X135341853Y-83233228D01*
X135648504Y-83360246D01*
X135974042Y-83425000D01*
X136305958Y-83425000D01*
X136631496Y-83360246D01*
X136938147Y-83233228D01*
X137214125Y-83048825D01*
X137448825Y-82814125D01*
X137633228Y-82538147D01*
X137760246Y-82231496D01*
X137825000Y-81905958D01*
X137825000Y-81574042D01*
X137760246Y-81248504D01*
X137633228Y-80941853D01*
X137511386Y-80759504D01*
X137761963Y-80723501D01*
X138042474Y-80624572D01*
X138185975Y-80547868D01*
X138266635Y-80296240D01*
X137400000Y-79429605D01*
X137385858Y-79443748D01*
X137206253Y-79264143D01*
X137220395Y-79250000D01*
X137579605Y-79250000D01*
X138446240Y-80116635D01*
X138697868Y-80035975D01*
X138826267Y-79767671D01*
X138899855Y-79479474D01*
X138915804Y-79182457D01*
X138904140Y-79101278D01*
X140390000Y-79101278D01*
X140390000Y-79398722D01*
X140448029Y-79690451D01*
X140561856Y-79965253D01*
X140727107Y-80212569D01*
X140937431Y-80422893D01*
X141184747Y-80588144D01*
X141459549Y-80701971D01*
X141751278Y-80760000D01*
X141778283Y-80760000D01*
X141656772Y-80941853D01*
X141529754Y-81248504D01*
X141465000Y-81574042D01*
X141465000Y-81905958D01*
X141529754Y-82231496D01*
X141656772Y-82538147D01*
X141841175Y-82814125D01*
X142075875Y-83048825D01*
X142351853Y-83233228D01*
X142658504Y-83360246D01*
X142984042Y-83425000D01*
X143315958Y-83425000D01*
X143641496Y-83360246D01*
X143948147Y-83233228D01*
X144224125Y-83048825D01*
X144458825Y-82814125D01*
X144643228Y-82538147D01*
X144770246Y-82231496D01*
X144835000Y-81905958D01*
X144835000Y-81574042D01*
X150905000Y-81574042D01*
X150905000Y-81905958D01*
X150969754Y-82231496D01*
X151096772Y-82538147D01*
X151281175Y-82814125D01*
X151515875Y-83048825D01*
X151791853Y-83233228D01*
X152098504Y-83360246D01*
X152424042Y-83425000D01*
X152755958Y-83425000D01*
X153081496Y-83360246D01*
X153388147Y-83233228D01*
X153664125Y-83048825D01*
X153898825Y-82814125D01*
X154083228Y-82538147D01*
X154210246Y-82231496D01*
X154275000Y-81905958D01*
X154275000Y-81574042D01*
X154210246Y-81248504D01*
X154083228Y-80941853D01*
X153961386Y-80759504D01*
X154211963Y-80723501D01*
X154492474Y-80624572D01*
X154635975Y-80547868D01*
X154716635Y-80296240D01*
X153850000Y-79429605D01*
X153835858Y-79443748D01*
X153656253Y-79264143D01*
X153670395Y-79250000D01*
X154029605Y-79250000D01*
X154896240Y-80116635D01*
X155147868Y-80035975D01*
X155276267Y-79767671D01*
X155349855Y-79479474D01*
X155365804Y-79182457D01*
X155354140Y-79101278D01*
X156840000Y-79101278D01*
X156840000Y-79398722D01*
X156898029Y-79690451D01*
X157011856Y-79965253D01*
X157177107Y-80212569D01*
X157387431Y-80422893D01*
X157634747Y-80588144D01*
X157909549Y-80701971D01*
X158201278Y-80760000D01*
X158228283Y-80760000D01*
X158106772Y-80941853D01*
X157979754Y-81248504D01*
X157915000Y-81574042D01*
X157915000Y-81905958D01*
X157979754Y-82231496D01*
X158106772Y-82538147D01*
X158291175Y-82814125D01*
X158525875Y-83048825D01*
X158801853Y-83233228D01*
X159108504Y-83360246D01*
X159434042Y-83425000D01*
X159765958Y-83425000D01*
X160091496Y-83360246D01*
X160398147Y-83233228D01*
X160674125Y-83048825D01*
X160908825Y-82814125D01*
X161093228Y-82538147D01*
X161220246Y-82231496D01*
X161285000Y-81905958D01*
X161285000Y-81574042D01*
X161905000Y-81574042D01*
X161905000Y-81905958D01*
X161969754Y-82231496D01*
X162096772Y-82538147D01*
X162281175Y-82814125D01*
X162515875Y-83048825D01*
X162791853Y-83233228D01*
X163098504Y-83360246D01*
X163424042Y-83425000D01*
X163755958Y-83425000D01*
X164081496Y-83360246D01*
X164388147Y-83233228D01*
X164664125Y-83048825D01*
X164898825Y-82814125D01*
X165083228Y-82538147D01*
X165210246Y-82231496D01*
X165275000Y-81905958D01*
X165275000Y-81574042D01*
X165210246Y-81248504D01*
X165083228Y-80941853D01*
X164961386Y-80759504D01*
X165211963Y-80723501D01*
X165492474Y-80624572D01*
X165635975Y-80547868D01*
X165716635Y-80296240D01*
X164850000Y-79429605D01*
X164835858Y-79443748D01*
X164656253Y-79264143D01*
X164670395Y-79250000D01*
X165029605Y-79250000D01*
X165896240Y-80116635D01*
X166147868Y-80035975D01*
X166276267Y-79767671D01*
X166349855Y-79479474D01*
X166365804Y-79182457D01*
X166354140Y-79101278D01*
X167840000Y-79101278D01*
X167840000Y-79398722D01*
X167898029Y-79690451D01*
X168011856Y-79965253D01*
X168177107Y-80212569D01*
X168387431Y-80422893D01*
X168634747Y-80588144D01*
X168909549Y-80701971D01*
X169201278Y-80760000D01*
X169228283Y-80760000D01*
X169106772Y-80941853D01*
X168979754Y-81248504D01*
X168915000Y-81574042D01*
X168915000Y-81905958D01*
X168979754Y-82231496D01*
X169106772Y-82538147D01*
X169291175Y-82814125D01*
X169525875Y-83048825D01*
X169801853Y-83233228D01*
X170108504Y-83360246D01*
X170434042Y-83425000D01*
X170765958Y-83425000D01*
X171091496Y-83360246D01*
X171398147Y-83233228D01*
X171674125Y-83048825D01*
X171908825Y-82814125D01*
X172093228Y-82538147D01*
X172220246Y-82231496D01*
X172285000Y-81905958D01*
X172285000Y-81776521D01*
X204730979Y-81776521D01*
X204730979Y-82223479D01*
X204818176Y-82661849D01*
X204989220Y-83074785D01*
X205237536Y-83446417D01*
X205553583Y-83762464D01*
X205925215Y-84010780D01*
X206338151Y-84181824D01*
X206776521Y-84269021D01*
X207223479Y-84269021D01*
X207661849Y-84181824D01*
X208074785Y-84010780D01*
X208446417Y-83762464D01*
X208762464Y-83446417D01*
X209010780Y-83074785D01*
X209181824Y-82661849D01*
X209269021Y-82223479D01*
X209269021Y-81776521D01*
X209181824Y-81338151D01*
X209010780Y-80925215D01*
X208762464Y-80553583D01*
X208446417Y-80237536D01*
X208074785Y-79989220D01*
X207661849Y-79818176D01*
X207223479Y-79730979D01*
X206776521Y-79730979D01*
X206338151Y-79818176D01*
X205925215Y-79989220D01*
X205553583Y-80237536D01*
X205237536Y-80553583D01*
X204989220Y-80925215D01*
X204818176Y-81338151D01*
X204730979Y-81776521D01*
X172285000Y-81776521D01*
X172285000Y-81574042D01*
X172220246Y-81248504D01*
X172093228Y-80941853D01*
X171908825Y-80665875D01*
X171674125Y-80431175D01*
X171398147Y-80246772D01*
X171091496Y-80119754D01*
X170765958Y-80055000D01*
X170628177Y-80055000D01*
X170688144Y-79965253D01*
X170801971Y-79690451D01*
X170860000Y-79398722D01*
X170860000Y-79101278D01*
X170801971Y-78809549D01*
X170688144Y-78534747D01*
X170522893Y-78287431D01*
X170312569Y-78077107D01*
X170065253Y-77911856D01*
X169790451Y-77798029D01*
X169498722Y-77740000D01*
X169201278Y-77740000D01*
X168909549Y-77798029D01*
X168634747Y-77911856D01*
X168387431Y-78077107D01*
X168177107Y-78287431D01*
X168011856Y-78534747D01*
X167898029Y-78809549D01*
X167840000Y-79101278D01*
X166354140Y-79101278D01*
X166323501Y-78888037D01*
X166224572Y-78607526D01*
X166147868Y-78464025D01*
X165896240Y-78383365D01*
X165029605Y-79250000D01*
X164670395Y-79250000D01*
X163803760Y-78383365D01*
X163552132Y-78464025D01*
X163423733Y-78732329D01*
X163350145Y-79020526D01*
X163334196Y-79317543D01*
X163376499Y-79611963D01*
X163475428Y-79892474D01*
X163552132Y-80035975D01*
X163611483Y-80055000D01*
X163424042Y-80055000D01*
X163098504Y-80119754D01*
X162791853Y-80246772D01*
X162515875Y-80431175D01*
X162281175Y-80665875D01*
X162096772Y-80941853D01*
X161969754Y-81248504D01*
X161905000Y-81574042D01*
X161285000Y-81574042D01*
X161220246Y-81248504D01*
X161093228Y-80941853D01*
X160908825Y-80665875D01*
X160674125Y-80431175D01*
X160398147Y-80246772D01*
X160091496Y-80119754D01*
X159765958Y-80055000D01*
X159628177Y-80055000D01*
X159688144Y-79965253D01*
X159801971Y-79690451D01*
X159860000Y-79398722D01*
X159860000Y-79101278D01*
X159801971Y-78809549D01*
X159688144Y-78534747D01*
X159522893Y-78287431D01*
X159439222Y-78203760D01*
X163983365Y-78203760D01*
X164850000Y-79070395D01*
X165716635Y-78203760D01*
X165635975Y-77952132D01*
X165367671Y-77823733D01*
X165079474Y-77750145D01*
X164782457Y-77734196D01*
X164488037Y-77776499D01*
X164207526Y-77875428D01*
X164064025Y-77952132D01*
X163983365Y-78203760D01*
X159439222Y-78203760D01*
X159312569Y-78077107D01*
X159065253Y-77911856D01*
X158790451Y-77798029D01*
X158498722Y-77740000D01*
X158201278Y-77740000D01*
X157909549Y-77798029D01*
X157634747Y-77911856D01*
X157387431Y-78077107D01*
X157177107Y-78287431D01*
X157011856Y-78534747D01*
X156898029Y-78809549D01*
X156840000Y-79101278D01*
X155354140Y-79101278D01*
X155323501Y-78888037D01*
X155224572Y-78607526D01*
X155147868Y-78464025D01*
X154896240Y-78383365D01*
X154029605Y-79250000D01*
X153670395Y-79250000D01*
X152803760Y-78383365D01*
X152552132Y-78464025D01*
X152423733Y-78732329D01*
X152350145Y-79020526D01*
X152334196Y-79317543D01*
X152376499Y-79611963D01*
X152475428Y-79892474D01*
X152552132Y-80035975D01*
X152611483Y-80055000D01*
X152424042Y-80055000D01*
X152098504Y-80119754D01*
X151791853Y-80246772D01*
X151515875Y-80431175D01*
X151281175Y-80665875D01*
X151096772Y-80941853D01*
X150969754Y-81248504D01*
X150905000Y-81574042D01*
X144835000Y-81574042D01*
X144770246Y-81248504D01*
X144643228Y-80941853D01*
X144458825Y-80665875D01*
X144224125Y-80431175D01*
X143948147Y-80246772D01*
X143641496Y-80119754D01*
X143315958Y-80055000D01*
X143178177Y-80055000D01*
X143238144Y-79965253D01*
X143351971Y-79690451D01*
X143410000Y-79398722D01*
X143410000Y-79101278D01*
X143351971Y-78809549D01*
X143238144Y-78534747D01*
X143072893Y-78287431D01*
X142989222Y-78203760D01*
X152983365Y-78203760D01*
X153850000Y-79070395D01*
X154716635Y-78203760D01*
X154635975Y-77952132D01*
X154367671Y-77823733D01*
X154079474Y-77750145D01*
X153782457Y-77734196D01*
X153488037Y-77776499D01*
X153207526Y-77875428D01*
X153064025Y-77952132D01*
X152983365Y-78203760D01*
X142989222Y-78203760D01*
X142862569Y-78077107D01*
X142615253Y-77911856D01*
X142340451Y-77798029D01*
X142048722Y-77740000D01*
X141751278Y-77740000D01*
X141459549Y-77798029D01*
X141184747Y-77911856D01*
X140937431Y-78077107D01*
X140727107Y-78287431D01*
X140561856Y-78534747D01*
X140448029Y-78809549D01*
X140390000Y-79101278D01*
X138904140Y-79101278D01*
X138873501Y-78888037D01*
X138774572Y-78607526D01*
X138697868Y-78464025D01*
X138446240Y-78383365D01*
X137579605Y-79250000D01*
X137220395Y-79250000D01*
X136353760Y-78383365D01*
X136102132Y-78464025D01*
X135973733Y-78732329D01*
X135900145Y-79020526D01*
X135884196Y-79317543D01*
X135926499Y-79611963D01*
X136025428Y-79892474D01*
X136102132Y-80035975D01*
X136161483Y-80055000D01*
X135974042Y-80055000D01*
X135648504Y-80119754D01*
X135341853Y-80246772D01*
X135065875Y-80431175D01*
X134831175Y-80665875D01*
X134646772Y-80941853D01*
X134519754Y-81248504D01*
X134455000Y-81574042D01*
X134035000Y-81574042D01*
X133970246Y-81248504D01*
X133843228Y-80941853D01*
X133658825Y-80665875D01*
X133424125Y-80431175D01*
X133148147Y-80246772D01*
X132841496Y-80119754D01*
X132515958Y-80055000D01*
X132378177Y-80055000D01*
X132438144Y-79965253D01*
X132551971Y-79690451D01*
X132610000Y-79398722D01*
X132610000Y-79101278D01*
X132551971Y-78809549D01*
X132438144Y-78534747D01*
X132272893Y-78287431D01*
X132189222Y-78203760D01*
X136533365Y-78203760D01*
X137400000Y-79070395D01*
X138266635Y-78203760D01*
X138185975Y-77952132D01*
X137917671Y-77823733D01*
X137629474Y-77750145D01*
X137332457Y-77734196D01*
X137038037Y-77776499D01*
X136757526Y-77875428D01*
X136614025Y-77952132D01*
X136533365Y-78203760D01*
X132189222Y-78203760D01*
X132062569Y-78077107D01*
X131815253Y-77911856D01*
X131540451Y-77798029D01*
X131248722Y-77740000D01*
X130951278Y-77740000D01*
X130659549Y-77798029D01*
X130384747Y-77911856D01*
X130137431Y-78077107D01*
X129927107Y-78287431D01*
X129761856Y-78534747D01*
X129648029Y-78809549D01*
X129590000Y-79101278D01*
X128104140Y-79101278D01*
X128073501Y-78888037D01*
X127974572Y-78607526D01*
X127897868Y-78464025D01*
X127646240Y-78383365D01*
X126779605Y-79250000D01*
X126420395Y-79250000D01*
X125553760Y-78383365D01*
X125302132Y-78464025D01*
X125173733Y-78732329D01*
X125100145Y-79020526D01*
X125084196Y-79317543D01*
X125126499Y-79611963D01*
X125225428Y-79892474D01*
X125302132Y-80035975D01*
X125361483Y-80055000D01*
X125174042Y-80055000D01*
X124848504Y-80119754D01*
X124541853Y-80246772D01*
X124265875Y-80431175D01*
X124031175Y-80665875D01*
X123846772Y-80941853D01*
X123719754Y-81248504D01*
X123655000Y-81574042D01*
X91228746Y-81574042D01*
X91181824Y-81338151D01*
X91010780Y-80925215D01*
X90762464Y-80553583D01*
X90446417Y-80237536D01*
X90074785Y-79989220D01*
X89661849Y-79818176D01*
X89223479Y-79730979D01*
X88776521Y-79730979D01*
X88338151Y-79818176D01*
X87925215Y-79989220D01*
X87553583Y-80237536D01*
X87237536Y-80553583D01*
X86989220Y-80925215D01*
X86818176Y-81338151D01*
X86730979Y-81776521D01*
X65660000Y-81776521D01*
X65660000Y-78203760D01*
X125733365Y-78203760D01*
X126600000Y-79070395D01*
X127466635Y-78203760D01*
X127385975Y-77952132D01*
X127117671Y-77823733D01*
X126829474Y-77750145D01*
X126532457Y-77734196D01*
X126238037Y-77776499D01*
X125957526Y-77875428D01*
X125814025Y-77952132D01*
X125733365Y-78203760D01*
X65660000Y-78203760D01*
X65660000Y-77160000D01*
X230340000Y-77160000D01*
X230340000Y-93473000D01*
G37*
X230340000Y-93473000D02*
X229290435Y-93473000D01*
X229190238Y-93419443D01*
X229046977Y-93375986D01*
X228935324Y-93364989D01*
X228935313Y-93364989D01*
X228897991Y-93361313D01*
X228860669Y-93364989D01*
X226798394Y-93364989D01*
X226782573Y-93285449D01*
X226704552Y-93097091D01*
X226591284Y-92927573D01*
X226447121Y-92783410D01*
X226277603Y-92670142D01*
X226089245Y-92592121D01*
X225889286Y-92552347D01*
X225685408Y-92552347D01*
X225485449Y-92592121D01*
X225297091Y-92670142D01*
X225127573Y-92783410D01*
X224983410Y-92927573D01*
X224870142Y-93097091D01*
X224792121Y-93285449D01*
X224754815Y-93473000D01*
X213759933Y-93473000D01*
X213732573Y-93335449D01*
X213654552Y-93147091D01*
X213541284Y-92977573D01*
X213397121Y-92833410D01*
X213227603Y-92720142D01*
X213039245Y-92642121D01*
X212839286Y-92602347D01*
X212635408Y-92602347D01*
X212435449Y-92642121D01*
X212247091Y-92720142D01*
X212077573Y-92833410D01*
X211933410Y-92977573D01*
X211820142Y-93147091D01*
X211742121Y-93335449D01*
X211714761Y-93473000D01*
X200819879Y-93473000D01*
X200782573Y-93285449D01*
X200704552Y-93097091D01*
X200591284Y-92927573D01*
X200447121Y-92783410D01*
X200277603Y-92670142D01*
X200089245Y-92592121D01*
X199889286Y-92552347D01*
X199685408Y-92552347D01*
X199485449Y-92592121D01*
X199297091Y-92670142D01*
X199127573Y-92783410D01*
X198983410Y-92927573D01*
X198870142Y-93097091D01*
X198792121Y-93285449D01*
X198754815Y-93473000D01*
X187819879Y-93473000D01*
X187782573Y-93285449D01*
X187704552Y-93097091D01*
X187591284Y-92927573D01*
X187447121Y-92783410D01*
X187277603Y-92670142D01*
X187089245Y-92592121D01*
X186889286Y-92552347D01*
X186685408Y-92552347D01*
X186485449Y-92592121D01*
X186297091Y-92670142D01*
X186127573Y-92783410D01*
X185983410Y-92927573D01*
X185870142Y-93097091D01*
X185792121Y-93285449D01*
X185754815Y-93473000D01*
X177872802Y-93473000D01*
X176651150Y-92251349D01*
X176627347Y-92222345D01*
X176511622Y-92127372D01*
X176379593Y-92056800D01*
X176236332Y-92013343D01*
X176124679Y-92002346D01*
X176124668Y-92002346D01*
X176087346Y-91998670D01*
X176050024Y-92002346D01*
X129576671Y-92002346D01*
X129539346Y-91998670D01*
X129502021Y-92002346D01*
X129502013Y-92002346D01*
X129390360Y-92013343D01*
X129247099Y-92056800D01*
X129115070Y-92127372D01*
X128999345Y-92222345D01*
X128975547Y-92251343D01*
X128198438Y-93028453D01*
X128159999Y-93059999D01*
X128136201Y-93088997D01*
X127752198Y-93473000D01*
X118930015Y-93473000D01*
X118895226Y-93298102D01*
X118817205Y-93109744D01*
X118703937Y-92940226D01*
X118559774Y-92796063D01*
X118390256Y-92682795D01*
X118201898Y-92604774D01*
X118001939Y-92565000D01*
X117798061Y-92565000D01*
X117598102Y-92604774D01*
X117409744Y-92682795D01*
X117240226Y-92796063D01*
X117096063Y-92940226D01*
X117035012Y-93031596D01*
X117035012Y-91412345D01*
X117038689Y-91375012D01*
X117024015Y-91226026D01*
X116980558Y-91082765D01*
X116909986Y-90950736D01*
X116838811Y-90864009D01*
X116815013Y-90835011D01*
X116786016Y-90811214D01*
X114213804Y-88239003D01*
X114190001Y-88209999D01*
X114074276Y-88115026D01*
X113942247Y-88044454D01*
X113798986Y-88000997D01*
X113687333Y-87990000D01*
X113687322Y-87990000D01*
X113650000Y-87986324D01*
X113612678Y-87990000D01*
X82437333Y-87990000D01*
X82400000Y-87986323D01*
X82362667Y-87990000D01*
X82251014Y-88000997D01*
X82107753Y-88044454D01*
X81975724Y-88115026D01*
X81859999Y-88209999D01*
X81836201Y-88238997D01*
X80110199Y-89965000D01*
X80048061Y-89965000D01*
X79848102Y-90004774D01*
X79659744Y-90082795D01*
X79490226Y-90196063D01*
X79346063Y-90340226D01*
X79232795Y-90509744D01*
X79154774Y-90698102D01*
X79115000Y-90898061D01*
X79115000Y-91101939D01*
X79154774Y-91301898D01*
X79232795Y-91490256D01*
X79346063Y-91659774D01*
X79490226Y-91803937D01*
X79659744Y-91917205D01*
X79848102Y-91995226D01*
X80048061Y-92035000D01*
X80251939Y-92035000D01*
X80451898Y-91995226D01*
X80640256Y-91917205D01*
X80809774Y-91803937D01*
X80953937Y-91659774D01*
X81067205Y-91490256D01*
X81145226Y-91301898D01*
X81185000Y-91101939D01*
X81185000Y-91039801D01*
X82714802Y-89510000D01*
X105200604Y-89510000D01*
X105065363Y-89645241D01*
X104908320Y-89880273D01*
X104800147Y-90141426D01*
X104745000Y-90418665D01*
X104745000Y-90701335D01*
X104800147Y-90978574D01*
X104908320Y-91239727D01*
X105065363Y-91474759D01*
X105263961Y-91673357D01*
X105255518Y-91674188D01*
X105135820Y-91710498D01*
X105025506Y-91769463D01*
X104928815Y-91848815D01*
X104849463Y-91945506D01*
X104790498Y-92055820D01*
X104754188Y-92175518D01*
X104741928Y-92300000D01*
X104745000Y-92814250D01*
X104903750Y-92973000D01*
X106053000Y-92973000D01*
X106053000Y-92953000D01*
X106307000Y-92953000D01*
X106307000Y-92973000D01*
X107456250Y-92973000D01*
X107615000Y-92814250D01*
X107618072Y-92300000D01*
X107605812Y-92175518D01*
X107569502Y-92055820D01*
X107510537Y-91945506D01*
X107431185Y-91848815D01*
X107334494Y-91769463D01*
X107224180Y-91710498D01*
X107104482Y-91674188D01*
X107096039Y-91673357D01*
X107294637Y-91474759D01*
X107451680Y-91239727D01*
X107559853Y-90978574D01*
X107615000Y-90701335D01*
X107615000Y-90418665D01*
X107559853Y-90141426D01*
X107451680Y-89880273D01*
X107294637Y-89645241D01*
X107159396Y-89510000D01*
X113335199Y-89510000D01*
X115515012Y-91689814D01*
X115515012Y-93473000D01*
X114916660Y-93473000D01*
X114835324Y-93464989D01*
X114835313Y-93464989D01*
X114797991Y-93461313D01*
X114760669Y-93464989D01*
X112818285Y-93464989D01*
X112782573Y-93285449D01*
X112704552Y-93097091D01*
X112591284Y-92927573D01*
X112447121Y-92783410D01*
X112277603Y-92670142D01*
X112089245Y-92592121D01*
X111889286Y-92552347D01*
X111685408Y-92552347D01*
X111485449Y-92592121D01*
X111297091Y-92670142D01*
X111127573Y-92783410D01*
X110983410Y-92927573D01*
X110870142Y-93097091D01*
X110792121Y-93285449D01*
X110754815Y-93473000D01*
X107615521Y-93473000D01*
X107615000Y-93385750D01*
X107456250Y-93227000D01*
X106307000Y-93227000D01*
X106307000Y-93247000D01*
X106053000Y-93247000D01*
X106053000Y-93227000D01*
X104903750Y-93227000D01*
X104745000Y-93385750D01*
X104744479Y-93473000D01*
X99872347Y-93473000D01*
X99872347Y-93435408D01*
X99832573Y-93235449D01*
X99754552Y-93047091D01*
X99641284Y-92877573D01*
X99497121Y-92733410D01*
X99327603Y-92620142D01*
X99139245Y-92542121D01*
X98939286Y-92502347D01*
X98735408Y-92502347D01*
X98535449Y-92542121D01*
X98347091Y-92620142D01*
X98177573Y-92733410D01*
X98033410Y-92877573D01*
X97920142Y-93047091D01*
X97842121Y-93235449D01*
X97802347Y-93435408D01*
X97802347Y-93473000D01*
X86922347Y-93473000D01*
X86922347Y-93385408D01*
X86882573Y-93185449D01*
X86804552Y-92997091D01*
X86691284Y-92827573D01*
X86547121Y-92683410D01*
X86377603Y-92570142D01*
X86189245Y-92492121D01*
X85989286Y-92452347D01*
X85927148Y-92452347D01*
X85838802Y-92364001D01*
X85815000Y-92334998D01*
X85699275Y-92240025D01*
X85567246Y-92169453D01*
X85423985Y-92125996D01*
X85312332Y-92114999D01*
X85312321Y-92114999D01*
X85274999Y-92111323D01*
X85237677Y-92114999D01*
X72589321Y-92114999D01*
X72551998Y-92111323D01*
X72514675Y-92114999D01*
X72514666Y-92114999D01*
X72403013Y-92125996D01*
X72259752Y-92169453D01*
X72127723Y-92240025D01*
X72011998Y-92334998D01*
X71988200Y-92363996D01*
X70879196Y-93473000D01*
X65660000Y-93473000D01*
X65660000Y-81776521D01*
X86730979Y-81776521D01*
X86730979Y-82223479D01*
X86818176Y-82661849D01*
X86989220Y-83074785D01*
X87237536Y-83446417D01*
X87553583Y-83762464D01*
X87925215Y-84010780D01*
X88338151Y-84181824D01*
X88776521Y-84269021D01*
X89223479Y-84269021D01*
X89661849Y-84181824D01*
X90074785Y-84010780D01*
X90446417Y-83762464D01*
X90762464Y-83446417D01*
X91010780Y-83074785D01*
X91181824Y-82661849D01*
X91269021Y-82223479D01*
X91269021Y-81776521D01*
X91228746Y-81574042D01*
X123655000Y-81574042D01*
X123655000Y-81905958D01*
X123719754Y-82231496D01*
X123846772Y-82538147D01*
X124031175Y-82814125D01*
X124265875Y-83048825D01*
X124541853Y-83233228D01*
X124848504Y-83360246D01*
X125174042Y-83425000D01*
X125505958Y-83425000D01*
X125831496Y-83360246D01*
X126138147Y-83233228D01*
X126414125Y-83048825D01*
X126648825Y-82814125D01*
X126833228Y-82538147D01*
X126960246Y-82231496D01*
X127025000Y-81905958D01*
X127025000Y-81574042D01*
X126960246Y-81248504D01*
X126833228Y-80941853D01*
X126711386Y-80759504D01*
X126961963Y-80723501D01*
X127242474Y-80624572D01*
X127385975Y-80547868D01*
X127466635Y-80296240D01*
X126600000Y-79429605D01*
X126585858Y-79443748D01*
X126406253Y-79264143D01*
X126420395Y-79250000D01*
X126779605Y-79250000D01*
X127646240Y-80116635D01*
X127897868Y-80035975D01*
X128026267Y-79767671D01*
X128099855Y-79479474D01*
X128115804Y-79182457D01*
X128104140Y-79101278D01*
X129590000Y-79101278D01*
X129590000Y-79398722D01*
X129648029Y-79690451D01*
X129761856Y-79965253D01*
X129927107Y-80212569D01*
X130137431Y-80422893D01*
X130384747Y-80588144D01*
X130659549Y-80701971D01*
X130951278Y-80760000D01*
X130978283Y-80760000D01*
X130856772Y-80941853D01*
X130729754Y-81248504D01*
X130665000Y-81574042D01*
X130665000Y-81905958D01*
X130729754Y-82231496D01*
X130856772Y-82538147D01*
X131041175Y-82814125D01*
X131275875Y-83048825D01*
X131551853Y-83233228D01*
X131858504Y-83360246D01*
X132184042Y-83425000D01*
X132515958Y-83425000D01*
X132841496Y-83360246D01*
X133148147Y-83233228D01*
X133424125Y-83048825D01*
X133658825Y-82814125D01*
X133843228Y-82538147D01*
X133970246Y-82231496D01*
X134035000Y-81905958D01*
X134035000Y-81574042D01*
X134455000Y-81574042D01*
X134455000Y-81905958D01*
X134519754Y-82231496D01*
X134646772Y-82538147D01*
X134831175Y-82814125D01*
X135065875Y-83048825D01*
X135341853Y-83233228D01*
X135648504Y-83360246D01*
X135974042Y-83425000D01*
X136305958Y-83425000D01*
X136631496Y-83360246D01*
X136938147Y-83233228D01*
X137214125Y-83048825D01*
X137448825Y-82814125D01*
X137633228Y-82538147D01*
X137760246Y-82231496D01*
X137825000Y-81905958D01*
X137825000Y-81574042D01*
X137760246Y-81248504D01*
X137633228Y-80941853D01*
X137511386Y-80759504D01*
X137761963Y-80723501D01*
X138042474Y-80624572D01*
X138185975Y-80547868D01*
X138266635Y-80296240D01*
X137400000Y-79429605D01*
X137385858Y-79443748D01*
X137206253Y-79264143D01*
X137220395Y-79250000D01*
X137579605Y-79250000D01*
X138446240Y-80116635D01*
X138697868Y-80035975D01*
X138826267Y-79767671D01*
X138899855Y-79479474D01*
X138915804Y-79182457D01*
X138904140Y-79101278D01*
X140390000Y-79101278D01*
X140390000Y-79398722D01*
X140448029Y-79690451D01*
X140561856Y-79965253D01*
X140727107Y-80212569D01*
X140937431Y-80422893D01*
X141184747Y-80588144D01*
X141459549Y-80701971D01*
X141751278Y-80760000D01*
X141778283Y-80760000D01*
X141656772Y-80941853D01*
X141529754Y-81248504D01*
X141465000Y-81574042D01*
X141465000Y-81905958D01*
X141529754Y-82231496D01*
X141656772Y-82538147D01*
X141841175Y-82814125D01*
X142075875Y-83048825D01*
X142351853Y-83233228D01*
X142658504Y-83360246D01*
X142984042Y-83425000D01*
X143315958Y-83425000D01*
X143641496Y-83360246D01*
X143948147Y-83233228D01*
X144224125Y-83048825D01*
X144458825Y-82814125D01*
X144643228Y-82538147D01*
X144770246Y-82231496D01*
X144835000Y-81905958D01*
X144835000Y-81574042D01*
X150905000Y-81574042D01*
X150905000Y-81905958D01*
X150969754Y-82231496D01*
X151096772Y-82538147D01*
X151281175Y-82814125D01*
X151515875Y-83048825D01*
X151791853Y-83233228D01*
X152098504Y-83360246D01*
X152424042Y-83425000D01*
X152755958Y-83425000D01*
X153081496Y-83360246D01*
X153388147Y-83233228D01*
X153664125Y-83048825D01*
X153898825Y-82814125D01*
X154083228Y-82538147D01*
X154210246Y-82231496D01*
X154275000Y-81905958D01*
X154275000Y-81574042D01*
X154210246Y-81248504D01*
X154083228Y-80941853D01*
X153961386Y-80759504D01*
X154211963Y-80723501D01*
X154492474Y-80624572D01*
X154635975Y-80547868D01*
X154716635Y-80296240D01*
X153850000Y-79429605D01*
X153835858Y-79443748D01*
X153656253Y-79264143D01*
X153670395Y-79250000D01*
X154029605Y-79250000D01*
X154896240Y-80116635D01*
X155147868Y-80035975D01*
X155276267Y-79767671D01*
X155349855Y-79479474D01*
X155365804Y-79182457D01*
X155354140Y-79101278D01*
X156840000Y-79101278D01*
X156840000Y-79398722D01*
X156898029Y-79690451D01*
X157011856Y-79965253D01*
X157177107Y-80212569D01*
X157387431Y-80422893D01*
X157634747Y-80588144D01*
X157909549Y-80701971D01*
X158201278Y-80760000D01*
X158228283Y-80760000D01*
X158106772Y-80941853D01*
X157979754Y-81248504D01*
X157915000Y-81574042D01*
X157915000Y-81905958D01*
X157979754Y-82231496D01*
X158106772Y-82538147D01*
X158291175Y-82814125D01*
X158525875Y-83048825D01*
X158801853Y-83233228D01*
X159108504Y-83360246D01*
X159434042Y-83425000D01*
X159765958Y-83425000D01*
X160091496Y-83360246D01*
X160398147Y-83233228D01*
X160674125Y-83048825D01*
X160908825Y-82814125D01*
X161093228Y-82538147D01*
X161220246Y-82231496D01*
X161285000Y-81905958D01*
X161285000Y-81574042D01*
X161905000Y-81574042D01*
X161905000Y-81905958D01*
X161969754Y-82231496D01*
X162096772Y-82538147D01*
X162281175Y-82814125D01*
X162515875Y-83048825D01*
X162791853Y-83233228D01*
X163098504Y-83360246D01*
X163424042Y-83425000D01*
X163755958Y-83425000D01*
X164081496Y-83360246D01*
X164388147Y-83233228D01*
X164664125Y-83048825D01*
X164898825Y-82814125D01*
X165083228Y-82538147D01*
X165210246Y-82231496D01*
X165275000Y-81905958D01*
X165275000Y-81574042D01*
X165210246Y-81248504D01*
X165083228Y-80941853D01*
X164961386Y-80759504D01*
X165211963Y-80723501D01*
X165492474Y-80624572D01*
X165635975Y-80547868D01*
X165716635Y-80296240D01*
X164850000Y-79429605D01*
X164835858Y-79443748D01*
X164656253Y-79264143D01*
X164670395Y-79250000D01*
X165029605Y-79250000D01*
X165896240Y-80116635D01*
X166147868Y-80035975D01*
X166276267Y-79767671D01*
X166349855Y-79479474D01*
X166365804Y-79182457D01*
X166354140Y-79101278D01*
X167840000Y-79101278D01*
X167840000Y-79398722D01*
X167898029Y-79690451D01*
X168011856Y-79965253D01*
X168177107Y-80212569D01*
X168387431Y-80422893D01*
X168634747Y-80588144D01*
X168909549Y-80701971D01*
X169201278Y-80760000D01*
X169228283Y-80760000D01*
X169106772Y-80941853D01*
X168979754Y-81248504D01*
X168915000Y-81574042D01*
X168915000Y-81905958D01*
X168979754Y-82231496D01*
X169106772Y-82538147D01*
X169291175Y-82814125D01*
X169525875Y-83048825D01*
X169801853Y-83233228D01*
X170108504Y-83360246D01*
X170434042Y-83425000D01*
X170765958Y-83425000D01*
X171091496Y-83360246D01*
X171398147Y-83233228D01*
X171674125Y-83048825D01*
X171908825Y-82814125D01*
X172093228Y-82538147D01*
X172220246Y-82231496D01*
X172285000Y-81905958D01*
X172285000Y-81776521D01*
X204730979Y-81776521D01*
X204730979Y-82223479D01*
X204818176Y-82661849D01*
X204989220Y-83074785D01*
X205237536Y-83446417D01*
X205553583Y-83762464D01*
X205925215Y-84010780D01*
X206338151Y-84181824D01*
X206776521Y-84269021D01*
X207223479Y-84269021D01*
X207661849Y-84181824D01*
X208074785Y-84010780D01*
X208446417Y-83762464D01*
X208762464Y-83446417D01*
X209010780Y-83074785D01*
X209181824Y-82661849D01*
X209269021Y-82223479D01*
X209269021Y-81776521D01*
X209181824Y-81338151D01*
X209010780Y-80925215D01*
X208762464Y-80553583D01*
X208446417Y-80237536D01*
X208074785Y-79989220D01*
X207661849Y-79818176D01*
X207223479Y-79730979D01*
X206776521Y-79730979D01*
X206338151Y-79818176D01*
X205925215Y-79989220D01*
X205553583Y-80237536D01*
X205237536Y-80553583D01*
X204989220Y-80925215D01*
X204818176Y-81338151D01*
X204730979Y-81776521D01*
X172285000Y-81776521D01*
X172285000Y-81574042D01*
X172220246Y-81248504D01*
X172093228Y-80941853D01*
X171908825Y-80665875D01*
X171674125Y-80431175D01*
X171398147Y-80246772D01*
X171091496Y-80119754D01*
X170765958Y-80055000D01*
X170628177Y-80055000D01*
X170688144Y-79965253D01*
X170801971Y-79690451D01*
X170860000Y-79398722D01*
X170860000Y-79101278D01*
X170801971Y-78809549D01*
X170688144Y-78534747D01*
X170522893Y-78287431D01*
X170312569Y-78077107D01*
X170065253Y-77911856D01*
X169790451Y-77798029D01*
X169498722Y-77740000D01*
X169201278Y-77740000D01*
X168909549Y-77798029D01*
X168634747Y-77911856D01*
X168387431Y-78077107D01*
X168177107Y-78287431D01*
X168011856Y-78534747D01*
X167898029Y-78809549D01*
X167840000Y-79101278D01*
X166354140Y-79101278D01*
X166323501Y-78888037D01*
X166224572Y-78607526D01*
X166147868Y-78464025D01*
X165896240Y-78383365D01*
X165029605Y-79250000D01*
X164670395Y-79250000D01*
X163803760Y-78383365D01*
X163552132Y-78464025D01*
X163423733Y-78732329D01*
X163350145Y-79020526D01*
X163334196Y-79317543D01*
X163376499Y-79611963D01*
X163475428Y-79892474D01*
X163552132Y-80035975D01*
X163611483Y-80055000D01*
X163424042Y-80055000D01*
X163098504Y-80119754D01*
X162791853Y-80246772D01*
X162515875Y-80431175D01*
X162281175Y-80665875D01*
X162096772Y-80941853D01*
X161969754Y-81248504D01*
X161905000Y-81574042D01*
X161285000Y-81574042D01*
X161220246Y-81248504D01*
X161093228Y-80941853D01*
X160908825Y-80665875D01*
X160674125Y-80431175D01*
X160398147Y-80246772D01*
X160091496Y-80119754D01*
X159765958Y-80055000D01*
X159628177Y-80055000D01*
X159688144Y-79965253D01*
X159801971Y-79690451D01*
X159860000Y-79398722D01*
X159860000Y-79101278D01*
X159801971Y-78809549D01*
X159688144Y-78534747D01*
X159522893Y-78287431D01*
X159439222Y-78203760D01*
X163983365Y-78203760D01*
X164850000Y-79070395D01*
X165716635Y-78203760D01*
X165635975Y-77952132D01*
X165367671Y-77823733D01*
X165079474Y-77750145D01*
X164782457Y-77734196D01*
X164488037Y-77776499D01*
X164207526Y-77875428D01*
X164064025Y-77952132D01*
X163983365Y-78203760D01*
X159439222Y-78203760D01*
X159312569Y-78077107D01*
X159065253Y-77911856D01*
X158790451Y-77798029D01*
X158498722Y-77740000D01*
X158201278Y-77740000D01*
X157909549Y-77798029D01*
X157634747Y-77911856D01*
X157387431Y-78077107D01*
X157177107Y-78287431D01*
X157011856Y-78534747D01*
X156898029Y-78809549D01*
X156840000Y-79101278D01*
X155354140Y-79101278D01*
X155323501Y-78888037D01*
X155224572Y-78607526D01*
X155147868Y-78464025D01*
X154896240Y-78383365D01*
X154029605Y-79250000D01*
X153670395Y-79250000D01*
X152803760Y-78383365D01*
X152552132Y-78464025D01*
X152423733Y-78732329D01*
X152350145Y-79020526D01*
X152334196Y-79317543D01*
X152376499Y-79611963D01*
X152475428Y-79892474D01*
X152552132Y-80035975D01*
X152611483Y-80055000D01*
X152424042Y-80055000D01*
X152098504Y-80119754D01*
X151791853Y-80246772D01*
X151515875Y-80431175D01*
X151281175Y-80665875D01*
X151096772Y-80941853D01*
X150969754Y-81248504D01*
X150905000Y-81574042D01*
X144835000Y-81574042D01*
X144770246Y-81248504D01*
X144643228Y-80941853D01*
X144458825Y-80665875D01*
X144224125Y-80431175D01*
X143948147Y-80246772D01*
X143641496Y-80119754D01*
X143315958Y-80055000D01*
X143178177Y-80055000D01*
X143238144Y-79965253D01*
X143351971Y-79690451D01*
X143410000Y-79398722D01*
X143410000Y-79101278D01*
X143351971Y-78809549D01*
X143238144Y-78534747D01*
X143072893Y-78287431D01*
X142989222Y-78203760D01*
X152983365Y-78203760D01*
X153850000Y-79070395D01*
X154716635Y-78203760D01*
X154635975Y-77952132D01*
X154367671Y-77823733D01*
X154079474Y-77750145D01*
X153782457Y-77734196D01*
X153488037Y-77776499D01*
X153207526Y-77875428D01*
X153064025Y-77952132D01*
X152983365Y-78203760D01*
X142989222Y-78203760D01*
X142862569Y-78077107D01*
X142615253Y-77911856D01*
X142340451Y-77798029D01*
X142048722Y-77740000D01*
X141751278Y-77740000D01*
X141459549Y-77798029D01*
X141184747Y-77911856D01*
X140937431Y-78077107D01*
X140727107Y-78287431D01*
X140561856Y-78534747D01*
X140448029Y-78809549D01*
X140390000Y-79101278D01*
X138904140Y-79101278D01*
X138873501Y-78888037D01*
X138774572Y-78607526D01*
X138697868Y-78464025D01*
X138446240Y-78383365D01*
X137579605Y-79250000D01*
X137220395Y-79250000D01*
X136353760Y-78383365D01*
X136102132Y-78464025D01*
X135973733Y-78732329D01*
X135900145Y-79020526D01*
X135884196Y-79317543D01*
X135926499Y-79611963D01*
X136025428Y-79892474D01*
X136102132Y-80035975D01*
X136161483Y-80055000D01*
X135974042Y-80055000D01*
X135648504Y-80119754D01*
X135341853Y-80246772D01*
X135065875Y-80431175D01*
X134831175Y-80665875D01*
X134646772Y-80941853D01*
X134519754Y-81248504D01*
X134455000Y-81574042D01*
X134035000Y-81574042D01*
X133970246Y-81248504D01*
X133843228Y-80941853D01*
X133658825Y-80665875D01*
X133424125Y-80431175D01*
X133148147Y-80246772D01*
X132841496Y-80119754D01*
X132515958Y-80055000D01*
X132378177Y-80055000D01*
X132438144Y-79965253D01*
X132551971Y-79690451D01*
X132610000Y-79398722D01*
X132610000Y-79101278D01*
X132551971Y-78809549D01*
X132438144Y-78534747D01*
X132272893Y-78287431D01*
X132189222Y-78203760D01*
X136533365Y-78203760D01*
X137400000Y-79070395D01*
X138266635Y-78203760D01*
X138185975Y-77952132D01*
X137917671Y-77823733D01*
X137629474Y-77750145D01*
X137332457Y-77734196D01*
X137038037Y-77776499D01*
X136757526Y-77875428D01*
X136614025Y-77952132D01*
X136533365Y-78203760D01*
X132189222Y-78203760D01*
X132062569Y-78077107D01*
X131815253Y-77911856D01*
X131540451Y-77798029D01*
X131248722Y-77740000D01*
X130951278Y-77740000D01*
X130659549Y-77798029D01*
X130384747Y-77911856D01*
X130137431Y-78077107D01*
X129927107Y-78287431D01*
X129761856Y-78534747D01*
X129648029Y-78809549D01*
X129590000Y-79101278D01*
X128104140Y-79101278D01*
X128073501Y-78888037D01*
X127974572Y-78607526D01*
X127897868Y-78464025D01*
X127646240Y-78383365D01*
X126779605Y-79250000D01*
X126420395Y-79250000D01*
X125553760Y-78383365D01*
X125302132Y-78464025D01*
X125173733Y-78732329D01*
X125100145Y-79020526D01*
X125084196Y-79317543D01*
X125126499Y-79611963D01*
X125225428Y-79892474D01*
X125302132Y-80035975D01*
X125361483Y-80055000D01*
X125174042Y-80055000D01*
X124848504Y-80119754D01*
X124541853Y-80246772D01*
X124265875Y-80431175D01*
X124031175Y-80665875D01*
X123846772Y-80941853D01*
X123719754Y-81248504D01*
X123655000Y-81574042D01*
X91228746Y-81574042D01*
X91181824Y-81338151D01*
X91010780Y-80925215D01*
X90762464Y-80553583D01*
X90446417Y-80237536D01*
X90074785Y-79989220D01*
X89661849Y-79818176D01*
X89223479Y-79730979D01*
X88776521Y-79730979D01*
X88338151Y-79818176D01*
X87925215Y-79989220D01*
X87553583Y-80237536D01*
X87237536Y-80553583D01*
X86989220Y-80925215D01*
X86818176Y-81338151D01*
X86730979Y-81776521D01*
X65660000Y-81776521D01*
X65660000Y-78203760D01*
X125733365Y-78203760D01*
X126600000Y-79070395D01*
X127466635Y-78203760D01*
X127385975Y-77952132D01*
X127117671Y-77823733D01*
X126829474Y-77750145D01*
X126532457Y-77734196D01*
X126238037Y-77776499D01*
X125957526Y-77875428D01*
X125814025Y-77952132D01*
X125733365Y-78203760D01*
X65660000Y-78203760D01*
X65660000Y-77160000D01*
X230340000Y-77160000D01*
X230340000Y-93473000D01*
M02*
