G04 #@! TF.GenerationSoftware,KiCad,Pcbnew,(5.1.5-0-10_14)*
G04 #@! TF.CreationDate,2020-01-03T17:39:58-06:00*
G04 #@! TF.ProjectId,foxie_clock_nano,666f7869-655f-4636-9c6f-636b5f6e616e,1.4*
G04 #@! TF.SameCoordinates,Original*
G04 #@! TF.FileFunction,Soldermask,Bot*
G04 #@! TF.FilePolarity,Negative*
%FSLAX46Y46*%
G04 Gerber Fmt 4.6, Leading zero omitted, Abs format (unit mm)*
G04 Created by KiCad (PCBNEW (5.1.5-0-10_14)) date 2020-01-03 17:39:58*
%MOMM*%
%LPD*%
G04 APERTURE LIST*
%ADD10C,0.100000*%
G04 APERTURE END LIST*
D10*
G36*
X119128228Y-112601703D02*
G01*
X119283100Y-112665853D01*
X119422481Y-112758985D01*
X119541015Y-112877519D01*
X119634147Y-113016900D01*
X119698297Y-113171772D01*
X119731000Y-113336184D01*
X119731000Y-113503816D01*
X119698297Y-113668228D01*
X119634147Y-113823100D01*
X119541015Y-113962481D01*
X119422481Y-114081015D01*
X119283100Y-114174147D01*
X119128228Y-114238297D01*
X118963816Y-114271000D01*
X118796184Y-114271000D01*
X118631772Y-114238297D01*
X118476900Y-114174147D01*
X118337519Y-114081015D01*
X118218985Y-113962481D01*
X118125853Y-113823100D01*
X118061703Y-113668228D01*
X118029000Y-113503816D01*
X118029000Y-113336184D01*
X118061703Y-113171772D01*
X118125853Y-113016900D01*
X118218985Y-112877519D01*
X118337519Y-112758985D01*
X118476900Y-112665853D01*
X118631772Y-112601703D01*
X118796184Y-112569000D01*
X118963816Y-112569000D01*
X119128228Y-112601703D01*
G37*
G36*
X119128228Y-110061703D02*
G01*
X119283100Y-110125853D01*
X119422481Y-110218985D01*
X119541015Y-110337519D01*
X119634147Y-110476900D01*
X119698297Y-110631772D01*
X119731000Y-110796184D01*
X119731000Y-110963816D01*
X119698297Y-111128228D01*
X119634147Y-111283100D01*
X119541015Y-111422481D01*
X119422481Y-111541015D01*
X119283100Y-111634147D01*
X119128228Y-111698297D01*
X118963816Y-111731000D01*
X118796184Y-111731000D01*
X118631772Y-111698297D01*
X118476900Y-111634147D01*
X118337519Y-111541015D01*
X118218985Y-111422481D01*
X118125853Y-111283100D01*
X118061703Y-111128228D01*
X118029000Y-110963816D01*
X118029000Y-110796184D01*
X118061703Y-110631772D01*
X118125853Y-110476900D01*
X118218985Y-110337519D01*
X118337519Y-110218985D01*
X118476900Y-110125853D01*
X118631772Y-110061703D01*
X118796184Y-110029000D01*
X118963816Y-110029000D01*
X119128228Y-110061703D01*
G37*
G36*
X119128228Y-107521703D02*
G01*
X119283100Y-107585853D01*
X119422481Y-107678985D01*
X119541015Y-107797519D01*
X119634147Y-107936900D01*
X119698297Y-108091772D01*
X119731000Y-108256184D01*
X119731000Y-108423816D01*
X119698297Y-108588228D01*
X119634147Y-108743100D01*
X119541015Y-108882481D01*
X119422481Y-109001015D01*
X119283100Y-109094147D01*
X119128228Y-109158297D01*
X118963816Y-109191000D01*
X118796184Y-109191000D01*
X118631772Y-109158297D01*
X118476900Y-109094147D01*
X118337519Y-109001015D01*
X118218985Y-108882481D01*
X118125853Y-108743100D01*
X118061703Y-108588228D01*
X118029000Y-108423816D01*
X118029000Y-108256184D01*
X118061703Y-108091772D01*
X118125853Y-107936900D01*
X118218985Y-107797519D01*
X118337519Y-107678985D01*
X118476900Y-107585853D01*
X118631772Y-107521703D01*
X118796184Y-107489000D01*
X118963816Y-107489000D01*
X119128228Y-107521703D01*
G37*
G36*
X119128228Y-104981703D02*
G01*
X119283100Y-105045853D01*
X119422481Y-105138985D01*
X119541015Y-105257519D01*
X119634147Y-105396900D01*
X119698297Y-105551772D01*
X119731000Y-105716184D01*
X119731000Y-105883816D01*
X119698297Y-106048228D01*
X119634147Y-106203100D01*
X119541015Y-106342481D01*
X119422481Y-106461015D01*
X119283100Y-106554147D01*
X119128228Y-106618297D01*
X118963816Y-106651000D01*
X118796184Y-106651000D01*
X118631772Y-106618297D01*
X118476900Y-106554147D01*
X118337519Y-106461015D01*
X118218985Y-106342481D01*
X118125853Y-106203100D01*
X118061703Y-106048228D01*
X118029000Y-105883816D01*
X118029000Y-105716184D01*
X118061703Y-105551772D01*
X118125853Y-105396900D01*
X118218985Y-105257519D01*
X118337519Y-105138985D01*
X118476900Y-105045853D01*
X118631772Y-104981703D01*
X118796184Y-104949000D01*
X118963816Y-104949000D01*
X119128228Y-104981703D01*
G37*
G36*
X119128228Y-102441703D02*
G01*
X119283100Y-102505853D01*
X119422481Y-102598985D01*
X119541015Y-102717519D01*
X119634147Y-102856900D01*
X119698297Y-103011772D01*
X119731000Y-103176184D01*
X119731000Y-103343816D01*
X119698297Y-103508228D01*
X119634147Y-103663100D01*
X119541015Y-103802481D01*
X119422481Y-103921015D01*
X119283100Y-104014147D01*
X119128228Y-104078297D01*
X118963816Y-104111000D01*
X118796184Y-104111000D01*
X118631772Y-104078297D01*
X118476900Y-104014147D01*
X118337519Y-103921015D01*
X118218985Y-103802481D01*
X118125853Y-103663100D01*
X118061703Y-103508228D01*
X118029000Y-103343816D01*
X118029000Y-103176184D01*
X118061703Y-103011772D01*
X118125853Y-102856900D01*
X118218985Y-102717519D01*
X118337519Y-102598985D01*
X118476900Y-102505853D01*
X118631772Y-102441703D01*
X118796184Y-102409000D01*
X118963816Y-102409000D01*
X119128228Y-102441703D01*
G37*
G36*
X107031000Y-93951000D02*
G01*
X105329000Y-93951000D01*
X105329000Y-92249000D01*
X107031000Y-92249000D01*
X107031000Y-93951000D01*
G37*
G36*
X106428228Y-89741703D02*
G01*
X106583100Y-89805853D01*
X106722481Y-89898985D01*
X106841015Y-90017519D01*
X106934147Y-90156900D01*
X106998297Y-90311772D01*
X107031000Y-90476184D01*
X107031000Y-90643816D01*
X106998297Y-90808228D01*
X106934147Y-90963100D01*
X106841015Y-91102481D01*
X106722481Y-91221015D01*
X106583100Y-91314147D01*
X106428228Y-91378297D01*
X106263816Y-91411000D01*
X106096184Y-91411000D01*
X105931772Y-91378297D01*
X105776900Y-91314147D01*
X105637519Y-91221015D01*
X105518985Y-91102481D01*
X105425853Y-90963100D01*
X105361703Y-90808228D01*
X105329000Y-90643816D01*
X105329000Y-90476184D01*
X105361703Y-90311772D01*
X105425853Y-90156900D01*
X105518985Y-90017519D01*
X105637519Y-89898985D01*
X105776900Y-89805853D01*
X105931772Y-89741703D01*
X106096184Y-89709000D01*
X106263816Y-89709000D01*
X106428228Y-89741703D01*
G37*
G36*
X125554795Y-80660156D02*
G01*
X125661150Y-80681311D01*
X125761334Y-80722809D01*
X125861520Y-80764307D01*
X126041844Y-80884795D01*
X126195205Y-81038156D01*
X126315693Y-81218480D01*
X126398689Y-81418851D01*
X126441000Y-81631560D01*
X126441000Y-81848440D01*
X126398689Y-82061149D01*
X126315693Y-82261520D01*
X126195205Y-82441844D01*
X126041844Y-82595205D01*
X125861520Y-82715693D01*
X125661150Y-82798689D01*
X125554794Y-82819845D01*
X125448440Y-82841000D01*
X125231560Y-82841000D01*
X125125205Y-82819844D01*
X125018850Y-82798689D01*
X124818480Y-82715693D01*
X124638156Y-82595205D01*
X124484795Y-82441844D01*
X124364307Y-82261520D01*
X124281311Y-82061149D01*
X124239000Y-81848440D01*
X124239000Y-81631560D01*
X124281311Y-81418851D01*
X124364307Y-81218480D01*
X124484795Y-81038156D01*
X124638156Y-80884795D01*
X124818480Y-80764307D01*
X124918666Y-80722809D01*
X125018850Y-80681311D01*
X125125205Y-80660156D01*
X125231560Y-80639000D01*
X125448440Y-80639000D01*
X125554795Y-80660156D01*
G37*
G36*
X170814795Y-80660156D02*
G01*
X170921150Y-80681311D01*
X171021334Y-80722809D01*
X171121520Y-80764307D01*
X171301844Y-80884795D01*
X171455205Y-81038156D01*
X171575693Y-81218480D01*
X171658689Y-81418851D01*
X171701000Y-81631560D01*
X171701000Y-81848440D01*
X171658689Y-82061149D01*
X171575693Y-82261520D01*
X171455205Y-82441844D01*
X171301844Y-82595205D01*
X171121520Y-82715693D01*
X170921150Y-82798689D01*
X170814794Y-82819845D01*
X170708440Y-82841000D01*
X170491560Y-82841000D01*
X170385205Y-82819844D01*
X170278850Y-82798689D01*
X170078480Y-82715693D01*
X169898156Y-82595205D01*
X169744795Y-82441844D01*
X169624307Y-82261520D01*
X169541311Y-82061149D01*
X169499000Y-81848440D01*
X169499000Y-81631560D01*
X169541311Y-81418851D01*
X169624307Y-81218480D01*
X169744795Y-81038156D01*
X169898156Y-80884795D01*
X170078480Y-80764307D01*
X170178666Y-80722809D01*
X170278850Y-80681311D01*
X170385205Y-80660156D01*
X170491560Y-80639000D01*
X170708440Y-80639000D01*
X170814795Y-80660156D01*
G37*
G36*
X132564795Y-80660156D02*
G01*
X132671150Y-80681311D01*
X132771334Y-80722809D01*
X132871520Y-80764307D01*
X133051844Y-80884795D01*
X133205205Y-81038156D01*
X133325693Y-81218480D01*
X133408689Y-81418851D01*
X133451000Y-81631560D01*
X133451000Y-81848440D01*
X133408689Y-82061149D01*
X133325693Y-82261520D01*
X133205205Y-82441844D01*
X133051844Y-82595205D01*
X132871520Y-82715693D01*
X132671150Y-82798689D01*
X132564794Y-82819845D01*
X132458440Y-82841000D01*
X132241560Y-82841000D01*
X132135205Y-82819844D01*
X132028850Y-82798689D01*
X131828480Y-82715693D01*
X131648156Y-82595205D01*
X131494795Y-82441844D01*
X131374307Y-82261520D01*
X131291311Y-82061149D01*
X131249000Y-81848440D01*
X131249000Y-81631560D01*
X131291311Y-81418851D01*
X131374307Y-81218480D01*
X131494795Y-81038156D01*
X131648156Y-80884795D01*
X131828480Y-80764307D01*
X131928666Y-80722809D01*
X132028850Y-80681311D01*
X132135205Y-80660156D01*
X132241560Y-80639000D01*
X132458440Y-80639000D01*
X132564795Y-80660156D01*
G37*
G36*
X136354795Y-80660156D02*
G01*
X136461150Y-80681311D01*
X136561334Y-80722809D01*
X136661520Y-80764307D01*
X136841844Y-80884795D01*
X136995205Y-81038156D01*
X137115693Y-81218480D01*
X137198689Y-81418851D01*
X137241000Y-81631560D01*
X137241000Y-81848440D01*
X137198689Y-82061149D01*
X137115693Y-82261520D01*
X136995205Y-82441844D01*
X136841844Y-82595205D01*
X136661520Y-82715693D01*
X136461150Y-82798689D01*
X136354794Y-82819845D01*
X136248440Y-82841000D01*
X136031560Y-82841000D01*
X135925205Y-82819844D01*
X135818850Y-82798689D01*
X135618480Y-82715693D01*
X135438156Y-82595205D01*
X135284795Y-82441844D01*
X135164307Y-82261520D01*
X135081311Y-82061149D01*
X135039000Y-81848440D01*
X135039000Y-81631560D01*
X135081311Y-81418851D01*
X135164307Y-81218480D01*
X135284795Y-81038156D01*
X135438156Y-80884795D01*
X135618480Y-80764307D01*
X135718666Y-80722809D01*
X135818850Y-80681311D01*
X135925205Y-80660156D01*
X136031560Y-80639000D01*
X136248440Y-80639000D01*
X136354795Y-80660156D01*
G37*
G36*
X143364795Y-80660156D02*
G01*
X143471150Y-80681311D01*
X143571334Y-80722809D01*
X143671520Y-80764307D01*
X143851844Y-80884795D01*
X144005205Y-81038156D01*
X144125693Y-81218480D01*
X144208689Y-81418851D01*
X144251000Y-81631560D01*
X144251000Y-81848440D01*
X144208689Y-82061149D01*
X144125693Y-82261520D01*
X144005205Y-82441844D01*
X143851844Y-82595205D01*
X143671520Y-82715693D01*
X143471150Y-82798689D01*
X143364794Y-82819845D01*
X143258440Y-82841000D01*
X143041560Y-82841000D01*
X142935205Y-82819844D01*
X142828850Y-82798689D01*
X142628480Y-82715693D01*
X142448156Y-82595205D01*
X142294795Y-82441844D01*
X142174307Y-82261520D01*
X142091311Y-82061149D01*
X142049000Y-81848440D01*
X142049000Y-81631560D01*
X142091311Y-81418851D01*
X142174307Y-81218480D01*
X142294795Y-81038156D01*
X142448156Y-80884795D01*
X142628480Y-80764307D01*
X142728666Y-80722809D01*
X142828850Y-80681311D01*
X142935205Y-80660156D01*
X143041560Y-80639000D01*
X143258440Y-80639000D01*
X143364795Y-80660156D01*
G37*
G36*
X152804795Y-80660156D02*
G01*
X152911150Y-80681311D01*
X153011334Y-80722809D01*
X153111520Y-80764307D01*
X153291844Y-80884795D01*
X153445205Y-81038156D01*
X153565693Y-81218480D01*
X153648689Y-81418851D01*
X153691000Y-81631560D01*
X153691000Y-81848440D01*
X153648689Y-82061149D01*
X153565693Y-82261520D01*
X153445205Y-82441844D01*
X153291844Y-82595205D01*
X153111520Y-82715693D01*
X152911150Y-82798689D01*
X152804794Y-82819845D01*
X152698440Y-82841000D01*
X152481560Y-82841000D01*
X152375205Y-82819844D01*
X152268850Y-82798689D01*
X152068480Y-82715693D01*
X151888156Y-82595205D01*
X151734795Y-82441844D01*
X151614307Y-82261520D01*
X151531311Y-82061149D01*
X151489000Y-81848440D01*
X151489000Y-81631560D01*
X151531311Y-81418851D01*
X151614307Y-81218480D01*
X151734795Y-81038156D01*
X151888156Y-80884795D01*
X152068480Y-80764307D01*
X152168666Y-80722809D01*
X152268850Y-80681311D01*
X152375205Y-80660156D01*
X152481560Y-80639000D01*
X152698440Y-80639000D01*
X152804795Y-80660156D01*
G37*
G36*
X159814795Y-80660156D02*
G01*
X159921150Y-80681311D01*
X160021334Y-80722809D01*
X160121520Y-80764307D01*
X160301844Y-80884795D01*
X160455205Y-81038156D01*
X160575693Y-81218480D01*
X160658689Y-81418851D01*
X160701000Y-81631560D01*
X160701000Y-81848440D01*
X160658689Y-82061149D01*
X160575693Y-82261520D01*
X160455205Y-82441844D01*
X160301844Y-82595205D01*
X160121520Y-82715693D01*
X159921150Y-82798689D01*
X159814794Y-82819845D01*
X159708440Y-82841000D01*
X159491560Y-82841000D01*
X159385205Y-82819844D01*
X159278850Y-82798689D01*
X159078480Y-82715693D01*
X158898156Y-82595205D01*
X158744795Y-82441844D01*
X158624307Y-82261520D01*
X158541311Y-82061149D01*
X158499000Y-81848440D01*
X158499000Y-81631560D01*
X158541311Y-81418851D01*
X158624307Y-81218480D01*
X158744795Y-81038156D01*
X158898156Y-80884795D01*
X159078480Y-80764307D01*
X159178666Y-80722809D01*
X159278850Y-80681311D01*
X159385205Y-80660156D01*
X159491560Y-80639000D01*
X159708440Y-80639000D01*
X159814795Y-80660156D01*
G37*
G36*
X163804795Y-80660156D02*
G01*
X163911150Y-80681311D01*
X164011334Y-80722809D01*
X164111520Y-80764307D01*
X164291844Y-80884795D01*
X164445205Y-81038156D01*
X164565693Y-81218480D01*
X164648689Y-81418851D01*
X164691000Y-81631560D01*
X164691000Y-81848440D01*
X164648689Y-82061149D01*
X164565693Y-82261520D01*
X164445205Y-82441844D01*
X164291844Y-82595205D01*
X164111520Y-82715693D01*
X163911150Y-82798689D01*
X163804794Y-82819845D01*
X163698440Y-82841000D01*
X163481560Y-82841000D01*
X163375205Y-82819844D01*
X163268850Y-82798689D01*
X163068480Y-82715693D01*
X162888156Y-82595205D01*
X162734795Y-82441844D01*
X162614307Y-82261520D01*
X162531311Y-82061149D01*
X162489000Y-81848440D01*
X162489000Y-81631560D01*
X162531311Y-81418851D01*
X162614307Y-81218480D01*
X162734795Y-81038156D01*
X162888156Y-80884795D01*
X163068480Y-80764307D01*
X163168666Y-80722809D01*
X163268850Y-80681311D01*
X163375205Y-80660156D01*
X163481560Y-80639000D01*
X163698440Y-80639000D01*
X163804795Y-80660156D01*
G37*
G36*
X126870104Y-78359585D02*
G01*
X127038626Y-78429389D01*
X127190291Y-78530728D01*
X127319272Y-78659709D01*
X127420611Y-78811374D01*
X127490415Y-78979896D01*
X127526000Y-79158797D01*
X127526000Y-79341203D01*
X127490415Y-79520104D01*
X127420611Y-79688626D01*
X127319272Y-79840291D01*
X127190291Y-79969272D01*
X127038626Y-80070611D01*
X126870104Y-80140415D01*
X126691203Y-80176000D01*
X126508797Y-80176000D01*
X126329896Y-80140415D01*
X126161374Y-80070611D01*
X126009709Y-79969272D01*
X125880728Y-79840291D01*
X125779389Y-79688626D01*
X125709585Y-79520104D01*
X125674000Y-79341203D01*
X125674000Y-79158797D01*
X125709585Y-78979896D01*
X125779389Y-78811374D01*
X125880728Y-78659709D01*
X126009709Y-78530728D01*
X126161374Y-78429389D01*
X126329896Y-78359585D01*
X126508797Y-78324000D01*
X126691203Y-78324000D01*
X126870104Y-78359585D01*
G37*
G36*
X169620104Y-78359585D02*
G01*
X169788626Y-78429389D01*
X169940291Y-78530728D01*
X170069272Y-78659709D01*
X170170611Y-78811374D01*
X170240415Y-78979896D01*
X170276000Y-79158797D01*
X170276000Y-79341203D01*
X170240415Y-79520104D01*
X170170611Y-79688626D01*
X170069272Y-79840291D01*
X169940291Y-79969272D01*
X169788626Y-80070611D01*
X169620104Y-80140415D01*
X169441203Y-80176000D01*
X169258797Y-80176000D01*
X169079896Y-80140415D01*
X168911374Y-80070611D01*
X168759709Y-79969272D01*
X168630728Y-79840291D01*
X168529389Y-79688626D01*
X168459585Y-79520104D01*
X168424000Y-79341203D01*
X168424000Y-79158797D01*
X168459585Y-78979896D01*
X168529389Y-78811374D01*
X168630728Y-78659709D01*
X168759709Y-78530728D01*
X168911374Y-78429389D01*
X169079896Y-78359585D01*
X169258797Y-78324000D01*
X169441203Y-78324000D01*
X169620104Y-78359585D01*
G37*
G36*
X165120104Y-78359585D02*
G01*
X165288626Y-78429389D01*
X165440291Y-78530728D01*
X165569272Y-78659709D01*
X165670611Y-78811374D01*
X165740415Y-78979896D01*
X165776000Y-79158797D01*
X165776000Y-79341203D01*
X165740415Y-79520104D01*
X165670611Y-79688626D01*
X165569272Y-79840291D01*
X165440291Y-79969272D01*
X165288626Y-80070611D01*
X165120104Y-80140415D01*
X164941203Y-80176000D01*
X164758797Y-80176000D01*
X164579896Y-80140415D01*
X164411374Y-80070611D01*
X164259709Y-79969272D01*
X164130728Y-79840291D01*
X164029389Y-79688626D01*
X163959585Y-79520104D01*
X163924000Y-79341203D01*
X163924000Y-79158797D01*
X163959585Y-78979896D01*
X164029389Y-78811374D01*
X164130728Y-78659709D01*
X164259709Y-78530728D01*
X164411374Y-78429389D01*
X164579896Y-78359585D01*
X164758797Y-78324000D01*
X164941203Y-78324000D01*
X165120104Y-78359585D01*
G37*
G36*
X131370104Y-78359585D02*
G01*
X131538626Y-78429389D01*
X131690291Y-78530728D01*
X131819272Y-78659709D01*
X131920611Y-78811374D01*
X131990415Y-78979896D01*
X132026000Y-79158797D01*
X132026000Y-79341203D01*
X131990415Y-79520104D01*
X131920611Y-79688626D01*
X131819272Y-79840291D01*
X131690291Y-79969272D01*
X131538626Y-80070611D01*
X131370104Y-80140415D01*
X131191203Y-80176000D01*
X131008797Y-80176000D01*
X130829896Y-80140415D01*
X130661374Y-80070611D01*
X130509709Y-79969272D01*
X130380728Y-79840291D01*
X130279389Y-79688626D01*
X130209585Y-79520104D01*
X130174000Y-79341203D01*
X130174000Y-79158797D01*
X130209585Y-78979896D01*
X130279389Y-78811374D01*
X130380728Y-78659709D01*
X130509709Y-78530728D01*
X130661374Y-78429389D01*
X130829896Y-78359585D01*
X131008797Y-78324000D01*
X131191203Y-78324000D01*
X131370104Y-78359585D01*
G37*
G36*
X137670104Y-78359585D02*
G01*
X137838626Y-78429389D01*
X137990291Y-78530728D01*
X138119272Y-78659709D01*
X138220611Y-78811374D01*
X138290415Y-78979896D01*
X138326000Y-79158797D01*
X138326000Y-79341203D01*
X138290415Y-79520104D01*
X138220611Y-79688626D01*
X138119272Y-79840291D01*
X137990291Y-79969272D01*
X137838626Y-80070611D01*
X137670104Y-80140415D01*
X137491203Y-80176000D01*
X137308797Y-80176000D01*
X137129896Y-80140415D01*
X136961374Y-80070611D01*
X136809709Y-79969272D01*
X136680728Y-79840291D01*
X136579389Y-79688626D01*
X136509585Y-79520104D01*
X136474000Y-79341203D01*
X136474000Y-79158797D01*
X136509585Y-78979896D01*
X136579389Y-78811374D01*
X136680728Y-78659709D01*
X136809709Y-78530728D01*
X136961374Y-78429389D01*
X137129896Y-78359585D01*
X137308797Y-78324000D01*
X137491203Y-78324000D01*
X137670104Y-78359585D01*
G37*
G36*
X158620104Y-78359585D02*
G01*
X158788626Y-78429389D01*
X158940291Y-78530728D01*
X159069272Y-78659709D01*
X159170611Y-78811374D01*
X159240415Y-78979896D01*
X159276000Y-79158797D01*
X159276000Y-79341203D01*
X159240415Y-79520104D01*
X159170611Y-79688626D01*
X159069272Y-79840291D01*
X158940291Y-79969272D01*
X158788626Y-80070611D01*
X158620104Y-80140415D01*
X158441203Y-80176000D01*
X158258797Y-80176000D01*
X158079896Y-80140415D01*
X157911374Y-80070611D01*
X157759709Y-79969272D01*
X157630728Y-79840291D01*
X157529389Y-79688626D01*
X157459585Y-79520104D01*
X157424000Y-79341203D01*
X157424000Y-79158797D01*
X157459585Y-78979896D01*
X157529389Y-78811374D01*
X157630728Y-78659709D01*
X157759709Y-78530728D01*
X157911374Y-78429389D01*
X158079896Y-78359585D01*
X158258797Y-78324000D01*
X158441203Y-78324000D01*
X158620104Y-78359585D01*
G37*
G36*
X154120104Y-78359585D02*
G01*
X154288626Y-78429389D01*
X154440291Y-78530728D01*
X154569272Y-78659709D01*
X154670611Y-78811374D01*
X154740415Y-78979896D01*
X154776000Y-79158797D01*
X154776000Y-79341203D01*
X154740415Y-79520104D01*
X154670611Y-79688626D01*
X154569272Y-79840291D01*
X154440291Y-79969272D01*
X154288626Y-80070611D01*
X154120104Y-80140415D01*
X153941203Y-80176000D01*
X153758797Y-80176000D01*
X153579896Y-80140415D01*
X153411374Y-80070611D01*
X153259709Y-79969272D01*
X153130728Y-79840291D01*
X153029389Y-79688626D01*
X152959585Y-79520104D01*
X152924000Y-79341203D01*
X152924000Y-79158797D01*
X152959585Y-78979896D01*
X153029389Y-78811374D01*
X153130728Y-78659709D01*
X153259709Y-78530728D01*
X153411374Y-78429389D01*
X153579896Y-78359585D01*
X153758797Y-78324000D01*
X153941203Y-78324000D01*
X154120104Y-78359585D01*
G37*
G36*
X142170104Y-78359585D02*
G01*
X142338626Y-78429389D01*
X142490291Y-78530728D01*
X142619272Y-78659709D01*
X142720611Y-78811374D01*
X142790415Y-78979896D01*
X142826000Y-79158797D01*
X142826000Y-79341203D01*
X142790415Y-79520104D01*
X142720611Y-79688626D01*
X142619272Y-79840291D01*
X142490291Y-79969272D01*
X142338626Y-80070611D01*
X142170104Y-80140415D01*
X141991203Y-80176000D01*
X141808797Y-80176000D01*
X141629896Y-80140415D01*
X141461374Y-80070611D01*
X141309709Y-79969272D01*
X141180728Y-79840291D01*
X141079389Y-79688626D01*
X141009585Y-79520104D01*
X140974000Y-79341203D01*
X140974000Y-79158797D01*
X141009585Y-78979896D01*
X141079389Y-78811374D01*
X141180728Y-78659709D01*
X141309709Y-78530728D01*
X141461374Y-78429389D01*
X141629896Y-78359585D01*
X141808797Y-78324000D01*
X141991203Y-78324000D01*
X142170104Y-78359585D01*
G37*
M02*
