<?xml version="1.0" encoding="UTF-8" standalone="no"?>
<svg xmlns="http://www.w3.org/2000/svg" width="252.3000030517578mm" height="46mm" viewBox="0 0 252.3000030517578 46">
<desc>Created with Glowforge for Fusion 360. To download visit: https://cam.autodesk.com/hsmposts?p=glowforge</desc>
<!-- CAM Setup Info:
Work Area Width: 252.3000030517578mm
Work Area Height: 46mm
Work Area Too Small?: false
Stock box Upper Right: 124.1500015258789,21
Stock box Lower Left: -124.1500015258789,-21
Origin: 0,0
Selected Colors: #0000d3, #02abea, #1fb714, #dd0907, #f20884, #fbf305
-->
<g id="global-translation-frame" transform="translate(126.15, 23) scale(1, -1)">
<g id="opperation-1">
    <title>0-4 Edges (Op: 1/2)</title>
    <path d="M -99.061 17
             L -99.061 -17
             A 0.089 0.089 0 0 0 -99.15 -17.089
             L -105.061 -17.089
             L -105.061 -19
             A 1.089 1.089 0 0 0 -106.15 -20.089
             L -109.15 -20.089
             A 1.089 1.089 0 0 0 -110.239 -19
             L -110.239 -17.089
             L -118.061 -17.089
             L -118.061 -19
             A 1.089 1.089 0 0 0 -119.15 -20.089
             L -122.15 -20.089
             A 1.089 1.089 0 0 0 -123.239 -19
             L -123.239 17
             A 3.089 3.089 0 0 0 -120.15 20.089
             L -102.15 20.089
             A 3.089 3.089 0 0 0 -99.061 17
             M -74.361 17
             L -74.361 -19
             A 1.089 1.089 0 0 0 -75.45 -20.089
             L -78.45 -20.089
             A 1.089 1.089 0 0 0 -79.539 -19
             L -79.539 -17.089
             L -87.361 -17.089
             L -87.361 -19
             A 1.089 1.089 0 0 0 -88.45 -20.089
             L -91.45 -20.089
             A 1.089 1.089 0 0 0 -92.539 -19
             L -92.539 -17.089
             L -98.45 -17.089
             A 0.089 0.089 0 0 0 -98.539 -17
             L -98.539 17
             A 3.089 3.089 0 0 0 -95.45 20.089
             L -77.45 20.089
             A 3.089 3.089 0 0 0 -74.361 17
             M -49.661 17
             L -49.661 -17
             A 0.089 0.089 0 0 0 -49.75 -17.089
             L -55.661 -17.089
             L -55.661 -19
             A 1.089 1.089 0 0 0 -56.75 -20.089
             L -59.75 -20.089
             A 1.089 1.089 0 0 0 -60.839 -19
             L -60.839 -17.089
             L -68.661 -17.089
             L -68.661 -19
             A 1.089 1.089 0 0 0 -69.75 -20.089
             L -72.75 -20.089
             A 1.089 1.089 0 0 0 -73.839 -19
             L -73.839 17
             A 3.089 3.089 0 0 0 -70.75 20.089
             L -52.75 20.089
             A 3.089 3.089 0 0 0 -49.661 17
             M -24.961 17
             L -24.961 -19
             A 1.089 1.089 0 0 0 -26.05 -20.089
             L -29.05 -20.089
             A 1.089 1.089 0 0 0 -30.139 -19
             L -30.139 -17.089
             L -37.961 -17.089
             L -37.961 -19
             A 1.089 1.089 0 0 0 -39.05 -20.089
             L -42.05 -20.089
             A 1.089 1.089 0 0 0 -43.139 -19
             L -43.139 -17.089
             L -49.05 -17.089
             A 0.089 0.089 0 0 0 -49.139 -17
             L -49.139 17
             A 3.089 3.089 0 0 0 -46.05 20.089
             L -28.05 20.089
             A 3.089 3.089 0 0 0 -24.961 17
             M -24.439 17
             A 3.089 3.089 0 0 0 -21.35 20.089
             L -3.35 20.089
             A 3.089 3.089 0 0 0 -0.261 17
             L -0.261 -17
             A 0.089 0.089 0 0 0 -0.35 -17.089
             L -6.261 -17.089
             L -6.261 -19
             A 1.089 1.089 0 0 0 -7.35 -20.089
             L -10.35 -20.089
             A 1.089 1.089 0 0 0 -11.439 -19
             L -11.439 -17.089
             L -19.261 -17.089
             L -19.261 -19
             A 1.089 1.089 0 0 0 -20.35 -20.089
             L -23.35 -20.089
             A 1.089 1.089 0 0 0 -24.439 -19
             L -24.439 17" fill="none" stroke="#0000d3" stroke-width="0.1"/>
</g>
<g id="opperation-2">
    <title>0-4 Digits (Op: 2/2)</title>
    <path d="M -8.35 -4.5
             L -8.35 -11
             M -8.35 -4.5
             A 1 1 0 0 1 -9.35 -3.5
             M -8.35 14
             L -19.85 -3.5
             L -9.35 -3.5
             M -8.35 14
             L -8.35 -2.5
             A 1 1 0 0 1 -7.35 -3.5
             L -4.35 -3.5
             M -44.55 14
             L -29.55 14
             L -37.05 4
             M -44.55 -3.5
             A 7.5 7.5 0 0 1 -37.05 -11
             A 7.5 7.5 0 0 1 -29.55 -3.5
             A 7.5 7.5 0 0 1 -37.05 4
             M -54.25 -11
             L -69.25 -11
             L -56.578 1.069
             A 7.5 7.5 0 0 1 -56.319 11.672
             A 7.5 7.5 0 0 1 -66.922 11.931
             A 7.5 7.5 0 0 1 -69.25 6.5
             M -86.45 -11
             L -86.45 14
             L -89.985 10.464
             M -104.332 6.694
             L -104.388 6.908
             L -104.622 7.653
             L -104.88 8.359
             L -105.16 9.022
             L -105.46 9.644
             L -105.778 10.223
             L -106.112 10.76
             L -106.46 11.255
             L -106.821 11.707
             L -107.192 12.118
             L -107.574 12.487
             L -107.964 12.816
             L -108.361 13.103
             L -108.764 13.351
             L -109.173 13.558
             L -109.586 13.725
             L -110.001 13.853
             L -110.42 13.941
             L -110.839 13.989
             L -111.15 14
             L -111.57 13.98
             L -111.989 13.922
             L -112.405 13.824
             L -112.819 13.687
             L -113.229 13.51
             L -113.634 13.294
             L -114.033 13.039
             L -114.426 12.744
             L -114.811 12.41
             L -115.186 12.035
             L -115.552 11.621
             L -115.906 11.166
             L -116.247 10.67
             L -116.573 10.134
             L -116.884 9.558
             L -117.177 8.94
             L -117.45 8.283
             L -117.701 7.586
             L -117.928 6.85
             L -118.129 6.077
             L -118.301 5.27
             L -118.441 4.431
             L -118.547 3.566
             L -118.616 2.681
             L -118.648 1.782
             L -118.641 0.879
             L -118.594 -0.02
             L -118.51 -0.907
             L -118.388 -1.773
             L -118.233 -2.612
             L -118.045 -3.418
             L -117.829 -4.188
             L -117.586 -4.919
             L -117.319 -5.609
             L -117.031 -6.257
             L -116.724 -6.863
             L -116.4 -7.427
             L -116.061 -7.948
             L -115.708 -8.427
             L -115.343 -8.864
             L -114.968 -9.259
             L -114.583 -9.614
             L -114.19 -9.927
             L -113.791 -10.199
             L -113.385 -10.432
             L -112.975 -10.624
             L -112.561 -10.777
             L -112.144 -10.89
             L -111.725 -10.963
             L -111.305 -10.997
             L -110.885 -10.992
             L -110.466 -10.948
             L -110.049 -10.864
             L -109.634 -10.742
             L -109.222 -10.58
             L -108.815 -10.379
             L -108.414 -10.138
             L -108.018 -9.858
             L -107.631 -9.538
             L -107.252 -9.179
             L -106.882 -8.779
             L -106.524 -8.339
             L -106.178 -7.858
             L -105.846 -7.337
             L -105.529 -6.776
             L -105.229 -6.173
             L -104.949 -5.531
             L -104.689 -4.848
             L -104.453 -4.126
             L -104.242 -3.367
             L -104.059 -2.572
             L -103.907 -1.745
             L -103.788 -0.889
             L -103.705 -0.01
             L -103.659 0.884
             L -103.652 1.787
             L -103.684 2.689
             L -103.755 3.581
             L -103.863 4.456
             L -104.006 5.305
             L -104.182 6.124
             L -104.332 6.694" fill="none" stroke="#02abea" stroke-width="0.1"/>
</g>
</g>
</svg>
