<?xml version="1.0" encoding="UTF-8" standalone="no"?>
<svg xmlns="http://www.w3.org/2000/svg" width="172.5mm" height="62mm" viewBox="0 0 172.5 62">
<desc>Created with Glowforge for Fusion 360. To download visit: https://cam.autodesk.com/hsmposts?p=glowforge</desc>
<!-- CAM Setup Info:
Work Area Width: 172.5mm
Work Area Height: 62mm
Work Area Too Small?: false
Stock box Upper Right: 84.25,29
Stock box Lower Left: -84.25,-29
Origin: 0,0
Selected Colors: #0000d3, #02abea, #1fb714, #dd0907, #f20884, #fbf305
-->
<g id="global-translation-frame" transform="translate(86.25, 31) scale(1, 1)">
<g id="opperation-1">
    <title>2D Profile1 (Op: 1/2)</title>
    <path d="M 7.338 -5.973
             L 11.878 -5.973
             L 11.878 -4.527
             L 7.122 -4.527
             L 7.122 -5.973
             L 7.338 -5.973
             M 5.878 -9.27
             L 5.878 -8.027
             L 1.122 -8.027
             L 1.122 -9.473
             L 5.878 -9.473
             L 5.878 -9.27
             M 7.122 -12.23
             L 7.122 -13.473
             L 11.878 -13.473
             L 11.878 -12.027
             L 7.122 -12.027
             L 7.122 -12.23
             M 5.878 -15.973
             L 5.878 -15.527
             L 1.122 -15.527
             L 1.122 -16.973
             L 5.878 -16.973
             L 5.878 -15.973
             M 7.122 -19.743
             L 7.122 -20.973
             L 11.878 -20.973
             L 11.878 -19.527
             L 7.122 -19.527
             L 7.122 -19.743
             M 1.878 -23.027
             L 1.122 -23.027
             L 1.122 -24.473
             L 5.878 -24.473
             L 5.878 -23.027
             L 1.878 -23.027
             M -2.878 -20.973
             L -1.122 -20.973
             L -1.122 -19.527
             L -5.878 -19.527
             L -5.878 -20.973
             L -2.878 -20.973
             M -8.122 -23.027
             L -11.878 -23.027
             L -11.878 -24.473
             L -7.122 -24.473
             L -7.122 -23.027
             L -8.122 -23.027
             M -14.325 -20.973
             L -14.122 -20.973
             L -14.122 -19.527
             L -18.878 -19.527
             L -18.878 -20.973
             L -14.325 -20.973
             M -24.878 -23.243
             L -24.878 -24.473
             L -20.122 -24.473
             L -20.122 -23.027
             L -24.878 -23.027
             L -24.878 -23.243
             M -27.002 -22.75
             A 1.498 1.498 0 0 1 -28.5 -21.252
             A 1.498 1.498 0 0 1 -29.998 -22.75
             A 1.498 1.498 0 0 1 -28.5 -24.248
             A 1.498 1.498 0 0 1 -27.002 -22.75
             M -32.325 -20.973
             L -32.122 -20.973
             L -32.122 -19.527
             L -36.878 -19.527
             L -36.878 -20.973
             L -32.325 -20.973
             M -39.122 -23.027
             L -42.878 -23.027
             L -42.878 -24.473
             L -38.122 -24.473
             L -38.122 -23.027
             L -39.122 -23.027
             M -45.325 -20.973
             L -45.122 -20.973
             L -45.122 -19.527
             L -49.878 -19.527
             L -49.878 -20.973
             L -45.325 -20.973
             M -52.122 -23.027
             L -55.878 -23.027
             L -55.878 -24.473
             L -51.122 -24.473
             L -51.122 -23.027
             L -52.122 -23.027
             M -58.325 -20.973
             L -58.122 -20.973
             L -58.122 -19.527
             L -62.878 -19.527
             L -62.878 -20.973
             L -58.325 -20.973
             M -65.122 -23.027
             L -68.878 -23.027
             L -68.878 -24.473
             L -64.122 -24.473
             L -64.122 -23.027
             L -65.122 -23.027
             M -71.122 -20.757
             L -71.122 -19.527
             L -75.878 -19.527
             L -75.878 -20.973
             L -71.122 -20.973
             L -71.122 -20.757
             M -77.338 -23.027
             L -81.878 -23.027
             L -81.878 -24.473
             L -77.122 -24.473
             L -77.122 -23.027
             L -77.338 -23.027
             M -77.122 -16.757
             L -77.122 -15.527
             L -81.878 -15.527
             L -81.878 -16.973
             L -77.122 -16.973
             L -77.122 -16.757
             M -75.878 -13.027
             L -75.878 -13.473
             L -71.122 -13.473
             L -71.122 -12.027
             L -75.878 -12.027
             L -75.878 -13.027
             M -77.122 -9.27
             L -77.122 -8.027
             L -81.878 -8.027
             L -81.878 -9.473
             L -77.122 -9.473
             L -77.122 -9.27
             M -75.878 -5.527
             L -75.878 -5.973
             L -71.122 -5.973
             L -71.122 -4.527
             L -75.878 -4.527
             L -75.878 -5.527
             M -77.122 -1.758
             L -77.122 -0.527
             L -81.878 -0.527
             L -81.878 -1.973
             L -77.122 -1.973
             L -77.122 -1.758
             M -75.878 1.973
             L -75.878 1.527
             L -71.122 1.527
             L -71.122 2.973
             L -75.878 2.973
             L -75.878 1.973
             M -77.122 5.742
             L -77.122 6.973
             L -81.878 6.973
             L -81.878 5.527
             L -77.122 5.527
             L -77.122 5.742
             M -71.878 9.027
             L -71.122 9.027
             L -71.122 10.473
             L -75.878 10.473
             L -75.878 9.027
             L -71.878 9.027
             M -67.122 6.973
             L -68.878 6.973
             L -68.878 5.527
             L -64.122 5.527
             L -64.122 6.973
             L -67.122 6.973
             M -61.878 9.027
             L -58.122 9.027
             L -58.122 10.473
             L -62.878 10.473
             L -62.878 9.027
             L -61.878 9.027
             M -55.675 6.973
             L -55.878 6.973
             L -55.878 5.527
             L -51.122 5.527
             L -51.122 6.973
             L -55.675 6.973
             M -48.878 9.027
             L -45.122 9.027
             L -45.122 10.473
             L -49.878 10.473
             L -49.878 9.027
             L -48.878 9.027
             M -42.675 6.973
             L -42.878 6.973
             L -42.878 5.527
             L -38.122 5.527
             L -38.122 6.973
             L -42.675 6.973
             M -32.122 9.23
             L -32.122 10.473
             L -36.878 10.473
             L -36.878 9.027
             L -32.122 9.027
             L -32.122 9.23
             M -28.5 7.885
             A 1.865 1.865 0 0 1 -26.635 9.75
             A 1.865 1.865 0 0 1 -28.5 11.615
             A 1.865 1.865 0 0 1 -30.365 9.75
             A 1.865 1.865 0 0 1 -28.5 7.885
             M -24.878 6.758
             L -24.878 5.527
             L -20.122 5.527
             L -20.122 6.973
             L -24.878 6.973
             L -24.878 6.758
             M -17.878 9.027
             L -14.122 9.027
             L -14.122 10.473
             L -18.878 10.473
             L -18.878 9.027
             L -17.878 9.027
             M -11.675 6.973
             L -11.878 6.973
             L -11.878 5.527
             L -7.122 5.527
             L -7.122 6.973
             L -11.675 6.973
             M -4.878 9.027
             L -1.122 9.027
             L -1.122 10.473
             L -5.878 10.473
             L -5.878 9.027
             L -4.878 9.027
             M 1.122 6.758
             L 1.122 5.527
             L 5.878 5.527
             L 5.878 6.973
             L 1.122 6.973
             L 1.122 6.758
             M 8.122 9.027
             L 11.878 9.027
             L 11.878 10.473
             L 7.122 10.473
             L 7.122 9.027
             L 8.122 9.027
             M 14.325 6.973
             L 14.122 6.973
             L 14.122 5.527
             L 18.878 5.527
             L 18.878 6.973
             L 14.325 6.973
             M 24.878 9.23
             L 24.878 10.473
             L 20.122 10.473
             L 20.122 9.027
             L 24.878 9.027
             L 24.878 9.23
             M 28.5 7.885
             A 1.865 1.865 0 0 1 30.365 9.75
             A 1.865 1.865 0 0 1 28.5 11.615
             A 1.865 1.865 0 0 1 26.635 9.75
             A 1.865 1.865 0 0 1 28.5 7.885
             M 32.325 6.973
             L 32.122 6.973
             L 32.122 5.527
             L 36.878 5.527
             L 36.878 6.973
             L 32.325 6.973
             M 39.122 9.027
             L 42.878 9.027
             L 42.878 10.473
             L 38.122 10.473
             L 38.122 9.027
             L 39.122 9.027
             M 45.325 6.973
             L 45.122 6.973
             L 45.122 5.527
             L 49.878 5.527
             L 49.878 6.973
             L 45.325 6.973
             M 52.122 9.027
             L 55.878 9.027
             L 55.878 10.473
             L 51.122 10.473
             L 51.122 9.027
             L 52.122 9.027
             M 58.325 6.973
             L 58.122 6.973
             L 58.122 5.527
             L 62.878 5.527
             L 62.878 6.973
             L 58.325 6.973
             M 65.122 9.027
             L 68.878 9.027
             L 68.878 10.473
             L 64.122 10.473
             L 64.122 9.027
             L 65.122 9.027
             M 71.122 6.758
             L 71.122 5.527
             L 75.878 5.527
             L 75.878 6.973
             L 71.122 6.973
             L 71.122 6.758
             M 77.122 9.23
             L 77.122 9.027
             L 81.878 9.027
             L 81.878 10.473
             L 77.122 10.473
             L 77.122 9.23
             M 77.122 2.77
             L 77.122 1.527
             L 81.878 1.527
             L 81.878 2.973
             L 77.122 2.973
             L 77.122 2.77
             M 75.878 -0.973
             L 75.878 -0.527
             L 71.122 -0.527
             L 71.122 -1.973
             L 75.878 -1.973
             L 75.878 -0.973
             M 77.122 -4.742
             L 77.122 -5.973
             L 81.878 -5.973
             L 81.878 -4.527
             L 77.122 -4.527
             L 77.122 -4.742
             M 75.878 -8.473
             L 75.878 -8.027
             L 71.122 -8.027
             L 71.122 -9.473
             L 75.878 -9.473
             L 75.878 -8.473
             M 77.122 -12.23
             L 77.122 -13.473
             L 81.878 -13.473
             L 81.878 -12.027
             L 77.122 -12.027
             L 77.122 -12.23
             M 75.878 -15.973
             L 75.878 -15.527
             L 71.122 -15.527
             L 71.122 -16.973
             L 75.878 -16.973
             L 75.878 -15.973
             M 77.122 -19.743
             L 77.122 -20.973
             L 81.878 -20.973
             L 81.878 -19.527
             L 77.122 -19.527
             L 77.122 -19.743
             M 71.878 -23.027
             L 71.122 -23.027
             L 71.122 -24.473
             L 75.878 -24.473
             L 75.878 -23.027
             L 71.878 -23.027
             M 67.122 -20.973
             L 68.878 -20.973
             L 68.878 -19.527
             L 64.122 -19.527
             L 64.122 -20.973
             L 67.122 -20.973
             M 61.878 -23.027
             L 58.122 -23.027
             L 58.122 -24.473
             L 62.878 -24.473
             L 62.878 -23.027
             L 61.878 -23.027
             M 55.675 -20.973
             L 55.878 -20.973
             L 55.878 -19.527
             L 51.122 -19.527
             L 51.122 -20.973
             L 55.675 -20.973
             M 48.878 -23.027
             L 45.122 -23.027
             L 45.122 -24.473
             L 49.878 -24.473
             L 49.878 -23.027
             L 48.878 -23.027
             M 42.675 -20.973
             L 42.878 -20.973
             L 42.878 -19.527
             L 38.122 -19.527
             L 38.122 -20.973
             L 42.675 -20.973
             M 32.325 -23.027
             L 32.122 -23.027
             L 32.122 -24.473
             L 36.878 -24.473
             L 36.878 -23.027
             L 32.325 -23.027
             M 27.473 -21.573
             A 1.498 1.498 0 0 1 27.223 -23.677
             A 1.498 1.498 0 0 1 29.327 -23.927
             A 1.498 1.498 0 0 1 29.577 -21.823
             A 1.498 1.498 0 0 1 27.473 -21.573
             M 24.878 -20.757
             L 24.878 -19.527
             L 20.122 -19.527
             L 20.122 -20.973
             L 24.878 -20.973
             L 24.878 -20.757
             M 18.663 -23.027
             L 14.122 -23.027
             L 14.122 -24.473
             L 18.878 -24.473
             L 18.878 -23.027
             L 18.663 -23.027
             M 18.878 -16.757
             L 18.878 -15.527
             L 14.122 -15.527
             L 14.122 -16.973
             L 18.878 -16.973
             L 18.878 -16.757
             M 20.122 -13.027
             L 20.122 -13.473
             L 24.878 -13.473
             L 24.878 -12.027
             L 20.122 -12.027
             L 20.122 -13.027
             M 18.878 -9.27
             L 18.878 -8.027
             L 14.122 -8.027
             L 14.122 -9.473
             L 18.878 -9.473
             L 18.878 -9.27
             M 20.122 -5.527
             L 20.122 -5.973
             L 24.878 -5.973
             L 24.878 -4.527
             L 20.122 -4.527
             L 20.122 -5.527
             M 18.878 -1.758
             L 18.878 -0.527
             L 14.122 -0.527
             L 14.122 -1.973
             L 18.878 -1.973
             L 18.878 -1.758
             M 24.878 1.742
             L 24.878 2.973
             L 20.122 2.973
             L 20.122 1.527
             L 24.878 1.527
             L 24.878 1.742
             M 32.122 -0.73
             L 32.122 -1.973
             L 36.878 -1.973
             L 36.878 -0.527
             L 32.122 -0.527
             L 32.122 -0.73
             M 39.122 1.527
             L 42.878 1.527
             L 42.878 2.973
             L 38.122 2.973
             L 38.122 1.527
             L 39.122 1.527
             M 45.122 -0.73
             L 45.122 -1.973
             L 49.878 -1.973
             L 49.878 -0.527
             L 45.122 -0.527
             L 45.122 -0.73
             M 52.122 1.527
             L 55.878 1.527
             L 55.878 2.973
             L 51.122 2.973
             L 51.122 1.527
             L 52.122 1.527
             M 58.122 -0.73
             L 58.122 -1.973
             L 62.878 -1.973
             L 62.878 -0.527
             L 58.122 -0.527
             L 58.122 -0.73
             M 64.338 1.527
             L 68.878 1.527
             L 68.878 2.973
             L 64.122 2.973
             L 64.122 1.527
             L 64.338 1.527
             M 64.122 -4.742
             L 64.122 -5.973
             L 68.878 -5.973
             L 68.878 -4.527
             L 64.122 -4.527
             L 64.122 -4.742
             M 62.878 -8.473
             L 62.878 -8.027
             L 58.122 -8.027
             L 58.122 -9.473
             L 62.878 -9.473
             L 62.878 -8.473
             M 64.122 -12.23
             L 64.122 -13.473
             L 68.878 -13.473
             L 68.878 -12.027
             L 64.122 -12.027
             L 64.122 -12.23
             M 58.878 -15.527
             L 58.122 -15.527
             L 58.122 -16.973
             L 62.878 -16.973
             L 62.878 -15.527
             L 58.878 -15.527
             M 54.122 -13.473
             L 55.878 -13.473
             L 55.878 -12.027
             L 51.122 -12.027
             L 51.122 -13.473
             L 54.122 -13.473
             M 48.878 -15.527
             L 45.122 -15.527
             L 45.122 -16.973
             L 49.878 -16.973
             L 49.878 -15.527
             L 48.878 -15.527
             M 42.878 -13.27
             L 42.878 -12.027
             L 38.122 -12.027
             L 38.122 -13.473
             L 42.878 -13.473
             L 42.878 -13.27
             M 36.675 -15.527
             L 32.122 -15.527
             L 32.122 -16.973
             L 36.878 -16.973
             L 36.878 -15.527
             L 36.675 -15.527
             M 36.878 -9.27
             L 36.878 -8.027
             L 32.122 -8.027
             L 32.122 -9.473
             L 36.878 -9.473
             L 36.878 -9.27
             M 42.122 -5.973
             L 42.878 -5.973
             L 42.878 -4.527
             L 38.122 -4.527
             L 38.122 -5.973
             L 42.122 -5.973
             M 46.878 -8.027
             L 45.122 -8.027
             L 45.122 -9.473
             L 49.878 -9.473
             L 49.878 -8.027
             L 46.878 -8.027
             M 51.325 -4.527
             L 51.122 -4.527
             L 51.122 -5.973
             L 55.878 -5.973
             L 55.878 -4.527
             L 51.325 -4.527
             M 57.823 21.323
             A 1.498 1.498 0 0 1 59.927 21.073
             A 1.498 1.498 0 0 1 60.177 23.177
             A 1.498 1.498 0 0 1 58.073 23.427
             A 1.498 1.498 0 0 1 57.823 21.323
             M 53 20.348
             A 3.298 3.298 0 0 1 49.702 17.05
             A 3.298 3.298 0 0 1 53 13.752
             A 3.298 3.298 0 0 1 56.298 17.05
             A 3.298 3.298 0 0 1 53 20.348
             M 17.88 14.34
             A 3.298 3.298 0 0 1 18.71 18.93
             A 3.298 3.298 0 0 1 14.12 19.76
             A 3.298 3.298 0 0 1 13.29 15.17
             A 3.298 3.298 0 0 1 17.88 14.34
             M 8.878 2.973
             L 7.122 2.973
             L 7.122 1.527
             L 11.878 1.527
             L 11.878 2.973
             L 8.878 2.973
             M 2.878 -0.527
             L 1.122 -0.527
             L 1.122 -1.973
             L 5.878 -1.973
             L 5.878 -0.527
             L 2.878 -0.527
             M -1.878 1.527
             L -1.122 1.527
             L -1.122 2.973
             L -5.878 2.973
             L -5.878 1.527
             L -1.878 1.527
             M -7.122 -1.758
             L -7.122 -0.527
             L -11.878 -0.527
             L -11.878 -1.973
             L -7.122 -1.973
             L -7.122 -1.758
             M -5.878 -4.742
             L -5.878 -5.973
             L -1.122 -5.973
             L -1.122 -4.527
             L -5.878 -4.527
             L -5.878 -4.742
             M -7.122 -8.473
             L -7.122 -8.027
             L -11.878 -8.027
             L -11.878 -9.473
             L -7.122 -9.473
             L -7.122 -8.473
             M -5.878 -12.23
             L -5.878 -13.473
             L -1.122 -13.473
             L -1.122 -12.027
             L -5.878 -12.027
             L -5.878 -12.23
             M -11.122 -15.527
             L -11.878 -15.527
             L -11.878 -16.973
             L -7.122 -16.973
             L -7.122 -15.527
             L -11.122 -15.527
             M -15.878 -13.473
             L -14.122 -13.473
             L -14.122 -12.027
             L -18.878 -12.027
             L -18.878 -13.473
             L -15.878 -13.473
             M -20.122 -15.73
             L -20.122 -15.527
             L -24.878 -15.527
             L -24.878 -16.973
             L -20.122 -16.973
             L -20.122 -15.73
             M -20.122 -9.27
             L -20.122 -8.027
             L -24.878 -8.027
             L -24.878 -9.473
             L -20.122 -9.473
             L -20.122 -9.27
             M -18.878 -5.527
             L -18.878 -5.973
             L -14.122 -5.973
             L -14.122 -4.527
             L -18.878 -4.527
             L -18.878 -5.527
             M -20.122 -1.758
             L -20.122 -0.527
             L -24.878 -0.527
             L -24.878 -1.973
             L -20.122 -1.973
             L -20.122 -1.758
             M -18.663 1.527
             L -14.122 1.527
             L -14.122 2.973
             L -18.878 2.973
             L -18.878 1.527
             L -18.663 1.527
             M -32.325 1.527
             L -32.122 1.527
             L -32.122 2.973
             L -36.878 2.973
             L -36.878 1.527
             L -32.325 1.527
             M -38.325 -1.973
             L -38.122 -1.973
             L -38.122 -0.527
             L -42.878 -0.527
             L -42.878 -1.973
             L -38.325 -1.973
             M -36.878 -5.527
             L -36.878 -5.973
             L -32.122 -5.973
             L -32.122 -4.527
             L -36.878 -4.527
             L -36.878 -5.527
             M -38.122 -8.473
             L -38.122 -8.027
             L -42.878 -8.027
             L -42.878 -9.473
             L -38.122 -9.473
             L -38.122 -8.473
             M -36.878 -12.23
             L -36.878 -13.473
             L -32.122 -13.473
             L -32.122 -12.027
             L -36.878 -12.027
             L -36.878 -12.23
             M -42.122 -15.527
             L -42.878 -15.527
             L -42.878 -16.973
             L -38.122 -16.973
             L -38.122 -15.527
             L -42.122 -15.527
             M -46.878 -13.473
             L -45.122 -13.473
             L -45.122 -12.027
             L -49.878 -12.027
             L -49.878 -13.473
             L -46.878 -13.473
             M -52.122 -15.527
             L -55.878 -15.527
             L -55.878 -16.973
             L -51.122 -16.973
             L -51.122 -15.527
             L -52.122 -15.527
             M -58.122 -13.27
             L -58.122 -12.027
             L -62.878 -12.027
             L -62.878 -13.473
             L -58.122 -13.473
             L -58.122 -13.27
             M -64.122 -15.73
             L -64.122 -15.527
             L -68.878 -15.527
             L -68.878 -16.973
             L -64.122 -16.973
             L -64.122 -15.73
             M -64.122 -9.27
             L -64.122 -8.027
             L -68.878 -8.027
             L -68.878 -9.473
             L -64.122 -9.473
             L -64.122 -9.27
             M -62.878 -5.527
             L -62.878 -5.973
             L -58.122 -5.973
             L -58.122 -4.527
             L -62.878 -4.527
             L -62.878 -5.527
             M -64.122 -1.758
             L -64.122 -0.527
             L -68.878 -0.527
             L -68.878 -1.973
             L -64.122 -1.973
             L -64.122 -1.758
             M -58.878 1.527
             L -58.122 1.527
             L -58.122 2.973
             L -62.878 2.973
             L -62.878 1.527
             L -58.878 1.527
             M -54.122 -0.527
             L -55.878 -0.527
             L -55.878 -1.973
             L -51.122 -1.973
             L -51.122 -0.527
             L -54.122 -0.527
             M -49.675 1.527
             L -45.122 1.527
             L -45.122 2.973
             L -49.878 2.973
             L -49.878 1.527
             L -49.675 1.527
             M -49.675 -4.527
             L -49.878 -4.527
             L -49.878 -5.973
             L -45.122 -5.973
             L -45.122 -4.527
             L -49.675 -4.527
             M -51.325 -8.027
             L -55.878 -8.027
             L -55.878 -9.473
             L -51.122 -9.473
             L -51.122 -8.027
             L -51.325 -8.027
             M -58.073 21.073
             A 1.498 1.498 0 0 1 -57.823 23.177
             A 1.498 1.498 0 0 1 -59.927 23.427
             A 1.498 1.498 0 0 1 -60.177 21.323
             A 1.498 1.498 0 0 1 -58.073 21.073
             M -53.619 20.343
             A 3.298 3.298 0 0 1 -57.093 17.231
             A 3.298 3.298 0 0 1 -53.981 13.757
             A 3.298 3.298 0 0 1 -50.507 16.869
             A 3.298 3.298 0 0 1 -53.619 20.343
             M -20.185 17.345
             A 3.298 3.298 0 0 1 -17.195 13.765
             A 3.298 3.298 0 0 1 -13.615 16.755
             A 3.298 3.298 0 0 1 -16.605 20.335
             A 3.298 3.298 0 0 1 -20.185 17.345" fill="none" stroke="#0000d3" stroke-width="0.1"/>
</g>
<g id="opperation-2">
    <title>2D Profile3 (Op: 2/2)</title>
    <path d="M -82.65 -28.102
             A 0.702 0.702 0 0 0 -83.352 -27.4
             L -83.352 27.4
             A 0.702 0.702 0 0 0 -82.65 28.102
             L 82.65 28.102
             A 0.702 0.702 0 0 0 83.352 27.4
             L 83.352 -27.4
             A 0.702 0.702 0 0 0 82.65 -28.102
             L -82.65 -28.102" fill="none" stroke="#02abea" stroke-width="0.1"/>
</g>
</g>
</svg>
