<?xml version="1.0" encoding="UTF-8" standalone="no"?>
<svg xmlns="http://www.w3.org/2000/svg" width="252.3000030517578mm" height="46mm" viewBox="0 0 252.3000030517578 46">
<desc>Created with Glowforge for Fusion 360. To download visit: https://cam.autodesk.com/hsmposts?p=glowforge</desc>
<!-- CAM Setup Info:
Work Area Width: 252.3000030517578mm
Work Area Height: 46mm
Work Area Too Small?: false
Stock box Upper Right: 124.1500015258789,21
Stock box Lower Left: -124.1500015258789,-21
Origin: 0,0
Selected Colors: #0000d3, #02abea, #1fb714, #dd0907, #f20884, #fbf305
-->
<g id="global-translation-frame" transform="translate(126.15, 23) scale(1, -1)">
<g id="opperation-1">
    <title>5-9 Edges (Op: 1/2)</title>
    <path d="M 99.061 -17
             L 99.061 17
             A 3.089 3.089 0 0 0 102.15 20.089
             L 120.15 20.089
             A 3.089 3.089 0 0 0 123.239 17
             L 123.239 -19
             A 1.089 1.089 0 0 0 122.15 -20.089
             L 119.15 -20.089
             A 1.089 1.089 0 0 0 118.061 -19
             L 118.061 -17.089
             L 110.239 -17.089
             L 110.239 -19
             A 1.089 1.089 0 0 0 109.15 -20.089
             L 106.15 -20.089
             A 1.089 1.089 0 0 0 105.061 -19
             L 105.061 -17.089
             L 99.15 -17.089
             A 0.089 0.089 0 0 0 99.061 -17
             M 74.361 -17
             L 74.361 17
             A 3.089 3.089 0 0 0 77.45 20.089
             L 95.45 20.089
             A 3.089 3.089 0 0 0 98.539 17
             L 98.539 -17
             A 0.089 0.089 0 0 0 98.45 -17.089
             L 92.539 -17.089
             L 92.539 -19
             A 1.089 1.089 0 0 0 91.45 -20.089
             L 88.45 -20.089
             A 1.089 1.089 0 0 0 87.361 -19
             L 87.361 -17.089
             L 79.539 -17.089
             L 79.539 -19
             A 1.089 1.089 0 0 0 78.45 -20.089
             L 75.45 -20.089
             A 1.089 1.089 0 0 0 74.361 -19
             L 74.361 -17
             M 49.661 -17
             L 49.661 17
             A 3.089 3.089 0 0 0 52.75 20.089
             L 70.75 20.089
             A 3.089 3.089 0 0 0 73.839 17
             L 73.839 -19
             A 1.089 1.089 0 0 0 72.75 -20.089
             L 69.75 -20.089
             A 1.089 1.089 0 0 0 68.661 -19
             L 68.661 -17.089
             L 60.839 -17.089
             L 60.839 -19
             A 1.089 1.089 0 0 0 59.75 -20.089
             L 56.75 -20.089
             A 1.089 1.089 0 0 0 55.661 -19
             L 55.661 -17.089
             L 49.75 -17.089
             A 0.089 0.089 0 0 0 49.661 -17
             M 24.961 -17
             L 24.961 17
             A 3.089 3.089 0 0 0 28.05 20.089
             L 46.05 20.089
             A 3.089 3.089 0 0 0 49.139 17
             L 49.139 -17
             A 0.089 0.089 0 0 0 49.05 -17.089
             L 43.139 -17.089
             L 43.139 -19
             A 1.089 1.089 0 0 0 42.05 -20.089
             L 39.05 -20.089
             A 1.089 1.089 0 0 0 37.961 -19
             L 37.961 -17.089
             L 30.139 -17.089
             L 30.139 -19
             A 1.089 1.089 0 0 0 29.05 -20.089
             L 26.05 -20.089
             A 1.089 1.089 0 0 0 24.961 -19
             L 24.961 -17
             M 24.439 -17
             L 24.439 -19
             A 1.089 1.089 0 0 0 23.35 -20.089
             L 20.35 -20.089
             A 1.089 1.089 0 0 0 19.261 -19
             L 19.261 -17.089
             L 11.439 -17.089
             L 11.439 -19
             A 1.089 1.089 0 0 0 10.35 -20.089
             L 7.35 -20.089
             A 1.089 1.089 0 0 0 6.261 -19
             L 6.261 -17.089
             L 0.35 -17.089
             A 0.089 0.089 0 0 0 0.261 -17
             L 0.261 17
             A 3.089 3.089 0 0 0 3.35 20.089
             L 21.35 20.089
             A 3.089 3.089 0 0 0 24.439 17
             L 24.439 -17" fill="none" stroke="#0000d3" stroke-width="0.1"/>
</g>
<g id="opperation-2">
    <title>5-9 Digits (Op: 2/2)</title>
    <path d="M 5.85 14
             L 18.85 14
             M 5.85 14
             L 5.85 4
             M 4.85 -3.5
             A 7.5 7.5 0 0 1 12.35 -11
             A 7.5 7.5 0 0 1 19.85 -3.5
             A 7.5 7.5 0 0 1 12.35 4
             L 5.85 4
             M 31.106 1.073
             L 31.097 1.062
             A 7.5 7.5 0 0 1 32.488 -9.453
             A 7.5 7.5 0 0 1 41.01 -9.869
             A 7.5 7.5 0 0 1 43.419 0.46
             A 7.5 7.5 0 0 1 35.038 3.725
             M 31.46 1.5
             A 7.5 7.5 0 0 1 31.151 1.132
             L 31.106 1.073
             M 41.05 14
             L 31.106 1.074
             M 54.25 14
             L 69.25 14
             L 61.75 -11
             M 86.45 -11
             A 7 7 0 0 1 93.45 -4
             A 7 7 0 0 1 87.561 2.911
             A 5.6 5.6 0 0 1 91.939 9.511
             A 5.6 5.6 0 0 1 85.339 13.889
             A 5.6 5.6 0 0 1 80.961 7.289
             A 5.6 5.6 0 0 1 85.339 2.911
             A 7 7 0 0 1 79.539 -5.111
             A 7 7 0 0 1 86.45 -11
             M 107.15 -11
             L 117.095 1.927
             M 116.74 1.5
             A 7.5 7.5 0 0 1 116.15 12.09
             A 7.5 7.5 0 0 1 105.559 11.5
             A 7.5 7.5 0 0 1 106.15 0.91
             A 7.5 7.5 0 0 1 113.162 -0.725" fill="none" stroke="#02abea" stroke-width="0.1"/>
</g>
</g>
</svg>
