<?xml version="1.0" encoding="UTF-8" standalone="no"?>
<svg xmlns="http://www.w3.org/2000/svg" width="172.5mm" height="62mm" viewBox="0 0 172.5 62">
<desc>Created with Glowforge for Fusion 360. To download visit: https://cam.autodesk.com/hsmposts?p=glowforge</desc>
<!-- CAM Setup Info:
Work Area Width: 172.5mm
Work Area Height: 62mm
Work Area Too Small?: false
Stock box Upper Right: 84.25,29
Stock box Lower Left: -84.25,-29
Origin: 0,0
Selected Colors: #0000d3, #02abea, #1fb714, #dd0907, #f20884, #fbf305
-->
<g id="global-translation-frame" transform="translate(86.25, 31) scale(1, 1)">
<g id="opperation-1">
    <title>2D Profile1 (Op: 1/2)</title>
    <path d="M 7.318 -6.048
             L 11.898 -6.048
             L 11.898 -4.452
             L 7.102 -4.452
             L 7.102 -6.048
             L 7.318 -6.048
             M 5.898 -9.345
             L 5.898 -7.952
             L 1.102 -7.952
             L 1.102 -9.548
             L 5.898 -9.548
             L 5.898 -9.345
             M 7.102 -12.155
             L 7.102 -13.548
             L 11.898 -13.548
             L 11.898 -11.952
             L 7.102 -11.952
             L 7.102 -12.155
             M 5.898 -16.048
             L 5.898 -15.452
             L 1.102 -15.452
             L 1.102 -17.048
             L 5.898 -17.048
             L 5.898 -16.048
             M 7.102 -19.667
             L 7.102 -21.048
             L 11.898 -21.048
             L 11.898 -19.452
             L 7.102 -19.452
             L 7.102 -19.667
             M 1.898 -22.952
             L 1.102 -22.952
             L 1.102 -24.548
             L 5.898 -24.548
             L 5.898 -22.952
             L 1.898 -22.952
             M -2.898 -21.048
             L -1.102 -21.048
             L -1.102 -19.452
             L -5.898 -19.452
             L -5.898 -21.048
             L -2.898 -21.048
             M -8.102 -22.952
             L -11.898 -22.952
             L -11.898 -24.548
             L -7.102 -24.548
             L -7.102 -22.952
             L -8.102 -22.952
             M -14.305 -21.048
             L -14.102 -21.048
             L -14.102 -19.452
             L -18.898 -19.452
             L -18.898 -21.048
             L -14.305 -21.048
             M -24.898 -23.167
             L -24.898 -24.548
             L -20.102 -24.548
             L -20.102 -22.952
             L -24.898 -22.952
             L -24.898 -23.167
             M -27.002 -22.75
             A 1.498 1.498 0 0 1 -28.5 -21.252
             A 1.498 1.498 0 0 1 -29.998 -22.75
             A 1.498 1.498 0 0 1 -28.5 -24.248
             A 1.498 1.498 0 0 1 -27.002 -22.75
             M -32.305 -21.048
             L -32.102 -21.048
             L -32.102 -19.452
             L -36.898 -19.452
             L -36.898 -21.048
             L -32.305 -21.048
             M -39.102 -22.952
             L -42.898 -22.952
             L -42.898 -24.548
             L -38.102 -24.548
             L -38.102 -22.952
             L -39.102 -22.952
             M -45.305 -21.048
             L -45.102 -21.048
             L -45.102 -19.452
             L -49.898 -19.452
             L -49.898 -21.048
             L -45.305 -21.048
             M -52.102 -22.952
             L -55.898 -22.952
             L -55.898 -24.548
             L -51.102 -24.548
             L -51.102 -22.952
             L -52.102 -22.952
             M -58.305 -21.048
             L -58.102 -21.048
             L -58.102 -19.452
             L -62.898 -19.452
             L -62.898 -21.048
             L -58.305 -21.048
             M -65.102 -22.952
             L -68.898 -22.952
             L -68.898 -24.548
             L -64.102 -24.548
             L -64.102 -22.952
             L -65.102 -22.952
             M -71.102 -20.833
             L -71.102 -19.452
             L -75.898 -19.452
             L -75.898 -21.048
             L -71.102 -21.048
             L -71.102 -20.833
             M -77.317 -22.952
             L -81.898 -22.952
             L -81.898 -24.548
             L -77.102 -24.548
             L -77.102 -22.952
             L -77.317 -22.952
             M -77.102 -16.833
             L -77.102 -15.452
             L -81.898 -15.452
             L -81.898 -17.048
             L -77.102 -17.048
             L -77.102 -16.833
             M -75.898 -12.952
             L -75.898 -13.548
             L -71.102 -13.548
             L -71.102 -11.952
             L -75.898 -11.952
             L -75.898 -12.952
             M -77.102 -9.345
             L -77.102 -7.952
             L -81.898 -7.952
             L -81.898 -9.548
             L -77.102 -9.548
             L -77.102 -9.345
             M -75.898 -5.452
             L -75.898 -6.048
             L -71.102 -6.048
             L -71.102 -4.452
             L -75.898 -4.452
             L -75.898 -5.452
             M -77.102 -1.832
             L -77.102 -0.452
             L -81.898 -0.452
             L -81.898 -2.048
             L -77.102 -2.048
             L -77.102 -1.832
             M -75.898 2.048
             L -75.898 1.452
             L -71.102 1.452
             L -71.102 3.048
             L -75.898 3.048
             L -75.898 2.048
             M -77.102 5.668
             L -77.102 7.048
             L -81.898 7.048
             L -81.898 5.452
             L -77.102 5.452
             L -77.102 5.668
             M -71.898 8.952
             L -71.102 8.952
             L -71.102 10.548
             L -75.898 10.548
             L -75.898 8.952
             L -71.898 8.952
             M -67.102 7.048
             L -68.898 7.048
             L -68.898 5.452
             L -64.102 5.452
             L -64.102 7.048
             L -67.102 7.048
             M -61.898 8.952
             L -58.102 8.952
             L -58.102 10.548
             L -62.898 10.548
             L -62.898 8.952
             L -61.898 8.952
             M -55.695 7.048
             L -55.898 7.048
             L -55.898 5.452
             L -51.102 5.452
             L -51.102 7.048
             L -55.695 7.048
             M -48.898 8.952
             L -45.102 8.952
             L -45.102 10.548
             L -49.898 10.548
             L -49.898 8.952
             L -48.898 8.952
             M -42.695 7.048
             L -42.898 7.048
             L -42.898 5.452
             L -38.102 5.452
             L -38.102 7.048
             L -42.695 7.048
             M -32.898 8.952
             L -32.102 8.952
             L -32.102 10.548
             L -36.898 10.548
             L -36.898 8.952
             L -32.898 8.952
             M -29.392 8.112
             A 1.865 1.865 0 0 1 -26.862 8.858
             A 1.865 1.865 0 0 1 -27.608 11.388
             A 1.865 1.865 0 0 1 -30.138 10.642
             A 1.865 1.865 0 0 1 -29.392 8.112
             M -24.898 6.832
             L -24.898 5.452
             L -20.102 5.452
             L -20.102 7.048
             L -24.898 7.048
             L -24.898 6.832
             M -17.898 8.952
             L -14.102 8.952
             L -14.102 10.548
             L -18.898 10.548
             L -18.898 8.952
             L -17.898 8.952
             M -11.695 7.048
             L -11.898 7.048
             L -11.898 5.452
             L -7.102 5.452
             L -7.102 7.048
             L -11.695 7.048
             M -4.898 8.952
             L -1.102 8.952
             L -1.102 10.548
             L -5.898 10.548
             L -5.898 8.952
             L -4.898 8.952
             M 1.102 6.832
             L 1.102 5.452
             L 5.898 5.452
             L 5.898 7.048
             L 1.102 7.048
             L 1.102 6.832
             M 8.102 8.952
             L 11.898 8.952
             L 11.898 10.548
             L 7.102 10.548
             L 7.102 8.952
             L 8.102 8.952
             M 14.305 7.048
             L 14.102 7.048
             L 14.102 5.452
             L 18.898 5.452
             L 18.898 7.048
             L 14.305 7.048
             M 24.102 8.952
             L 24.898 8.952
             L 24.898 10.548
             L 20.102 10.548
             L 20.102 8.952
             L 24.102 8.952
             M 27.608 8.112
             A 1.865 1.865 0 0 1 30.138 8.858
             A 1.865 1.865 0 0 1 29.392 11.388
             A 1.865 1.865 0 0 1 26.862 10.642
             A 1.865 1.865 0 0 1 27.608 8.112
             M 32.305 7.048
             L 32.102 7.048
             L 32.102 5.452
             L 36.898 5.452
             L 36.898 7.048
             L 32.305 7.048
             M 39.102 8.952
             L 42.898 8.952
             L 42.898 10.548
             L 38.102 10.548
             L 38.102 8.952
             L 39.102 8.952
             M 45.305 7.048
             L 45.102 7.048
             L 45.102 5.452
             L 49.898 5.452
             L 49.898 7.048
             L 45.305 7.048
             M 52.102 8.952
             L 55.898 8.952
             L 55.898 10.548
             L 51.102 10.548
             L 51.102 8.952
             L 52.102 8.952
             M 58.305 7.048
             L 58.102 7.048
             L 58.102 5.452
             L 62.898 5.452
             L 62.898 7.048
             L 58.305 7.048
             M 65.102 8.952
             L 68.898 8.952
             L 68.898 10.548
             L 64.102 10.548
             L 64.102 8.952
             L 65.102 8.952
             M 71.102 6.832
             L 71.102 5.452
             L 75.898 5.452
             L 75.898 7.048
             L 71.102 7.048
             L 71.102 6.832
             M 77.102 9.155
             L 77.102 8.952
             L 81.898 8.952
             L 81.898 10.548
             L 77.102 10.548
             L 77.102 9.155
             M 77.102 2.845
             L 77.102 1.452
             L 81.898 1.452
             L 81.898 3.048
             L 77.102 3.048
             L 77.102 2.845
             M 75.898 -1.048
             L 75.898 -0.452
             L 71.102 -0.452
             L 71.102 -2.048
             L 75.898 -2.048
             L 75.898 -1.048
             M 77.102 -4.668
             L 77.102 -6.048
             L 81.898 -6.048
             L 81.898 -4.452
             L 77.102 -4.452
             L 77.102 -4.668
             M 75.898 -8.548
             L 75.898 -7.952
             L 71.102 -7.952
             L 71.102 -9.548
             L 75.898 -9.548
             L 75.898 -8.548
             M 77.102 -12.155
             L 77.102 -13.548
             L 81.898 -13.548
             L 81.898 -11.952
             L 77.102 -11.952
             L 77.102 -12.155
             M 75.898 -16.048
             L 75.898 -15.452
             L 71.102 -15.452
             L 71.102 -17.048
             L 75.898 -17.048
             L 75.898 -16.048
             M 77.102 -19.667
             L 77.102 -21.048
             L 81.898 -21.048
             L 81.898 -19.452
             L 77.102 -19.452
             L 77.102 -19.667
             M 71.898 -22.952
             L 71.102 -22.952
             L 71.102 -24.548
             L 75.898 -24.548
             L 75.898 -22.952
             L 71.898 -22.952
             M 67.102 -21.048
             L 68.898 -21.048
             L 68.898 -19.452
             L 64.102 -19.452
             L 64.102 -21.048
             L 67.102 -21.048
             M 61.898 -22.952
             L 58.102 -22.952
             L 58.102 -24.548
             L 62.898 -24.548
             L 62.898 -22.952
             L 61.898 -22.952
             M 55.695 -21.048
             L 55.898 -21.048
             L 55.898 -19.452
             L 51.102 -19.452
             L 51.102 -21.048
             L 55.695 -21.048
             M 48.898 -22.952
             L 45.102 -22.952
             L 45.102 -24.548
             L 49.898 -24.548
             L 49.898 -22.952
             L 48.898 -22.952
             M 42.695 -21.048
             L 42.898 -21.048
             L 42.898 -19.452
             L 38.102 -19.452
             L 38.102 -21.048
             L 42.695 -21.048
             M 32.305 -22.952
             L 32.102 -22.952
             L 32.102 -24.548
             L 36.898 -24.548
             L 36.898 -22.952
             L 32.305 -22.952
             M 27.473 -21.573
             A 1.498 1.498 0 0 1 27.223 -23.677
             A 1.498 1.498 0 0 1 29.327 -23.927
             A 1.498 1.498 0 0 1 29.577 -21.823
             A 1.498 1.498 0 0 1 27.473 -21.573
             M 24.898 -20.833
             L 24.898 -19.452
             L 20.102 -19.452
             L 20.102 -21.048
             L 24.898 -21.048
             L 24.898 -20.833
             M 18.683 -22.952
             L 14.102 -22.952
             L 14.102 -24.548
             L 18.898 -24.548
             L 18.898 -22.952
             L 18.683 -22.952
             M 18.898 -16.833
             L 18.898 -15.452
             L 14.102 -15.452
             L 14.102 -17.048
             L 18.898 -17.048
             L 18.898 -16.833
             M 20.102 -12.952
             L 20.102 -13.548
             L 24.898 -13.548
             L 24.898 -11.952
             L 20.102 -11.952
             L 20.102 -12.952
             M 18.898 -9.345
             L 18.898 -7.952
             L 14.102 -7.952
             L 14.102 -9.548
             L 18.898 -9.548
             L 18.898 -9.345
             M 20.102 -5.452
             L 20.102 -6.048
             L 24.898 -6.048
             L 24.898 -4.452
             L 20.102 -4.452
             L 20.102 -5.452
             M 18.898 -1.832
             L 18.898 -0.452
             L 14.102 -0.452
             L 14.102 -2.048
             L 18.898 -2.048
             L 18.898 -1.832
             M 24.898 1.668
             L 24.898 3.048
             L 20.102 3.048
             L 20.102 1.452
             L 24.898 1.452
             L 24.898 1.668
             M 32.305 -0.452
             L 32.102 -0.452
             L 32.102 -2.048
             L 36.898 -2.048
             L 36.898 -0.452
             L 32.305 -0.452
             M 39.102 1.452
             L 42.898 1.452
             L 42.898 3.048
             L 38.102 3.048
             L 38.102 1.452
             L 39.102 1.452
             M 45.305 -0.452
             L 45.102 -0.452
             L 45.102 -2.048
             L 49.898 -2.048
             L 49.898 -0.452
             L 45.305 -0.452
             M 52.102 1.452
             L 55.898 1.452
             L 55.898 3.048
             L 51.102 3.048
             L 51.102 1.452
             L 52.102 1.452
             M 58.305 -0.452
             L 58.102 -0.452
             L 58.102 -2.048
             L 62.898 -2.048
             L 62.898 -0.452
             L 58.305 -0.452
             M 64.317 1.452
             L 68.898 1.452
             L 68.898 3.048
             L 64.102 3.048
             L 64.102 1.452
             L 64.317 1.452
             M 64.102 -4.668
             L 64.102 -6.048
             L 68.898 -6.048
             L 68.898 -4.452
             L 64.102 -4.452
             L 64.102 -4.668
             M 62.898 -8.548
             L 62.898 -7.952
             L 58.102 -7.952
             L 58.102 -9.548
             L 62.898 -9.548
             L 62.898 -8.548
             M 64.102 -12.155
             L 64.102 -13.548
             L 68.898 -13.548
             L 68.898 -11.952
             L 64.102 -11.952
             L 64.102 -12.155
             M 58.898 -15.452
             L 58.102 -15.452
             L 58.102 -17.048
             L 62.898 -17.048
             L 62.898 -15.452
             L 58.898 -15.452
             M 54.102 -13.548
             L 55.898 -13.548
             L 55.898 -11.952
             L 51.102 -11.952
             L 51.102 -13.548
             L 54.102 -13.548
             M 48.898 -15.452
             L 45.102 -15.452
             L 45.102 -17.048
             L 49.898 -17.048
             L 49.898 -15.452
             L 48.898 -15.452
             M 42.898 -13.345
             L 42.898 -11.952
             L 38.102 -11.952
             L 38.102 -13.548
             L 42.898 -13.548
             L 42.898 -13.345
             M 36.695 -15.452
             L 32.102 -15.452
             L 32.102 -17.048
             L 36.898 -17.048
             L 36.898 -15.452
             L 36.695 -15.452
             M 36.898 -9.345
             L 36.898 -7.952
             L 32.102 -7.952
             L 32.102 -9.548
             L 36.898 -9.548
             L 36.898 -9.345
             M 42.102 -6.048
             L 42.898 -6.048
             L 42.898 -4.452
             L 38.102 -4.452
             L 38.102 -6.048
             L 42.102 -6.048
             M 46.898 -7.952
             L 45.102 -7.952
             L 45.102 -9.548
             L 49.898 -9.548
             L 49.898 -7.952
             L 46.898 -7.952
             M 51.305 -4.452
             L 51.102 -4.452
             L 51.102 -6.048
             L 55.898 -6.048
             L 55.898 -4.452
             L 51.305 -4.452
             M 57.823 21.323
             A 1.498 1.498 0 0 1 59.927 21.073
             A 1.498 1.498 0 0 1 60.177 23.177
             A 1.498 1.498 0 0 1 58.073 23.427
             A 1.498 1.498 0 0 1 57.823 21.323
             M 53 20.348
             A 3.298 3.298 0 0 1 49.702 17.05
             A 3.298 3.298 0 0 1 53 13.752
             A 3.298 3.298 0 0 1 56.298 17.05
             A 3.298 3.298 0 0 1 53 20.348
             M 17.88 14.34
             A 3.298 3.298 0 0 1 18.71 18.93
             A 3.298 3.298 0 0 1 14.12 19.76
             A 3.298 3.298 0 0 1 13.29 15.17
             A 3.298 3.298 0 0 1 17.88 14.34
             M 8.898 3.048
             L 7.102 3.048
             L 7.102 1.452
             L 11.898 1.452
             L 11.898 3.048
             L 8.898 3.048
             M 2.898 -0.452
             L 1.102 -0.452
             L 1.102 -2.048
             L 5.898 -2.048
             L 5.898 -0.452
             L 2.898 -0.452
             M -1.898 1.452
             L -1.102 1.452
             L -1.102 3.048
             L -5.898 3.048
             L -5.898 1.452
             L -1.898 1.452
             M -7.102 -1.845
             L -7.102 -0.452
             L -11.898 -0.452
             L -11.898 -2.048
             L -7.102 -2.048
             L -7.102 -1.845
             M -5.898 -4.668
             L -5.898 -6.048
             L -1.102 -6.048
             L -1.102 -4.452
             L -5.898 -4.452
             L -5.898 -4.668
             M -7.102 -8.548
             L -7.102 -7.952
             L -11.898 -7.952
             L -11.898 -9.548
             L -7.102 -9.548
             L -7.102 -8.548
             M -5.898 -12.155
             L -5.898 -13.548
             L -1.102 -13.548
             L -1.102 -11.952
             L -5.898 -11.952
             L -5.898 -12.155
             M -11.102 -15.452
             L -11.898 -15.452
             L -11.898 -17.048
             L -7.102 -17.048
             L -7.102 -15.452
             L -11.102 -15.452
             M -15.898 -13.548
             L -14.102 -13.548
             L -14.102 -11.952
             L -18.898 -11.952
             L -18.898 -13.548
             L -15.898 -13.548
             M -20.102 -15.655
             L -20.102 -15.452
             L -24.898 -15.452
             L -24.898 -17.048
             L -20.102 -17.048
             L -20.102 -15.655
             M -20.102 -9.345
             L -20.102 -7.952
             L -24.898 -7.952
             L -24.898 -9.548
             L -20.102 -9.548
             L -20.102 -9.345
             M -18.898 -5.452
             L -18.898 -6.048
             L -14.102 -6.048
             L -14.102 -4.452
             L -18.898 -4.452
             L -18.898 -5.452
             M -20.102 -1.832
             L -20.102 -0.452
             L -24.898 -0.452
             L -24.898 -2.048
             L -20.102 -2.048
             L -20.102 -1.832
             M -18.683 1.452
             L -14.102 1.452
             L -14.102 3.048
             L -18.898 3.048
             L -18.898 1.452
             L -18.683 1.452
             M -32.305 1.452
             L -32.102 1.452
             L -32.102 3.048
             L -36.898 3.048
             L -36.898 1.452
             L -32.305 1.452
             M -38.305 -2.048
             L -38.102 -2.048
             L -38.102 -0.452
             L -42.898 -0.452
             L -42.898 -2.048
             L -38.305 -2.048
             M -36.898 -5.452
             L -36.898 -6.048
             L -32.102 -6.048
             L -32.102 -4.452
             L -36.898 -4.452
             L -36.898 -5.452
             M -38.102 -8.548
             L -38.102 -7.952
             L -42.898 -7.952
             L -42.898 -9.548
             L -38.102 -9.548
             L -38.102 -8.548
             M -36.898 -12.155
             L -36.898 -13.548
             L -32.102 -13.548
             L -32.102 -11.952
             L -36.898 -11.952
             L -36.898 -12.155
             M -42.102 -15.452
             L -42.898 -15.452
             L -42.898 -17.048
             L -38.102 -17.048
             L -38.102 -15.452
             L -42.102 -15.452
             M -46.898 -13.548
             L -45.102 -13.548
             L -45.102 -11.952
             L -49.898 -11.952
             L -49.898 -13.548
             L -46.898 -13.548
             M -52.102 -15.452
             L -55.898 -15.452
             L -55.898 -17.048
             L -51.102 -17.048
             L -51.102 -15.452
             L -52.102 -15.452
             M -58.102 -13.345
             L -58.102 -11.952
             L -62.898 -11.952
             L -62.898 -13.548
             L -58.102 -13.548
             L -58.102 -13.345
             M -64.102 -15.655
             L -64.102 -15.452
             L -68.898 -15.452
             L -68.898 -17.048
             L -64.102 -17.048
             L -64.102 -15.655
             M -64.102 -9.345
             L -64.102 -7.952
             L -68.898 -7.952
             L -68.898 -9.548
             L -64.102 -9.548
             L -64.102 -9.345
             M -62.898 -5.452
             L -62.898 -6.048
             L -58.102 -6.048
             L -58.102 -4.452
             L -62.898 -4.452
             L -62.898 -5.452
             M -64.102 -1.832
             L -64.102 -0.452
             L -68.898 -0.452
             L -68.898 -2.048
             L -64.102 -2.048
             L -64.102 -1.832
             M -58.898 1.452
             L -58.102 1.452
             L -58.102 3.048
             L -62.898 3.048
             L -62.898 1.452
             L -58.898 1.452
             M -54.102 -0.452
             L -55.898 -0.452
             L -55.898 -2.048
             L -51.102 -2.048
             L -51.102 -0.452
             L -54.102 -0.452
             M -49.695 1.452
             L -45.102 1.452
             L -45.102 3.048
             L -49.898 3.048
             L -49.898 1.452
             L -49.695 1.452
             M -49.695 -4.452
             L -49.898 -4.452
             L -49.898 -6.048
             L -45.102 -6.048
             L -45.102 -4.452
             L -49.695 -4.452
             M -51.305 -7.952
             L -55.898 -7.952
             L -55.898 -9.548
             L -51.102 -9.548
             L -51.102 -7.952
             L -51.305 -7.952
             M -58.073 21.073
             A 1.498 1.498 0 0 1 -57.823 23.177
             A 1.498 1.498 0 0 1 -59.927 23.427
             A 1.498 1.498 0 0 1 -60.177 21.323
             A 1.498 1.498 0 0 1 -58.073 21.073
             M -53.619 20.343
             A 3.298 3.298 0 0 1 -57.093 17.231
             A 3.298 3.298 0 0 1 -53.981 13.757
             A 3.298 3.298 0 0 1 -50.507 16.869
             A 3.298 3.298 0 0 1 -53.619 20.343
             M -20.185 17.345
             A 3.298 3.298 0 0 1 -17.195 13.765
             A 3.298 3.298 0 0 1 -13.615 16.755
             A 3.298 3.298 0 0 1 -16.605 20.335
             A 3.298 3.298 0 0 1 -20.185 17.345" fill="none" stroke="#0000d3" stroke-width="0.1"/>
</g>
<g id="opperation-2">
    <title>2D Profile3 (Op: 2/2)</title>
    <path d="M -82.65 -28.102
             A 0.702 0.702 0 0 0 -83.352 -27.4
             L -83.352 27.4
             A 0.702 0.702 0 0 0 -82.65 28.102
             L 82.65 28.102
             A 0.702 0.702 0 0 0 83.352 27.4
             L 83.352 -27.4
             A 0.702 0.702 0 0 0 82.65 -28.102
             L -82.65 -28.102" fill="none" stroke="#02abea" stroke-width="0.1"/>
</g>
</g>
</svg>
