<?xml version="1.0" encoding="UTF-8" standalone="no"?>
<svg xmlns="http://www.w3.org/2000/svg" width="172.5mm" height="62mm" viewBox="0 0 172.5 62">
<desc>Created with Glowforge for Fusion 360. To download visit: https://cam.autodesk.com/hsmposts?p=glowforge</desc>
<!-- CAM Setup Info:
Work Area Width: 172.5mm
Work Area Height: 62mm
Work Area Too Small?: false
Stock box Upper Right: 84.25,29
Stock box Lower Left: -84.25,-29
Origin: 0,0
Selected Colors: #0000d3, #02abea, #1fb714, #dd0907, #f20884, #fbf305
-->
<g id="global-translation-frame" transform="translate(86.25, 31) scale(1, 1)">
<g id="opperation-1">
    <title>2D Profile1 (Op: 1/2)</title>
    <path d="M -58.073 21.073
             A 1.498 1.498 0 0 1 -57.823 23.177
             A 1.498 1.498 0 0 1 -59.927 23.427
             A 1.498 1.498 0 0 1 -60.177 21.323
             A 1.498 1.498 0 0 1 -58.073 21.073
             M -56.403 19.076
             A 3.298 3.298 0 0 1 -55.826 14.447
             A 3.298 3.298 0 0 1 -51.197 15.024
             A 3.298 3.298 0 0 1 -51.774 19.653
             A 3.298 3.298 0 0 1 -56.403 19.076
             M -49.745 8.952
             L -45.052 8.952
             L -45.052 10.548
             L -49.948 10.548
             L -49.948 8.952
             L -49.745 8.952
             M -51.255 5.452
             L -51.052 5.452
             L -51.052 7.048
             L -55.948 7.048
             L -55.948 5.452
             L -51.255 5.452
             M -49.948 2.048
             L -49.948 1.452
             L -45.052 1.452
             L -45.052 3.048
             L -49.948 3.048
             L -49.948 2.048
             M -51.052 -1.048
             L -51.052 -0.452
             L -55.948 -0.452
             L -55.948 -2.048
             L -51.052 -2.048
             L -51.052 -1.048
             M -49.745 -4.452
             L -49.948 -4.452
             L -49.948 -6.048
             L -45.052 -6.048
             L -45.052 -4.452
             L -49.745 -4.452
             M -51.052 -8.548
             L -51.052 -7.952
             L -55.948 -7.952
             L -55.948 -9.548
             L -51.052 -9.548
             L -51.052 -8.548
             M -49.948 -12.155
             L -49.948 -13.548
             L -45.052 -13.548
             L -45.052 -11.952
             L -49.948 -11.952
             L -49.948 -12.155
             M -51.052 -16.048
             L -51.052 -15.452
             L -55.948 -15.452
             L -55.948 -17.048
             L -51.052 -17.048
             L -51.052 -16.048
             M -49.745 -19.452
             L -49.948 -19.452
             L -49.948 -21.048
             L -45.052 -21.048
             L -45.052 -19.452
             L -49.745 -19.452
             M -55.052 -22.952
             L -55.948 -22.952
             L -55.948 -24.548
             L -51.052 -24.548
             L -51.052 -22.952
             L -55.052 -22.952
             M -59.948 -21.048
             L -58.052 -21.048
             L -58.052 -19.452
             L -62.948 -19.452
             L -62.948 -21.048
             L -59.948 -21.048
             M -65.052 -22.952
             L -68.948 -22.952
             L -68.948 -24.548
             L -64.052 -24.548
             L -64.052 -22.952
             L -65.052 -22.952
             M -71.052 -20.833
             L -71.052 -19.452
             L -75.948 -19.452
             L -75.948 -21.048
             L -71.052 -21.048
             L -71.052 -20.833
             M -77.268 -22.952
             L -81.948 -22.952
             L -81.948 -24.548
             L -77.052 -24.548
             L -77.052 -22.952
             L -77.268 -22.952
             M -77.052 -16.833
             L -77.052 -15.452
             L -81.948 -15.452
             L -81.948 -17.048
             L -77.052 -17.048
             L -77.052 -16.833
             M -75.948 -12.952
             L -75.948 -13.548
             L -71.052 -13.548
             L -71.052 -11.952
             L -75.948 -11.952
             L -75.948 -12.952
             M -77.052 -9.345
             L -77.052 -7.952
             L -81.948 -7.952
             L -81.948 -9.548
             L -77.052 -9.548
             L -77.052 -9.345
             M -75.948 -5.452
             L -75.948 -6.048
             L -71.052 -6.048
             L -71.052 -4.452
             L -75.948 -4.452
             L -75.948 -5.452
             M -77.052 -1.832
             L -77.052 -0.452
             L -81.948 -0.452
             L -81.948 -2.048
             L -77.052 -2.048
             L -77.052 -1.832
             M -75.948 2.048
             L -75.948 1.452
             L -71.052 1.452
             L -71.052 3.048
             L -75.948 3.048
             L -75.948 2.048
             M -77.052 5.668
             L -77.052 7.048
             L -81.948 7.048
             L -81.948 5.452
             L -77.052 5.452
             L -77.052 5.668
             M -71.948 8.952
             L -71.052 8.952
             L -71.052 10.548
             L -75.948 10.548
             L -75.948 8.952
             L -71.948 8.952
             M -67.052 7.048
             L -68.948 7.048
             L -68.948 5.452
             L -64.052 5.452
             L -64.052 7.048
             L -67.052 7.048
             M -62.745 8.952
             L -58.052 8.952
             L -58.052 10.548
             L -62.948 10.548
             L -62.948 8.952
             L -62.745 8.952
             M -62.948 2.845
             L -62.948 1.452
             L -58.052 1.452
             L -58.052 3.048
             L -62.948 3.048
             L -62.948 2.845
             M -64.052 -1.048
             L -64.052 -0.452
             L -68.948 -0.452
             L -68.948 -2.048
             L -64.052 -2.048
             L -64.052 -1.048
             M -62.745 -4.452
             L -62.948 -4.452
             L -62.948 -6.048
             L -58.052 -6.048
             L -58.052 -4.452
             L -62.745 -4.452
             M -64.052 -8.548
             L -64.052 -7.952
             L -68.948 -7.952
             L -68.948 -9.548
             L -64.052 -9.548
             L -64.052 -8.548
             M -62.948 -12.155
             L -62.948 -13.548
             L -58.052 -13.548
             L -58.052 -11.952
             L -62.948 -11.952
             L -62.948 -12.155
             M -64.052 -15.655
             L -64.052 -15.452
             L -68.948 -15.452
             L -68.948 -17.048
             L -64.052 -17.048
             L -64.052 -15.655
             M -42.052 -7.952
             L -42.948 -7.952
             L -42.948 -9.548
             L -38.052 -9.548
             L -38.052 -7.952
             L -42.052 -7.952
             M -36.745 -4.452
             L -36.948 -4.452
             L -36.948 -6.048
             L -32.052 -6.048
             L -32.052 -4.452
             L -36.745 -4.452
             M -38.052 -1.048
             L -38.052 -0.452
             L -42.948 -0.452
             L -42.948 -2.048
             L -38.052 -2.048
             L -38.052 -1.048
             M -36.948 2.048
             L -36.948 1.452
             L -32.052 1.452
             L -32.052 3.048
             L -36.948 3.048
             L -36.948 2.048
             M -38.255 5.452
             L -38.052 5.452
             L -38.052 7.048
             L -42.948 7.048
             L -42.948 5.452
             L -38.255 5.452
             M -32.052 9.155
             L -32.052 10.548
             L -36.948 10.548
             L -36.948 8.952
             L -32.052 8.952
             L -32.052 9.155
             M -28.5 7.885
             A 1.865 1.865 0 0 1 -26.635 9.75
             A 1.865 1.865 0 0 1 -28.5 11.615
             A 1.865 1.865 0 0 1 -30.365 9.75
             A 1.865 1.865 0 0 1 -28.5 7.885
             M -24.948 6.832
             L -24.948 5.452
             L -20.052 5.452
             L -20.052 7.048
             L -24.948 7.048
             L -24.948 6.832
             M -17.948 8.952
             L -14.052 8.952
             L -14.052 10.548
             L -18.948 10.548
             L -18.948 8.952
             L -17.948 8.952
             M -11.745 7.048
             L -11.948 7.048
             L -11.948 5.452
             L -7.052 5.452
             L -7.052 7.048
             L -11.745 7.048
             M -4.948 8.952
             L -1.052 8.952
             L -1.052 10.548
             L -5.948 10.548
             L -5.948 8.952
             L -4.948 8.952
             M 1.052 6.832
             L 1.052 5.452
             L 5.948 5.452
             L 5.948 7.048
             L 1.052 7.048
             L 1.052 6.832
             M 8.052 8.952
             L 11.948 8.952
             L 11.948 10.548
             L 7.052 10.548
             L 7.052 8.952
             L 8.052 8.952
             M 14.255 7.048
             L 14.052 7.048
             L 14.052 5.452
             L 18.948 5.452
             L 18.948 7.048
             L 14.255 7.048
             M 24.052 8.952
             L 24.948 8.952
             L 24.948 10.548
             L 20.052 10.548
             L 20.052 8.952
             L 24.052 8.952
             M 27.608 8.112
             A 1.865 1.865 0 0 1 30.138 8.858
             A 1.865 1.865 0 0 1 29.392 11.388
             A 1.865 1.865 0 0 1 26.862 10.642
             A 1.865 1.865 0 0 1 27.608 8.112
             M 32.255 7.048
             L 32.052 7.048
             L 32.052 5.452
             L 36.948 5.452
             L 36.948 7.048
             L 32.255 7.048
             M 39.052 8.952
             L 42.948 8.952
             L 42.948 10.548
             L 38.052 10.548
             L 38.052 8.952
             L 39.052 8.952
             M 45.255 7.048
             L 45.052 7.048
             L 45.052 5.452
             L 49.948 5.452
             L 49.948 7.048
             L 45.255 7.048
             M 52.052 8.952
             L 55.948 8.952
             L 55.948 10.548
             L 51.052 10.548
             L 51.052 8.952
             L 52.052 8.952
             M 58.255 7.048
             L 58.052 7.048
             L 58.052 5.452
             L 62.948 5.452
             L 62.948 7.048
             L 58.255 7.048
             M 65.052 8.952
             L 68.948 8.952
             L 68.948 10.548
             L 64.052 10.548
             L 64.052 8.952
             L 65.052 8.952
             M 71.052 6.832
             L 71.052 5.452
             L 75.948 5.452
             L 75.948 7.048
             L 71.052 7.048
             L 71.052 6.832
             M 77.052 9.155
             L 77.052 8.952
             L 81.948 8.952
             L 81.948 10.548
             L 77.052 10.548
             L 77.052 9.155
             M 77.052 2.845
             L 77.052 1.452
             L 81.948 1.452
             L 81.948 3.048
             L 77.052 3.048
             L 77.052 2.845
             M 75.948 -1.048
             L 75.948 -0.452
             L 71.052 -0.452
             L 71.052 -2.048
             L 75.948 -2.048
             L 75.948 -1.048
             M 77.052 -4.668
             L 77.052 -6.048
             L 81.948 -6.048
             L 81.948 -4.452
             L 77.052 -4.452
             L 77.052 -4.668
             M 75.948 -8.548
             L 75.948 -7.952
             L 71.052 -7.952
             L 71.052 -9.548
             L 75.948 -9.548
             L 75.948 -8.548
             M 77.052 -12.155
             L 77.052 -13.548
             L 81.948 -13.548
             L 81.948 -11.952
             L 77.052 -11.952
             L 77.052 -12.155
             M 75.948 -16.048
             L 75.948 -15.452
             L 71.052 -15.452
             L 71.052 -17.048
             L 75.948 -17.048
             L 75.948 -16.048
             M 77.052 -19.667
             L 77.052 -21.048
             L 81.948 -21.048
             L 81.948 -19.452
             L 77.052 -19.452
             L 77.052 -19.667
             M 71.948 -22.952
             L 71.052 -22.952
             L 71.052 -24.548
             L 75.948 -24.548
             L 75.948 -22.952
             L 71.948 -22.952
             M 67.052 -21.048
             L 68.948 -21.048
             L 68.948 -19.452
             L 64.052 -19.452
             L 64.052 -21.048
             L 67.052 -21.048
             M 61.948 -22.952
             L 58.052 -22.952
             L 58.052 -24.548
             L 62.948 -24.548
             L 62.948 -22.952
             L 61.948 -22.952
             M 55.745 -21.048
             L 55.948 -21.048
             L 55.948 -19.452
             L 51.052 -19.452
             L 51.052 -21.048
             L 55.745 -21.048
             M 48.948 -22.952
             L 45.052 -22.952
             L 45.052 -24.548
             L 49.948 -24.548
             L 49.948 -22.952
             L 48.948 -22.952
             M 42.745 -21.048
             L 42.948 -21.048
             L 42.948 -19.452
             L 38.052 -19.452
             L 38.052 -21.048
             L 42.745 -21.048
             M 32.255 -22.952
             L 32.052 -22.952
             L 32.052 -24.548
             L 36.948 -24.548
             L 36.948 -22.952
             L 32.255 -22.952
             M 27.473 -21.573
             A 1.498 1.498 0 0 1 27.223 -23.677
             A 1.498 1.498 0 0 1 29.327 -23.927
             A 1.498 1.498 0 0 1 29.577 -21.823
             A 1.498 1.498 0 0 1 27.473 -21.573
             M 24.948 -20.833
             L 24.948 -19.452
             L 20.052 -19.452
             L 20.052 -21.048
             L 24.948 -21.048
             L 24.948 -20.833
             M 17.948 -22.952
             L 14.052 -22.952
             L 14.052 -24.548
             L 18.948 -24.548
             L 18.948 -22.952
             L 17.948 -22.952
             M 11.745 -21.048
             L 11.948 -21.048
             L 11.948 -19.452
             L 7.052 -19.452
             L 7.052 -21.048
             L 11.745 -21.048
             M 4.948 -22.952
             L 1.052 -22.952
             L 1.052 -24.548
             L 5.948 -24.548
             L 5.948 -22.952
             L 4.948 -22.952
             M -1.052 -20.833
             L -1.052 -19.452
             L -5.948 -19.452
             L -5.948 -21.048
             L -1.052 -21.048
             L -1.052 -20.833
             M -8.052 -22.952
             L -11.948 -22.952
             L -11.948 -24.548
             L -7.052 -24.548
             L -7.052 -22.952
             L -8.052 -22.952
             M -14.255 -21.048
             L -14.052 -21.048
             L -14.052 -19.452
             L -18.948 -19.452
             L -18.948 -21.048
             L -14.255 -21.048
             M -24.948 -23.167
             L -24.948 -24.548
             L -20.052 -24.548
             L -20.052 -22.952
             L -24.948 -22.952
             L -24.948 -23.167
             M -27.002 -22.75
             A 1.498 1.498 0 0 1 -28.5 -21.252
             A 1.498 1.498 0 0 1 -29.998 -22.75
             A 1.498 1.498 0 0 1 -28.5 -24.248
             A 1.498 1.498 0 0 1 -27.002 -22.75
             M -32.255 -21.048
             L -32.052 -21.048
             L -32.052 -19.452
             L -36.948 -19.452
             L -36.948 -21.048
             L -32.255 -21.048
             M -38.255 -22.952
             L -42.948 -22.952
             L -42.948 -24.548
             L -38.052 -24.548
             L -38.052 -22.952
             L -38.255 -22.952
             M -38.255 -17.048
             L -38.052 -17.048
             L -38.052 -15.452
             L -42.948 -15.452
             L -42.948 -17.048
             L -38.255 -17.048
             M -32.052 -13.345
             L -32.052 -11.952
             L -36.948 -11.952
             L -36.948 -13.548
             L -32.052 -13.548
             L -32.052 -13.345
             M -24.948 -15.655
             L -24.948 -17.048
             L -20.052 -17.048
             L -20.052 -15.452
             L -24.948 -15.452
             L -24.948 -15.655
             M -18.948 -12.155
             L -18.948 -13.548
             L -14.052 -13.548
             L -14.052 -11.952
             L -18.948 -11.952
             L -18.948 -12.155
             M -20.052 -9.345
             L -20.052 -7.952
             L -24.948 -7.952
             L -24.948 -9.548
             L -20.052 -9.548
             L -20.052 -9.345
             M -18.948 -5.452
             L -18.948 -6.048
             L -14.052 -6.048
             L -14.052 -4.452
             L -18.948 -4.452
             L -18.948 -5.452
             M -20.052 -1.832
             L -20.052 -0.452
             L -24.948 -0.452
             L -24.948 -2.048
             L -20.052 -2.048
             L -20.052 -1.832
             M -14.948 1.452
             L -14.052 1.452
             L -14.052 3.048
             L -18.948 3.048
             L -18.948 1.452
             L -14.948 1.452
             M -10.052 -0.452
             L -11.948 -0.452
             L -11.948 -2.048
             L -7.052 -2.048
             L -7.052 -0.452
             L -10.052 -0.452
             M -4.948 1.452
             L -1.052 1.452
             L -1.052 3.048
             L -5.948 3.048
             L -5.948 1.452
             L -4.948 1.452
             M 1.052 -0.668
             L 1.052 -2.048
             L 5.948 -2.048
             L 5.948 -0.452
             L 1.052 -0.452
             L 1.052 -0.668
             M 8.052 1.452
             L 11.948 1.452
             L 11.948 3.048
             L 7.052 3.048
             L 7.052 1.452
             L 8.052 1.452
             M 14.255 -0.452
             L 14.052 -0.452
             L 14.052 -2.048
             L 18.948 -2.048
             L 18.948 -0.452
             L 14.255 -0.452
             M 20.267 1.452
             L 24.948 1.452
             L 24.948 3.048
             L 20.052 3.048
             L 20.052 1.452
             L 20.267 1.452
             M 20.052 -4.668
             L 20.052 -6.048
             L 24.948 -6.048
             L 24.948 -4.452
             L 20.052 -4.452
             L 20.052 -4.668
             M 18.948 -8.548
             L 18.948 -7.952
             L 14.052 -7.952
             L 14.052 -9.548
             L 18.948 -9.548
             L 18.948 -8.548
             M 20.052 -12.155
             L 20.052 -13.548
             L 24.948 -13.548
             L 24.948 -11.952
             L 20.052 -11.952
             L 20.052 -12.155
             M 14.948 -15.452
             L 14.052 -15.452
             L 14.052 -17.048
             L 18.948 -17.048
             L 18.948 -15.452
             L 14.948 -15.452
             M 10.052 -13.548
             L 11.948 -13.548
             L 11.948 -11.952
             L 7.052 -11.952
             L 7.052 -13.548
             L 10.052 -13.548
             M 4.948 -15.452
             L 1.052 -15.452
             L 1.052 -17.048
             L 5.948 -17.048
             L 5.948 -15.452
             L 4.948 -15.452
             M -1.052 -13.345
             L -1.052 -11.952
             L -5.948 -11.952
             L -5.948 -13.548
             L -1.052 -13.548
             L -1.052 -13.345
             M -7.052 -15.655
             L -7.052 -15.452
             L -11.948 -15.452
             L -11.948 -17.048
             L -7.052 -17.048
             L -7.052 -15.655
             M -7.052 -9.345
             L -7.052 -7.952
             L -11.948 -7.952
             L -11.948 -9.548
             L -7.052 -9.548
             L -7.052 -9.345
             M -1.948 -6.048
             L -1.052 -6.048
             L -1.052 -4.452
             L -5.948 -4.452
             L -5.948 -6.048
             L -1.948 -6.048
             M 2.948 -7.952
             L 1.052 -7.952
             L 1.052 -9.548
             L 5.948 -9.548
             L 5.948 -7.952
             L 2.948 -7.952
             M 11.745 -6.048
             L 11.948 -6.048
             L 11.948 -4.452
             L 7.052 -4.452
             L 7.052 -6.048
             L 11.745 -6.048
             M 32.052 -8.155
             L 32.052 -9.548
             L 36.948 -9.548
             L 36.948 -7.952
             L 32.052 -7.952
             L 32.052 -8.155
             M 38.255 -4.452
             L 38.052 -4.452
             L 38.052 -6.048
             L 42.948 -6.048
             L 42.948 -4.452
             L 38.255 -4.452
             M 36.948 -1.048
             L 36.948 -0.452
             L 32.052 -0.452
             L 32.052 -2.048
             L 36.948 -2.048
             L 36.948 -1.048
             M 41.052 1.452
             L 42.948 1.452
             L 42.948 3.048
             L 38.052 3.048
             L 38.052 1.452
             L 41.052 1.452
             M 45.948 -0.452
             L 45.052 -0.452
             L 45.052 -2.048
             L 49.948 -2.048
             L 49.948 -0.452
             L 45.948 -0.452
             M 52.052 1.452
             L 55.948 1.452
             L 55.948 3.048
             L 51.052 3.048
             L 51.052 1.452
             L 52.052 1.452
             M 58.255 -0.452
             L 58.052 -0.452
             L 58.052 -2.048
             L 62.948 -2.048
             L 62.948 -0.452
             L 58.255 -0.452
             M 64.268 1.452
             L 68.948 1.452
             L 68.948 3.048
             L 64.052 3.048
             L 64.052 1.452
             L 64.268 1.452
             M 64.052 -4.668
             L 64.052 -6.048
             L 68.948 -6.048
             L 68.948 -4.452
             L 64.052 -4.452
             L 64.052 -4.668
             M 62.948 -8.548
             L 62.948 -7.952
             L 58.052 -7.952
             L 58.052 -9.548
             L 62.948 -9.548
             L 62.948 -8.548
             M 64.052 -12.155
             L 64.052 -13.548
             L 68.948 -13.548
             L 68.948 -11.952
             L 64.052 -11.952
             L 64.052 -12.155
             M 58.948 -15.452
             L 58.052 -15.452
             L 58.052 -17.048
             L 62.948 -17.048
             L 62.948 -15.452
             L 58.948 -15.452
             M 54.052 -13.548
             L 55.948 -13.548
             L 55.948 -11.952
             L 51.052 -11.952
             L 51.052 -13.548
             L 54.052 -13.548
             M 48.948 -15.452
             L 45.052 -15.452
             L 45.052 -17.048
             L 49.948 -17.048
             L 49.948 -15.452
             L 48.948 -15.452
             M 42.948 -13.345
             L 42.948 -11.952
             L 38.052 -11.952
             L 38.052 -13.548
             L 42.948 -13.548
             L 42.948 -13.345
             M 36.745 -15.452
             L 32.052 -15.452
             L 32.052 -17.048
             L 36.948 -17.048
             L 36.948 -15.452
             L 36.745 -15.452
             M 47.948 -7.952
             L 45.052 -7.952
             L 45.052 -9.548
             L 49.948 -9.548
             L 49.948 -7.952
             L 47.948 -7.952
             M 51.255 -4.452
             L 51.052 -4.452
             L 51.052 -6.048
             L 55.948 -6.048
             L 55.948 -4.452
             L 51.255 -4.452
             M 57.823 21.323
             A 1.498 1.498 0 0 1 59.927 21.073
             A 1.498 1.498 0 0 1 60.177 23.177
             A 1.498 1.498 0 0 1 58.073 23.427
             A 1.498 1.498 0 0 1 57.823 21.323
             M 53 20.348
             A 3.298 3.298 0 0 1 49.702 17.05
             A 3.298 3.298 0 0 1 53 13.752
             A 3.298 3.298 0 0 1 56.298 17.05
             A 3.298 3.298 0 0 1 53 20.348
             M 18.71 18.93
             A 3.298 3.298 0 0 1 14.12 19.76
             A 3.298 3.298 0 0 1 13.29 15.17
             A 3.298 3.298 0 0 1 17.88 14.34
             A 3.298 3.298 0 0 1 18.71 18.93
             M -13.606 17.224
             A 3.298 3.298 0 0 1 -17.074 20.344
             A 3.298 3.298 0 0 1 -20.194 16.876
             A 3.298 3.298 0 0 1 -16.726 13.756
             A 3.298 3.298 0 0 1 -13.606 17.224" fill="none" stroke="#0000d3" stroke-width="0.1"/>
</g>
<g id="opperation-2">
    <title>2D Profile3 (Op: 2/2)</title>
    <path d="M -82.65 -28.102
             A 0.702 0.702 0 0 0 -83.352 -27.4
             L -83.352 27.4
             A 0.702 0.702 0 0 0 -82.65 28.102
             L 82.65 28.102
             A 0.702 0.702 0 0 0 83.352 27.4
             L 83.352 -27.4
             A 0.702 0.702 0 0 0 82.65 -28.102
             L -82.65 -28.102" fill="none" stroke="#02abea" stroke-width="0.1"/>
</g>
</g>
</svg>
